<svg xmlns="http://www.w3.org/2000/svg" width="134.593" height="160" viewBox="0 0 134.593 160"><g transform="translate(-1039.955 -1450.062)"><path d="M1046.675,1528.112l16.286,9.4a2.214,2.214,0,0,1-.657-2.3l7.737-44.112c.281-1.846.255-3.857-1.469-5l-16.29-9.387-.255-.148c1.975,1.17,2.027,3.038,1.717,5.131l-7.708,44.108A2.19,2.19,0,0,0,1046.675,1528.112Z" transform="translate(16.208 71.341)" fill="#c3c8c8" fill-rule="evenodd"/><path d="M1047.952,1528l14.06,8.1c0-.111.033-.214.033-.3l7.733-44.137c.314-2.093,0-3.285-1.034-3.968l-13.148-7.585a10.555,10.555,0,0,1-.11,2.48l-7.712,44.134c-.132.864,0,1.129.177,1.27Zm15.751,11.27a1.113,1.113,0,0,1-.52-.144l-16.257-9.391-.088-.051a3.194,3.194,0,0,1-1.063-3.274l7.708-44.138c.34-2.27.026-3.34-1.229-4.093a1.006,1.006,0,0,1-.376-1.362,1.045,1.045,0,0,1,1.373-.4l.259.144,16.323,9.417c2.321,1.547,2.208,4.179,1.952,6.024l-7.737,44.13c-.111.908.026,1.159.225,1.288a1,1,0,0,1,.292,1.381A1.052,1.052,0,0,1,1063.7,1539.266Z" transform="translate(15.466 70.604)" fill="#2d2a2a" fill-rule="evenodd"/><path d="M1060.74,1471.131l16.294,9.4a3.7,3.7,0,0,0,3.237-.2l35.016-16.408a1.679,1.679,0,0,1,1.632-.026l-16.3-9.405a1.626,1.626,0,0,0-1.594.033l-35.053,16.408A3.679,3.679,0,0,1,1060.74,1471.131Z" transform="translate(55.941 11.392)" fill="#e2e7e7" fill-rule="evenodd"/><path d="M1064.91,1472.685l13.344,7.707a2.731,2.731,0,0,0,2.348-.254l34.159-15.991-13.887-8.035c-.14-.067-.229-.123-.716.088l-35.012,16.39c-.062.033-.148.059-.236.1Zm14.171,9.9a4.263,4.263,0,0,1-1.743-.387l-16.378-9.45a1,1,0,0,1-.376-1.336,1.018,1.018,0,0,1,1.321-.465,2.668,2.668,0,0,0,2.411-.2l35.016-16.394a2.653,2.653,0,0,1,2.547,0l16.293,9.409a1.022,1.022,0,0,1-1.037,1.761c-.111-.078-.2-.129-.705.078l-35,16.389A5.769,5.769,0,0,1,1079.082,1482.581Z" transform="translate(55.203 10.65)" fill="#2d2a2a" fill-rule="evenodd"/><path d="M1077.585,1505.585l-35.049,24.023a5.111,5.111,0,0,0-1.716,2.052c-.521,1.07-1.063,2.913.085,3.78l16.3,9.391c-1.211-.909-.583-2.909,0-4a5.346,5.346,0,0,1,1.628-1.831l35.042-24.02a12.123,12.123,0,0,0,4.5-6.386l13.971-45.377c.483-1.355,2.325-4.263,4.153-3.292l-16.29-9.4c-1.8-.956-3.666,1.9-4.123,3.277l-13.975,45.393A12.3,12.3,0,0,1,1077.585,1505.585Z" transform="translate(0.728 0.74)" fill="#e2e7e7" fill-rule="evenodd"/><path d="M1078.313,1506.325h0Zm21.871-54.236a.833.833,0,0,0-.31.07,5.026,5.026,0,0,0-2.09,2.709l-14.008,45.374a13.21,13.21,0,0,1-4.865,6.914l-.026.011-35.049,24.019a4.435,4.435,0,0,0-1.4,1.684c-.432.919-.69,2.119-.2,2.5l14.023,8.08a7.141,7.141,0,0,1,.779-2.348,6.194,6.194,0,0,1,1.916-2.174l35.078-24.038a10.944,10.944,0,0,0,4.086-5.869l14.008-45.363a8.346,8.346,0,0,1,2.315-3.418l-14-8.1a.609.609,0,0,0-.262-.055Zm-42.255,94.5a.987.987,0,0,1-.517-.136l-16.3-9.4c-1.373-1.038-1.521-2.909-.484-5.083a6.351,6.351,0,0,1,2.031-2.44l35.049-24.03a11.134,11.134,0,0,0,4.149-5.876l13.975-45.367c.4-1.188,1.632-3.307,3.3-3.979a2.682,2.682,0,0,1,2.289.089l16.319,9.424a1.019,1.019,0,0,1-1,1.775.592.592,0,0,0-.546-.022,5.173,5.173,0,0,0-2.145,2.75l-13.975,45.348a13.153,13.153,0,0,1-4.895,6.907l-35.049,24.038a4.078,4.078,0,0,0-1.322,1.488c-.51,1-.8,2.3-.284,2.7a1.02,1.02,0,0,1,.232,1.369A1,1,0,0,1,1057.929,1546.59Z" transform="translate(0 0)" fill="#2d2a2a" fill-rule="evenodd"/><path d="M1081.971,1508.116l-35.019,24.02c-2.233,1.528-3.123,5.293-1.433,5.932l26.4,11.643c1.525.676,2.148,2.565,1.728,5.127l-7.737,44.112c-.458,2.783,1.831,3.4,3.78.985l30.295-38.183c1.746-2.211,3.806-3.411,5.552-3.219l30.295,3.234c1.916.21,4.238-3.086,3.754-5.316l-7.674-35.245a10.081,10.081,0,0,1,1.742-7.106l26.4-42.11c1.687-2.666.779-5.315-1.429-4.282l-35.016,16.408c-2.063.967-3.669.483-4.533-1.174l-13.938-29.276c-.889-1.846-3.78-.181-4.64,2.676l-14,45.389C1085.751,1504.115,1083.887,1507.023,1081.971,1508.116Z" transform="translate(12.606 7.607)" fill="#fff" fill-rule="evenodd"/><path d="M1083.249,1509.714l-34.99,24.008a4.514,4.514,0,0,0-1.857,3.688c0,.114.055.4.2.458l26.452,11.65c1.975.882,2.832,3.211,2.326,6.234l-7.737,44.1c-.144.809.059,1.208.2,1.278.236.1.952-.044,1.779-1.1l30.294-38.183c2-2.51,4.349-3.813,6.471-3.591l30.287,3.237a2.16,2.16,0,0,0,1.495-.882,4.171,4.171,0,0,0,1.17-3.218l-7.671-35.241a10.879,10.879,0,0,1,1.857-7.859l26.4-42.1c.915-1.439.8-2.587.543-2.883-.14-.162-.509-.019-.654.063l-35.053,16.4c-2.517,1.174-4.747.547-5.865-1.631l-13.942-29.294c-.119-.2-.174-.214-.318-.2a3.75,3.75,0,0,0-2.437,2.735l-14,45.389c-.779,2.469-2.691,5.629-4.954,6.94Zm-15.234,93.482a2.522,2.522,0,0,1-1-.207c-1.148-.509-1.657-1.812-1.373-3.47l7.733-44.115c.34-2.052-.059-3.555-1.148-4.027l-26.4-11.639a2.4,2.4,0,0,1-1.436-2.089,6.512,6.512,0,0,1,2.721-5.607l35.023-24.02a.311.311,0,0,1,.088-.033,11.4,11.4,0,0,0,4.027-5.821l14.008-45.377c.683-2.248,2.488-4.042,4.238-4.171a2.249,2.249,0,0,1,2.289,1.355l13.946,29.268c.2.417.882,1.75,3.178.7l35.016-16.408a2.5,2.5,0,0,1,3.064.421c1.034,1.174.889,3.355-.347,5.315l-26.393,42.1a9.1,9.1,0,0,0-1.606,6.364l7.674,35.23a6.214,6.214,0,0,1-1.632,5,3.923,3.923,0,0,1-3.237,1.546l-30.269-3.237c-1.4-.151-3.174.941-4.669,2.831l-30.321,38.194A4.3,4.3,0,0,1,1068.015,1603.2Z" transform="translate(11.87 6.866)" fill="#2d2a2a" fill-rule="evenodd"/><path d="M1067,1513.768a12.908,12.908,0,0,0,3.068-5.172l14-45.389c.428-1.362,2.318-4.245,4.123-3.281l-16.29-9.4c-1.724-.923-3.551,1.728-4.038,3.03l-14.06,45.64a13.121,13.121,0,0,1-3.061,5.171Z" transform="translate(29.033 0.74)" fill="#c3c8c8" fill-rule="evenodd"/><path d="M1053.054,1504.851l14.492,8.361a11.424,11.424,0,0,0,2.285-4.193l14.008-45.363a7.866,7.866,0,0,1,2.315-3.411l-14-8.1a.68.68,0,0,0-.521,0,4.954,4.954,0,0,0-2.086,2.518l-14.064,45.581a13.836,13.836,0,0,1-2.433,4.61Zm14.688,10.664a.922.922,0,0,1-.48-.125l-16.3-9.409a1.03,1.03,0,0,1-.225-1.573,12.108,12.108,0,0,0,2.831-4.788l14.06-45.618a6.8,6.8,0,0,1,3.289-3.761,2.664,2.664,0,0,1,2.211.129l16.319,9.417a1.019,1.019,0,0,1-1,1.775.607.607,0,0,0-.576-.015,5.206,5.206,0,0,0-2.115,2.721l-13.975,45.37a13.815,13.815,0,0,1-3.3,5.566A.984.984,0,0,1,1067.742,1515.515Z" transform="translate(28.289 0.001)" fill="#2d2a2a" fill-rule="evenodd"/></g></svg>