<svg xmlns="http://www.w3.org/2000/svg" width="158.483" height="160" viewBox="0 0 158.483 160"><path d="M222.421,502.339l-17.753-10.245-2.152-.713a34.524,34.524,0,0,0-14.51-.709c-13.5,2.081-26.776,10.916-36.58,20.082-20.813,19.485-37.405,50.575-39.793,79.154-.823,9.825-.022,20.916,4.188,29.958a33.747,33.747,0,0,0,6.851,9.815l1.688,1.513,17.765,10.246a36.543,36.543,0,0,1-3.3-3.17,37.307,37.307,0,0,1-7.178-13.1c-4.253-13.306-2.657-29.465.9-42.761,7.1-26.5,25.086-54.716,47.765-70.451,8.093-5.625,18.093-10.474,28.03-11.36a33.974,33.974,0,0,1,11.928,1.03Z" transform="translate(-110.127 -489.019)" fill="#c3c8c8" fill-rule="evenodd"/><path d="M194.38,492.024a36.638,36.638,0,0,0-5.592.432c-15.426,2.38-29.135,13.408-35.931,19.774-21.668,20.277-37.146,51.039-39.424,78.37-.67,7.962-.493,19.506,4.09,29.341a32.287,32.287,0,0,0,6.59,9.456l1.659,1.482,10.68,6.148a40.278,40.278,0,0,1-5.356-10.9c-5.088-15.931-1.627-34.056.886-43.439,7.527-28.1,26.456-56.025,48.238-71.141,6.806-4.727,17.28-10.558,28.608-11.564a36.457,36.457,0,0,1,6.714.029l-10.874-6.283-1.936-.617a30.812,30.812,0,0,0-8.353-1.091Zm-51.739,151.2a1.068,1.068,0,0,1-.525-.145l-17.755-10.248-1.895-1.659a35.012,35.012,0,0,1-7.148-10.2c-4.8-10.318-4.984-22.317-4.3-30.566,2.339-27.9,18.105-59.278,40.184-79.948,7-6.549,21.153-17.918,37.218-20.389a35.928,35.928,0,0,1,15.037.741l2.193.721,17.979,10.348a1.215,1.215,0,0,1,.507,1.545,1.232,1.232,0,0,1-1.494.66l-2.154-.709a32.411,32.411,0,0,0-11.431-.979c-10.814.955-20.9,6.59-27.456,11.142-21.336,14.811-39.885,42.2-47.279,69.783-2.451,9.125-5.819,26.735-.916,42.067a36.022,36.022,0,0,0,6.93,12.669A34.858,34.858,0,0,0,143.382,641a1.286,1.286,0,0,1,.248,1.667A1.223,1.223,0,0,1,142.641,643.226Z" transform="translate(-110.725 -489.61)" fill="#2d2a2a" fill-rule="evenodd"/><path d="M177.425,634.959c31.5-18.186,57.043-62.42,57.043-98.794,0-36.395-25.54-51.131-57.043-32.944s-57.053,62.418-57.053,98.813S145.934,653.145,177.425,634.959Z" transform="translate(-101.412 -483.99)" fill="#e2e7e7" fill-rule="evenodd"/><path d="M178.023,635.567h0ZM203.49,497.227c-7.59,0-16.065,2.565-24.86,7.641C147.5,522.84,122.184,566.7,122.184,602.642c0,17.136,5.715,29.876,16.1,35.868s24.292,4.575,39.143-4c31.112-17.969,56.426-61.809,56.426-97.742,0-17.146-5.717-29.9-16.106-35.9a28.205,28.205,0,0,0-14.255-3.646ZM152.536,644.6a30.619,30.619,0,0,1-15.47-3.984c-11.154-6.448-17.313-19.929-17.313-37.971,0-36.7,25.87-81.512,57.672-99.863,15.625-9.023,30.381-10.444,41.534-4s17.311,19.939,17.311,37.991c0,36.7-25.858,81.493-57.641,99.845h0C169.444,641.909,160.568,644.6,152.536,644.6Z" transform="translate(-102.009 -484.597)" fill="#2d2a2a" fill-rule="evenodd"/><path d="M171.831,613.985c25.21-14.55,45.644-49.948,45.644-79.059S197.041,494,171.831,508.549s-45.664,49.97-45.664,79.093S146.621,628.549,171.831,613.985Z" transform="translate(-95.817 -477.342)" fill="#fff" fill-rule="evenodd"/><path d="M192.8,504.114c-6.036,0-12.769,2.05-19.774,6.087-24.84,14.347-45.054,49.362-45.054,78.041,0,13.626,4.53,23.748,12.759,28.5s19.269,3.614,31.09-3.2c24.831-14.335,45.035-49.329,45.035-78.01,0-13.638-4.538-23.761-12.769-28.518a22.221,22.221,0,0,0-11.287-2.895ZM152.021,622.053a24.624,24.624,0,0,1-12.492-3.223c-9.011-5.2-13.974-16.065-13.974-30.587,0-29.453,20.751-65.4,46.269-80.132,12.565-7.258,24.469-8.4,33.48-3.2s13.976,16.077,13.976,30.619c0,29.451-20.752,65.384-46.251,80.111C165.645,619.9,158.489,622.053,152.021,622.053Z" transform="translate(-96.408 -477.943)" fill="#2d2a2a" fill-rule="evenodd"/><path d="M166.225,593.613c18.929-10.927,34.262-37.5,34.262-59.349s-15.334-30.7-34.262-19.774-34.262,37.486-34.262,59.339S147.3,604.531,166.225,593.613Z" transform="translate(-90.222 -470.11)" fill="#e2e7e7" fill-rule="evenodd"/><path d="M166.817,594.215h0Zm15.3-82.6c-4.477,0-9.473,1.513-14.7,4.53-18.557,10.709-33.653,36.859-33.653,58.289,0,10.114,3.345,17.622,9.432,21.134s14.251,2.655,23.017-2.4h0c18.547-10.721,33.645-36.867,33.645-58.3,0-10.114-3.347-17.622-9.422-21.136a16.46,16.46,0,0,0-8.323-2.119Zm-30.607,88.505a18.828,18.828,0,0,1-9.524-2.451c-6.861-3.966-10.639-12.215-10.639-23.235,0-22.2,15.642-49.288,34.87-60.39,9.536-5.509,18.569-6.364,25.438-2.4s10.639,12.2,10.639,23.223c0,22.2-15.644,49.3-34.872,60.388h0C161.833,598.49,156.426,600.117,151.513,600.117Z" transform="translate(-90.814 -470.712)" fill="#2d2a2a" fill-rule="evenodd"/><path d="M160.631,521.008c12.635-7.292,22.871-1.38,22.871,13.211s-10.236,32.319-22.871,39.622-22.873,1.378-22.873-13.215S147.994,528.3,160.631,521.008Z" transform="translate(-84.628 -462.313)" fill="#fff" fill-rule="evenodd"/><path d="M161.825,522.656c-12.276,7.087-22.266,24.4-22.266,38.569,0,6.6,2.174,11.493,6.1,13.76s9.245,1.71,14.96-1.6c12.288-7.087,22.266-24.4,22.266-38.571,0-6.609-2.162-11.492-6.085-13.767s-9.249-1.7-14.974,1.606ZM151,578.771a12.89,12.89,0,0,1-6.551-1.688c-4.707-2.716-7.311-8.351-7.311-15.859,0-14.943,10.534-33.191,23.478-40.658v-.01c6.5-3.75,12.677-4.314,17.384-1.6s7.3,8.351,7.3,15.857c0,14.945-10.525,33.193-23.48,40.66A21.879,21.879,0,0,1,151,578.771Z" transform="translate(-85.224 -462.911)" fill="#2d2a2a" fill-rule="evenodd"/><path d="M155.032,552.837c-6.332,3.656-11.474.69-11.474-6.621S148.7,530,155.032,526.348s11.472-.7,11.472,6.623S161.364,549.18,155.032,552.837Z" transform="translate(-79.029 -455.656)" fill="#e2e7e7" fill-rule="evenodd"/><path d="M155.624,553.434h0Zm5.13-26.849A9.235,9.235,0,0,0,156.231,528c-5.994,3.449-10.867,11.895-10.867,18.817,0,3.088.981,5.356,2.752,6.374s4.233.741,6.91-.8v.012c5.994-3.471,10.865-11.916,10.865-18.826,0-3.09-.977-5.356-2.759-6.386a4.729,4.729,0,0,0-2.378-.6Zm-10.247,29.638a7.073,7.073,0,0,1-3.6-.935c-2.551-1.472-3.964-4.491-3.964-8.475,0-7.695,5.419-17.077,12.081-20.918,3.449-2,6.765-2.274,9.32-.8s3.966,4.491,3.966,8.477c0,7.683-5.419,17.075-12.081,20.916h0A11.6,11.6,0,0,1,150.506,556.223Z" transform="translate(-79.62 -456.254)" fill="#2d2a2a" fill-rule="evenodd"/><path d="M171.414,546.074l9.7-4.19c.43-.185.751.092,1.1.3l26.1,15a2.06,2.06,0,0,1,1.05,2.193c-.175.845-3.16,2.193-4.222,2.761l-3.068,1.647Z" transform="translate(-52.137 -439.204)" fill="#e2e7e7" fill-rule="evenodd"/><path d="M182.2,543.6Zm-7.5,3.233,27.993,16.179,3.172-1.688a15.633,15.633,0,0,0,3.007-1.792,1.16,1.16,0,0,0-.566-.69l-26.086-15.006s-.134-.083-.246-.143l-7.274,3.141ZM202.671,565.6a1.192,1.192,0,0,1-.609-.163L171.4,547.715a1.2,1.2,0,0,1,.122-2.152l9.713-4.192a2.043,2.043,0,0,1,2.04.277l26.24,15.088a3.27,3.27,0,0,1,1.627,3.512c-.238,1.071-1.484,1.863-4.192,3.233l-3.707,1.977A1.237,1.237,0,0,1,202.671,565.6Z" transform="translate(-52.734 -439.804)" fill="#2d2a2a" fill-rule="evenodd"/><path d="M171.058,544.756l1.226,10.187c.051.474.452.6.8.8l26.033,15.118a2.052,2.052,0,0,0,2.431-.185c.629-.566.309-3.522.267-4.707l-.092-3.49Z" transform="translate(-52.481 -436.373)" fill="#e2e7e7" fill-rule="evenodd"/><path d="M174.052,555.155c.1.059.228.132.238.132L200.325,570.4a.871.871,0,0,0,1.008-.02,27.165,27.165,0,0,0-.081-2.936l-.124-3.665-27.981-16.167.9,7.539Zm26.788,17.826a3.469,3.469,0,0,1-1.732-.474l-26.033-15.12a2.184,2.184,0,0,1-1.4-1.708l-1.226-10.187a1.207,1.207,0,0,1,1.812-1.185l30.67,17.714a1.235,1.235,0,0,1,.6,1.02l.143,4.253c.143,2.431.165,4.078-.711,4.872A3.13,3.13,0,0,1,200.84,572.981Z" transform="translate(-53.076 -436.965)" fill="#2d2a2a" fill-rule="evenodd"/><path d="M224.192,577.837l-74.655-43.1a1.6,1.6,0,0,1-.588-2.184l.527-.916a1.612,1.612,0,0,1,2.193-.588l74.633,43.13a1.6,1.6,0,0,1,.576,2.184l-.505.886A1.6,1.6,0,0,1,224.192,577.837Z" transform="translate(-74.029 -449.811)" fill="#c3c8c8" fill-rule="evenodd"/><path d="M151.462,532.641a.411.411,0,0,0-.342.185l-.523.918a.4.4,0,0,0,.143.535l74.643,43.1h0a.4.4,0,0,0,.535-.146l.515-.875a.444.444,0,0,0-.143-.535l-74.645-43.13a.288.288,0,0,0-.183-.051Zm74.1,47.208a2.772,2.772,0,0,1-1.388-.371l-74.655-43.1a2.825,2.825,0,0,1-1.03-3.84l.537-.916a2.818,2.818,0,0,1,3.831-1.03l74.643,43.13a2.824,2.824,0,0,1,1.02,3.84l-.505.884a2.764,2.764,0,0,1-1.712,1.309A2.97,2.97,0,0,1,225.567,579.85Z" transform="translate(-74.623 -450.404)" fill="#2d2a2a" fill-rule="evenodd"/></svg>