<svg xmlns="http://www.w3.org/2000/svg" width="109.448" height="160" viewBox="0 0 109.448 160"><path d="M1310,1326l-18.922-10.881-88.175,50.865,18.925,10.9Z" transform="translate(-1201.677 -1227.833)" fill="#e2e7e7" fill-rule="evenodd"/><path d="M1206.194,1366.878l16.472,9.5,85.714-49.49-16.464-9.5-85.721,49.486Zm16.472,12.091a1.224,1.224,0,0,1-.613-.164l-18.826-10.885a1.2,1.2,0,0,1,0-2.085l88.076-50.868a1.24,1.24,0,0,1,1.226,0l18.823,10.9a1.123,1.123,0,0,1,.609,1.027,1.146,1.146,0,0,1-.609,1.046l-88.076,50.876A1.3,1.3,0,0,1,1222.666,1378.969Z" transform="translate(-1202.512 -1228.729)" fill="#2d2a2a" fill-rule="evenodd"/><path d="M1221.83,1339.038l-18.925-10.9v9.751l18.925,10.892Z" transform="translate(-1201.677 -1189.996)" fill="#c3c8c8" fill-rule="evenodd"/><path d="M1205.047,1338.1l16.468,9.5v-6.984l-16.468-9.491v6.973Zm17.7,12.79a1.41,1.41,0,0,1-.613-.164l-18.927-10.9a1.383,1.383,0,0,1-.614-1.042l.106-9.749a1.145,1.145,0,0,1,.609-1.042,1.1,1.1,0,0,1,1.128,0l18.92,10.893a1.376,1.376,0,0,1,.617,1.042l-.1,9.749a1.283,1.283,0,0,1-.515,1.046A1.42,1.42,0,0,1,1222.745,1350.887Z" transform="translate(-1202.591 -1190.887)" fill="#2d2a2a" fill-rule="evenodd"/><path d="M1295.925,1317.9l-88.172,50.879v9.748l88.068-50.868Z" transform="translate(-1187.6 -1219.739)" fill="#fff" fill-rule="evenodd"/><path d="M1209.894,1370.367l-.1,6.965,85.819-49.479v-6.977l-85.718,49.49Zm-1.226,10.26a1.41,1.41,0,0,1-.613-.164,1.148,1.148,0,0,1-.617-1.046v-9.749a1.368,1.368,0,0,1,.617-1.042l88.169-50.876a1.137,1.137,0,0,1,1.738,1.05v9.749a1.15,1.15,0,0,1-.609,1.046l-88.076,50.868A1.42,1.42,0,0,1,1208.668,1380.627Z" transform="translate(-1188.514 -1220.627)" fill="#2d2a2a" fill-rule="evenodd"/><path d="M1310,1321.693l-18.922-10.895-88.175,50.88,18.925,10.886Z" transform="translate(-1201.677 -1240.368)" fill="#e2e7e7" fill-rule="evenodd"/><path d="M1206.194,1362.562l16.472,9.5,85.714-49.479-16.464-9.5-85.721,49.486Zm16.472,12.1a1.358,1.358,0,0,1-.613-.164l-18.826-10.893a1.2,1.2,0,0,1,0-2.089l88.076-50.86a1.26,1.26,0,0,1,1.226,0l18.823,10.885a1.2,1.2,0,0,1,0,2.089l-88.076,50.868A1.367,1.367,0,0,1,1222.666,1374.658Z" transform="translate(-1202.512 -1241.253)" fill="#2d2a2a" fill-rule="evenodd"/><path d="M1221.83,1334.717l-18.925-10.886v9.751l18.925,10.892Z" transform="translate(-1201.677 -1202.52)" fill="#c3c8c8" fill-rule="evenodd"/><path d="M1205.047,1333.789l16.468,9.5V1336.3l-16.468-9.5v6.988Zm17.7,12.775a1.3,1.3,0,0,1-.613-.152l-18.927-10.9a1.369,1.369,0,0,1-.614-1.039l.106-9.761a1.145,1.145,0,0,1,.609-1.042,1.1,1.1,0,0,1,1.128.012l18.92,10.889a1.336,1.336,0,0,1,.617,1.039l-.1,9.757a1.275,1.275,0,0,1-.515,1.042A1.3,1.3,0,0,1,1222.745,1346.564Z" transform="translate(-1202.591 -1203.415)" fill="#2d2a2a" fill-rule="evenodd"/><path d="M1295.925,1313.589l-88.172,50.872v9.757l88.068-50.868Z" transform="translate(-1187.6 -1232.263)" fill="#fff" fill-rule="evenodd"/><path d="M1209.894,1366.047l-.1,6.98,85.819-49.478v-6.977l-85.718,49.475Zm-1.226,10.26a1.3,1.3,0,0,1-.613-.152,1.15,1.15,0,0,1-.617-1.042v-9.757a1.376,1.376,0,0,1,.617-1.047l88.169-50.868a1.244,1.244,0,0,1,1.227,0,1.283,1.283,0,0,1,.511,1.042v9.761a1.142,1.142,0,0,1-.609,1.035l-88.076,50.876A1.3,1.3,0,0,1,1208.668,1376.308Z" transform="translate(-1188.514 -1233.158)" fill="#2d2a2a" fill-rule="evenodd"/><path d="M1310,1317.379l-18.922-10.892-88.175,50.868,18.925,10.9Z" transform="translate(-1201.677 -1252.889)" fill="#e2e7e7" fill-rule="evenodd"/><path d="M1206.194,1358.254l16.472,9.5,85.714-49.478-16.464-9.5-85.721,49.478Zm16.472,12.1a1.358,1.358,0,0,1-.613-.164l-18.826-10.889a1.2,1.2,0,0,1,0-2.093l88.076-50.868a1.242,1.242,0,0,1,1.226,0l18.823,10.9a1.127,1.127,0,0,1,.609,1.042,1.17,1.17,0,0,1-.609,1.042l-88.076,50.868A1.367,1.367,0,0,1,1222.666,1370.353Z" transform="translate(-1202.512 -1253.787)" fill="#2d2a2a" fill-rule="evenodd"/><path d="M1221.83,1330.411l-18.925-10.9v9.757l18.925,10.883Z" transform="translate(-1201.677 -1215.05)" fill="#c3c8c8" fill-rule="evenodd"/><path d="M1205.047,1329.47l16.468,9.5V1332l-16.468-9.5v6.977Zm17.7,12.786a1.364,1.364,0,0,1-.613-.164L1203.2,1331.21a1.4,1.4,0,0,1-.614-1.046l.106-9.757a1.154,1.154,0,0,1,.609-1.046,1.123,1.123,0,0,1,1.128,0l18.92,10.9a1.358,1.358,0,0,1,.617,1.046l-.1,9.757a1.264,1.264,0,0,1-.515,1.031A1.374,1.374,0,0,1,1222.745,1342.256Z" transform="translate(-1202.591 -1215.942)" fill="#2d2a2a" fill-rule="evenodd"/><path d="M1295.925,1309.277l-88.172,50.871v9.745l88.068-50.868Z" transform="translate(-1187.6 -1244.787)" fill="#fff" fill-rule="evenodd"/><path d="M1209.894,1361.736l-.1,6.977,85.819-49.49v-6.977l-85.718,49.49Zm-1.226,10.26a1.364,1.364,0,0,1-.613-.164,1.138,1.138,0,0,1-.617-1.042v-9.745a1.369,1.369,0,0,1,.617-1.046l88.169-50.868a1.242,1.242,0,0,1,1.227,0,1.272,1.272,0,0,1,.511,1.042v9.761a1.14,1.14,0,0,1-.609,1.031l-88.076,50.868A1.374,1.374,0,0,1,1208.668,1372Z" transform="translate(-1188.514 -1245.681)" fill="#2d2a2a" fill-rule="evenodd"/><path d="M1274.848,1312.587l-18.922-10.9-40.916,23.61,18.922,10.895Z" transform="translate(-1166.523 -1266.816)" fill="#e2e7e7" fill-rule="evenodd"/><path d="M1218.3,1326.193l16.469,9.5,38.457-22.218-16.464-9.5-38.461,22.215Zm16.469,12.1a1.363,1.363,0,0,1-.617-.164l-18.92-10.889a1.322,1.322,0,0,1,0-2.088l40.917-23.6a1.223,1.223,0,0,1,1.226,0l18.823,10.885a1.2,1.2,0,0,1,0,2.089l-40.917,23.6A.75.75,0,0,1,1234.771,1338.292Z" transform="translate(-1167.359 -1267.706)" fill="#1a87c7" fill-rule="evenodd"/><path d="M1233.932,1318.634l-18.922-10.895v9.757l18.82,10.886Z" transform="translate(-1166.523 -1249.253)" fill="#c3c8c8" fill-rule="evenodd"/><path d="M1217.151,1317.691l16.472,9.5v-6.977l-16.472-9.5v6.978Zm17.6,12.786a1.254,1.254,0,0,1-.617-.164l-18.819-10.881a1.382,1.382,0,0,1-.617-1.046l.106-9.757a1.278,1.278,0,0,1,.511-1.042,1.262,1.262,0,0,1,1.226.008l18.823,10.893a1.128,1.128,0,0,1,.613,1.038v9.757a1.142,1.142,0,0,1-.613,1.03A1.24,1.24,0,0,1,1234.748,1330.477Z" transform="translate(-1167.438 -1250.143)" fill="#2d2a2a" fill-rule="evenodd"/><path d="M1260.848,1304.483l-40.916,23.609-.1,9.749,40.914-23.613Z" transform="translate(-1152.523 -1258.711)" fill="#fff" fill-rule="evenodd"/><path d="M1221.893,1329.678v6.977l38.562-22.227v-6.965l-38.562,22.215Zm-1.226,10.26a1.254,1.254,0,0,1-.617-.164,1.272,1.272,0,0,1-.508-1.038v-9.749a1.139,1.139,0,0,1,.609-1.046l40.916-23.609a1.129,1.129,0,0,1,1.738,1.043v9.76a1.123,1.123,0,0,1-.609,1.031l-40.917,23.608A1.24,1.24,0,0,1,1220.668,1339.938Z" transform="translate(-1153.358 -1259.604)" fill="#2d2a2a" fill-rule="evenodd"/><path d="M1274.848,1308.261l-18.922-10.881-40.916,23.607,18.922,10.892Z" transform="translate(-1166.523 -1279.337)" fill="#e2e7e7" fill-rule="evenodd"/><path d="M1218.3,1321.887l16.469,9.5,38.457-22.23-16.464-9.491-38.461,22.219Zm16.469,12.087a1.27,1.27,0,0,1-.617-.164l-18.92-10.881a1.322,1.322,0,0,1,0-2.088l40.917-23.605a1.223,1.223,0,0,1,1.226,0l18.823,10.893a1.19,1.19,0,0,1,0,2.077l-40.917,23.613A.748.748,0,0,1,1234.771,1333.974Z" transform="translate(-1167.359 -1280.235)" fill="#1a87c7" fill-rule="evenodd"/><path d="M1233.932,1314.319l-18.922-10.892v9.756l18.82,10.884Z" transform="translate(-1166.523 -1261.777)" fill="#c3c8c8" fill-rule="evenodd"/><path d="M1217.151,1313.38l16.472,9.5v-6.977l-16.472-9.507v6.981Zm17.6,12.782a1.35,1.35,0,0,1-.617-.164l-18.819-10.881a1.4,1.4,0,0,1-.617-1.054l.106-9.745a1.286,1.286,0,0,1,.511-1.046,1.306,1.306,0,0,1,1.226,0l18.823,10.9a1.139,1.139,0,0,1,.613,1.042v9.745a1.139,1.139,0,0,1-.613,1.042A1.334,1.334,0,0,1,1234.748,1326.163Z" transform="translate(-1167.438 -1262.667)" fill="#2d2a2a" fill-rule="evenodd"/><path d="M1260.848,1300.167l-40.916,23.618-.1,9.749,40.914-23.607Z" transform="translate(-1152.523 -1271.243)" fill="#fff" fill-rule="evenodd"/><path d="M1221.893,1325.372v6.977l38.562-22.227v-6.977l-38.562,22.227Zm-1.226,10.256a1.35,1.35,0,0,1-.617-.164,1.263,1.263,0,0,1-.508-1.042v-9.745a1.121,1.121,0,0,1,.609-1.042l40.916-23.621a1.259,1.259,0,0,1,1.227.012,1.279,1.279,0,0,1,.511,1.042v9.749a1.136,1.136,0,0,1-.609,1.042l-40.917,23.6A1.334,1.334,0,0,1,1220.668,1335.629Z" transform="translate(-1153.358 -1272.134)" fill="#2d2a2a" fill-rule="evenodd"/><path d="M1274.848,1303.951l-18.922-10.883-40.916,23.607,18.922,10.883Z" transform="translate(-1166.523 -1291.863)" fill="#e2e7e7" fill-rule="evenodd"/><path d="M1218.3,1317.572l16.469,9.5,38.457-22.227-16.464-9.507-38.461,22.231Zm16.469,12.091a1.357,1.357,0,0,1-.617-.165l-18.92-10.885a1.318,1.318,0,0,1,0-2.084l40.917-23.609a1.242,1.242,0,0,1,1.226,0L1276.2,1303.8a1.2,1.2,0,0,1,0,2.088l-40.917,23.609A.748.748,0,0,1,1234.771,1329.663Z" transform="translate(-1167.359 -1292.759)" fill="#2d2a2a" fill-rule="evenodd"/><path d="M1233.932,1310l-18.922-10.884v9.749l18.82,10.895Z" transform="translate(-1166.523 -1274.303)" fill="#c3c8c8" fill-rule="evenodd"/><path d="M1217.151,1309.071l16.472,9.507v-6.989l-16.472-9.5v6.985Zm17.6,12.786a1.448,1.448,0,0,1-.617-.16l-18.819-10.9a1.377,1.377,0,0,1-.617-1.042l.106-9.757a1.274,1.274,0,0,1,.511-1.035,1.243,1.243,0,0,1,1.226,0l18.823,10.893a1.117,1.117,0,0,1,.613,1.031v9.761a1.153,1.153,0,0,1-.613,1.046A1.432,1.432,0,0,1,1234.748,1321.857Z" transform="translate(-1167.438 -1275.197)" fill="#2d2a2a" fill-rule="evenodd"/><path d="M1260.848,1295.855l-40.916,23.607-.1,9.76,40.914-23.609Z" transform="translate(-1152.523 -1283.767)" fill="#fff" fill-rule="evenodd"/><path d="M1221.893,1321.051v6.973l38.562-22.215v-6.977l-38.562,22.219Zm-1.226,10.268a1.448,1.448,0,0,1-.617-.16,1.3,1.3,0,0,1-.508-1.046v-9.761a1.108,1.108,0,0,1,.609-1.031l40.916-23.621a1.307,1.307,0,0,1,1.227,0,1.321,1.321,0,0,1,.511,1.046v9.757a1.144,1.144,0,0,1-.609,1.042l-40.917,23.613A1.432,1.432,0,0,1,1220.668,1331.319Z" transform="translate(-1153.358 -1284.658)" fill="#2d2a2a" fill-rule="evenodd"/><path d="M1262.028,1311.043l-18.821-10.883-40.3,23.179,18.925,10.9Z" transform="translate(-1201.677 -1271.267)" fill="#e2e7e7" fill-rule="evenodd"/><path d="M1206.194,1324.233l16.472,9.491,37.742-21.785-16.367-9.5-37.848,21.8Zm16.472,12.092a1.224,1.224,0,0,1-.613-.164l-18.826-10.881a1.2,1.2,0,0,1,0-2.089l40.2-23.179a1.063,1.063,0,0,1,1.124,0l18.924,10.881a1.39,1.39,0,0,1,.617,1.047,1.375,1.375,0,0,1-.617,1.042l-40.2,23.18A1.23,1.23,0,0,1,1222.666,1336.325Z" transform="translate(-1202.512 -1272.162)" fill="#2d2a2a" fill-rule="evenodd"/><path d="M1221.83,1316.991l-18.925-10.9v45.315l18.925,10.883Z" transform="translate(-1201.677 -1254.024)" fill="#c3c8c8" fill-rule="evenodd"/><path d="M1205.047,1351.606l16.468,9.5v-42.541l-16.468-9.491v42.529Zm17.7,12.79a1.417,1.417,0,0,1-.613-.164l-18.927-10.9a1.389,1.389,0,0,1-.614-1.031l.106-45.316a1.146,1.146,0,0,1,.609-1.042,1.1,1.1,0,0,1,1.128,0l18.92,10.893a1.363,1.363,0,0,1,.617,1.046l-.1,45.3a1.283,1.283,0,0,1-.515,1.046A1.427,1.427,0,0,1,1222.745,1364.4Z" transform="translate(-1202.591 -1254.917)" fill="#2d2a2a" fill-rule="evenodd"/><path d="M1247.95,1302.947l-40.2,23.191v45.3l40.2-23.18Z" transform="translate(-1187.6 -1263.171)" fill="#fff" fill-rule="evenodd"/><path d="M1209.894,1327.717l-.1,42.541,37.844-21.8V1305.92l-37.742,21.8Zm-1.226,45.828a1.417,1.417,0,0,1-.613-.164,1.148,1.148,0,0,1-.617-1.046v-45.3a1.374,1.374,0,0,1,.617-1.046l40.2-23.191a1.27,1.27,0,0,1,1.227,0,1.39,1.39,0,0,1,.617,1.047l-.105,45.312a1.3,1.3,0,0,1-.511,1.047l-40.2,23.179A1.427,1.427,0,0,1,1208.668,1373.546Z" transform="translate(-1188.514 -1264.066)" fill="#2d2a2a" fill-rule="evenodd"/><path d="M1240.816,1311.971v8.441a2.4,2.4,0,0,1-1.023,1.745l-29.969,17.272c-.617.324-1.023.059-1.023-.585v-15.1l.309-.48c1.121-1.515,2.655-2.354,3.678-2.046l10.022,2.894c1.026.3,2.459-.437,3.482-1.851l7.57-9.687c1.121-1.444,2.554-2.178,3.577-1.812Z" transform="translate(-1184.555 -1240.74)" fill="#c3c8c8" fill-rule="evenodd"/><path d="M1210.935,1325.029v13.8l29.157-16.815a1.018,1.018,0,0,0,.406-.706v-7.6l-2.554-.917c-.308-.105-1.331.195-2.253,1.429l-7.57,9.679c-1.328,1.843-3.167,2.706-4.7,2.272l-10.022-2.9c-.41-.113-1.433.367-2.354,1.593l-.105.164Zm-.71,16.644a1.707,1.707,0,0,1-.824-.234,1.817,1.817,0,0,1-.913-1.7v-15.1a1.58,1.58,0,0,1,.2-.707l.406-.473c1.433-1.983,3.374-2.975,4.908-2.5l10.026,2.893c.41.113,1.331-.277,2.253-1.429l7.567-9.69c1.433-1.89,3.377-2.76,4.911-2.21l3.272,1.207a1.186,1.186,0,0,1,.824,1.136v8.441a3.665,3.665,0,0,1-1.535,2.791l-29.973,17.265A2.326,2.326,0,0,1,1210.224,1341.673Z" transform="translate(-1185.467 -1241.637)" fill="#2d2a2a" fill-rule="evenodd"/><path d="M1218.526,1307.333c2.76-1.647,5.115-.308,5.115,3.006a11.681,11.681,0,0,1-5.115,8.991c-2.967,1.644-5.22.3-5.22-3.006A11.251,11.251,0,0,1,1218.526,1307.333Z" transform="translate(-1171.472 -1252.478)" fill="#e2e7e7" fill-rule="evenodd"/><path d="M1219.95,1309.283a10.41,10.41,0,0,0-4.6,7.938,2.759,2.759,0,0,0,.922,2.319,2.722,2.722,0,0,0,2.557-.355,10.3,10.3,0,0,0,4.5-7.949,2.514,2.514,0,0,0-.925-2.323,2.552,2.552,0,0,0-2.452.371Zm-2.866,12.856a3.632,3.632,0,0,1-1.941-.511c-1.433-.789-2.151-2.362-2.151-4.408a12.6,12.6,0,0,1,5.833-10.026h0a4.678,4.678,0,0,1,4.807-.367c1.433.8,2.147,2.362,2.147,4.408a12.594,12.594,0,0,1-5.829,10.034A5.578,5.578,0,0,1,1217.084,1322.14Z" transform="translate(-1172.384 -1253.374)" fill="#2d2a2a" fill-rule="evenodd"/></svg>