<svg xmlns="http://www.w3.org/2000/svg" width="157.083" height="160" viewBox="0 0 157.083 160"><g transform="translate(-958.948 -1372.191)"><path d="M1028.6,1381.958c14.9-8.37,32.98-13.8,48.908-4.812l16.141,9.324c-28.3-15.6-62.8,11.144-80.4,31.719-21.847,25.52-40.31,65.385-37.5,99.365.37,4.528,1.777,8.567,5.749,11.117-3.089-1.773-16.066-8.886-17.942-10.684-5.423-5.186-4.39-17.875-3.843-24.574C963.276,1451.169,991.976,1403.613,1028.6,1381.958Z" transform="translate(0.91 0.927)" fill="#c3c8c8" fill-rule="evenodd"/><path d="M1030.118,1383.941c-35.959,21.268-64.695,67.741-68.253,110.491-.52,6.092-1.58,18.773,3.417,23.6,1.135,1.064,7.125,4.532,11.747,7.133a19.043,19.043,0,0,1-1.576-6.6c-2.916-35.349,16.886-75.812,37.784-100.24,17.674-20.673,45.007-40.4,69.672-36.271l-5.111-2.944c-12.945-7.31-29.012-5.687-47.679,4.823Zm-47.71,146.875a1.347,1.347,0,0,1-.619-.153c-.611-.363-1.608-.931-2.841-1.624-6.944-3.9-13.832-7.827-15.338-9.25-5.867-5.647-4.76-18.6-4.185-25.559,3.665-43.49,32.842-90.755,69.463-112.386v-.02c19.483-10.955,36.373-12.579,50.106-4.811l16.169,9.331a1.184,1.184,0,0,1,.441,1.651,1.208,1.208,0,0,1-1.639.465c-26.068-14.372-58.78,7.96-78.878,31.451-20.59,24.035-40.069,63.8-37.2,98.463.418,5.021,1.994,8.169,5.174,10.2a1.212,1.212,0,0,1-.65,2.238Z" transform="translate(0 0)" fill="#2d2a2a" fill-rule="evenodd"/><path d="M1032.606,1384.309c19.109-11.018,36.412-12.05,48.92-4.815,12.531,7.239,20.275,22.746,20.275,44.81,0,2.16-.1,4.48-.248,6.711a43.135,43.135,0,0,1-6.443,18.872c-3.551,5.9-8.35,10.967-13.556,13.974l-21.682,12.5a84.744,84.744,0,0,1-10.656,16.4,63.081,63.081,0,0,1-16.642,14.518c-6,3.456-11.688,4.958-16.642,4.7a17.171,17.171,0,0,1-10.628-4.142l-21.678,12.5c-5.237,3.007-10.005,3.46-13.6,1.714s-5.954-5.71-6.4-11.479c-.134-2.065-.248-4.288-.248-6.443.039-22.064,7.783-46.512,20.318-68.194C996.2,1414.25,1013.525,1395.323,1032.606,1384.309Z" transform="translate(13.031 7.904)" fill="#e2e7e7" fill-rule="evenodd"/><path d="M1033.5,1385.238h0Zm30.86-8.248c-9.241,0-19.526,3.125-30.241,9.3h0c-18.3,10.553-35.518,28.736-48.507,51.19-12.945,22.447-20.1,46.454-20.1,67.587,0,2.01.067,4.2.233,6.353.386,5.138,2.4,8.863,5.694,10.474,3.35,1.624,7.771,1.033,12.457-1.671l21.682-12.5a1.221,1.221,0,0,1,1.415.133,15.993,15.993,0,0,0,9.891,3.854c4.863.236,10.376-1.328,15.964-4.548a61.852,61.852,0,0,0,16.342-14.234,84.831,84.831,0,0,0,10.482-16.169,1.171,1.171,0,0,1,.473-.516l21.682-12.5a39.135,39.135,0,0,0,13.154-13.544,41.336,41.336,0,0,0,6.234-18.317c.177-2.273.24-4.563.24-6.64,0-20.886-6.951-36.424-19.629-43.766a34.494,34.494,0,0,0-17.469-4.477Zm-88.812,148.227a11.629,11.629,0,0,1-5.174-1.146c-4.106-2.005-6.6-6.443-7.058-12.48-.169-2.21-.237-4.46-.237-6.526,0-21.547,7.263-45.988,20.449-68.8s30.726-41.307,49.4-52.077h0c18.841-10.88,36.649-12.595,50.1-4.812s20.866,24.082,20.866,45.862c0,2.136-.075,4.48-.249,6.794a44.54,44.54,0,0,1-6.569,19.42c-3.838,6.266-8.8,11.376-14.049,14.4l-21.335,12.315a85.517,85.517,0,0,1-10.648,16.323,64.756,64.756,0,0,1-16.965,14.786c-5.99,3.448-12.019,5.111-17.327,4.863a18.7,18.7,0,0,1-10.683-3.894l-20.961,12.09A19.343,19.343,0,0,1,975.544,1525.216Z" transform="translate(12.14 6.975)" fill="#2d2a2a" fill-rule="evenodd"/><path d="M1063.737,1382.686c-10.317-5.958-24.563-5.111-40.286,3.96-15.723,9.088-29.973,24.653-40.274,42.509-10.317,17.852-16.685,37.973-16.685,56.147,0,1.879.028,3.559.173,5.355.162,2.25,1.1,3.787,2.455,4.473,1.419.669,3.294.492,5.352-.706l24.768-14.289v.032c1.982-1.143,3.933-1.143,5.1.248a11.207,11.207,0,0,0,8.256,4.055c3.18.166,6.877-.82,10.821-3.1a40.862,40.862,0,0,0,10.821-9.372,55.937,55.937,0,0,0,8.019-13.012,13.314,13.314,0,0,1,5.34-6.739l24.8-14.293a15.755,15.755,0,0,0,5.308-5.45,16.578,16.578,0,0,0,2.495-7.341c.146-1.951.177-3.7.177-5.576C1080.411,1401.413,1074.042,1388.641,1063.737,1382.686Z" transform="translate(22.186 19.686)" fill="#fff" fill-rule="evenodd"/><path d="M1049.787,1381c-7.566,0-16.035,2.562-24.8,7.622-15.034,8.669-29.185,23.613-39.833,42.059s-16.547,38.17-16.547,55.541c0,1.845.071,3.5.174,5.265.134,1.734.784,2.972,1.817,3.468,1.064.517,2.53.288,4.169-.662l24.771-14.289a2.386,2.386,0,0,1,.236-.091c2.5-1.352,4.934-1.119,6.443.646a9.93,9.93,0,0,0,7.361,3.625c3.086.157,6.545-.867,10.139-2.952a40.031,40.031,0,0,0,10.518-9.1,54.94,54.94,0,0,0,7.842-12.721,14.474,14.474,0,0,1,5.86-7.31l24.76-14.289a14.675,14.675,0,0,0,4.9-5.028,15.42,15.42,0,0,0,2.294-6.793c.138-1.919.209-3.646.209-5.494,0-17.127-5.69-29.847-16.066-35.845h0a28.046,28.046,0,0,0-14.25-3.657Zm-77.959,116.649a5.185,5.185,0,0,1-2.293-.508c-1.848-.895-2.983-2.849-3.149-5.47-.142-1.833-.2-3.542-.2-5.45,0-17.792,5.986-37.945,16.847-56.758,10.892-18.81,25.351-34.072,40.767-42.95,15.574-8.993,30.308-10.408,41.472-3.953h0c11.137,6.439,17.26,19.912,17.26,37.941,0,1.911-.059,3.684-.205,5.659a18.185,18.185,0,0,1-2.632,7.885,17.4,17.4,0,0,1-5.754,5.868l-24.8,14.3a12.238,12.238,0,0,0-4.835,6.116,56.322,56.322,0,0,1-8.213,13.359,42.178,42.178,0,0,1-11.14,9.65,21.41,21.41,0,0,1-11.5,3.275,12.424,12.424,0,0,1-9.107-4.492c-1.032-1.25-2.849-.4-3.558.023-.075.028-.146.067-.213.091L976.012,1496.4A8.5,8.5,0,0,1,971.827,1497.653Z" transform="translate(21.268 18.764)" fill="#2d2a2a" fill-rule="evenodd"/><path d="M985.009,1415.75c4.138-1.107,8.351-6.392,9.485-11.8.993-4.883-1.746-8.788-5.478-7.787-4.114,1.1-8.358,6.384-9.493,11.783C978.432,1413.354,980.867,1416.846,985.009,1415.75Z" transform="translate(59.741 70.023)" fill="#c3c8c8" fill-rule="evenodd"/><path d="M991.072,1398.124a3.8,3.8,0,0,0-.859.114c-3.633.978-7.606,5.958-8.6,10.86-.548,2.589-.162,4.78.961,5.844a3.12,3.12,0,0,0,3.015.536c3.665-.981,7.6-5.958,8.6-10.861.473-2.356,0-4.543-1.241-5.729a2.727,2.727,0,0,0-1.88-.765Zm-5.17,18.533h0Zm-1.478,1.411a5.073,5.073,0,0,1-3.531-1.363c-1.746-1.671-2.357-4.623-1.639-8.094,1.194-5.9,5.75-11.491,10.344-12.717a5.106,5.106,0,0,1,4.993,1.226c1.892,1.757,2.613,4.812,2,7.984-1.245,5.907-5.8,11.487-10.376,12.721h0A7.088,7.088,0,0,1,984.424,1418.068Z" transform="translate(58.849 69.116)" fill="#2d2a2a" fill-rule="evenodd"/><path d="M993.09,1396.118a1.193,1.193,0,0,1-1.056-.611,1.207,1.207,0,0,1,.441-1.663l6.609-3.807a1.205,1.205,0,1,1,1.2,2.092l-6.609,3.823A1.161,1.161,0,0,1,993.09,1396.118Z" transform="translate(96.801 51.991)" fill="#2d2a2a" fill-rule="evenodd"/><path d="M989.808,1392.036a1.149,1.149,0,0,1-.611-.166,1.191,1.191,0,0,1-.453-1.651l4.7-8.106a1.208,1.208,0,1,1,2.085,1.222l-4.686,8.094A1.166,1.166,0,0,1,989.808,1392.036Z" transform="translate(87.134 27.4)" fill="#2d2a2a" fill-rule="evenodd"/><path d="M981.84,1392.475h0a1.187,1.187,0,0,1-1.2-1.206v-7.641a1.22,1.22,0,0,1,1.2-1.222h0a1.226,1.226,0,0,1,1.238,1.222v7.641A1.213,1.213,0,0,1,981.84,1392.475Z" transform="translate(63.797 30.039)" fill="#2d2a2a" fill-rule="evenodd"/><path d="M977.392,1397.175a1.346,1.346,0,0,1-.619-.169l-4.658-2.7a1.21,1.21,0,0,1-.441-1.655,1.179,1.179,0,0,1,1.639-.437l4.689,2.7a1.194,1.194,0,0,1,.453,1.651A1.27,1.27,0,0,1,977.392,1397.175Z" transform="translate(36.94 58.37)" fill="#2d2a2a" fill-rule="evenodd"/><path d="M968.913,1410.034a1.148,1.148,0,0,1-1.021-.6,1.219,1.219,0,0,1,.445-1.663l6.6-3.823a1.209,1.209,0,0,1,1.643.453,1.185,1.185,0,0,1-.445,1.651l-6.609,3.818A1.325,1.325,0,0,1,968.913,1410.034Z" transform="translate(25.821 92.937)" fill="#2d2a2a" fill-rule="evenodd"/><path d="M983.781,1431.348a1.166,1.166,0,0,1-.757-.268,1.22,1.22,0,0,1-.209-1.714l35.486-43.919a1.215,1.215,0,1,1,1.891,1.525l-35.486,43.923A1.173,1.173,0,0,1,983.781,1431.348Z" transform="translate(69.426 37.646)" fill="#2d2a2a" fill-rule="evenodd"/></g></svg>