<svg xmlns="http://www.w3.org/2000/svg" width="117.683" height="160" viewBox="0 0 117.683 160"><g transform="translate(-1201.255 -1450.773)"><path d="M1216.371,1586.155l-13.708-7.908a2.689,2.689,0,0,1-1.1-2.45V1464.278a2.805,2.805,0,0,1,1.588-2.389q2.342-1.351,4.7-2.718a.979.979,0,0,1,.908-.091l13.7,7.919a.951.951,0,0,0-.912.08q-2.5,1.454-5,2.9a2.829,2.829,0,0,0-1.282,2.217v91.31l86.648-50.021a.933.933,0,0,1,.912-.1l13.693,7.911a.951.951,0,0,0-.9.088l-92.78,53.563-7.568-4.366v13.117A2.681,2.681,0,0,0,1216.371,1586.155Z" transform="translate(0.87 23.186)" fill="#c3c8c8" fill-rule="evenodd"/><path d="M1209.262,1461.1l-4.66,2.678a1.672,1.672,0,0,0-1,1.473v111.416c.038.931.191,1.2.6,1.489l10.743,6.2v-12.9a1.192,1.192,0,0,1,.592-1.019,1.167,1.167,0,0,1,1.179,0l6.98,4.038,90.96-52.526-11.331-6.537-86.609,49.983a1.181,1.181,0,0,1-1.771-1.019v-91.311a4.057,4.057,0,0,1,1.794-3.191l3.858-2.229-11.338-6.549Zm7.98,127.1a1.13,1.13,0,0,1-.592-.16l-13.7-7.908a3.9,3.9,0,0,1-1.7-3.419V1465.146a4,4,0,0,1,2.168-3.412l4.71-2.71a2.174,2.174,0,0,1,1.908-.18l13.876,8a1.177,1.177,0,0,1-1,2.122l-4.927,2.9a1.625,1.625,0,0,0-.687,1.29l.008,89.189,84.887-49.014a2.116,2.116,0,0,1,1.9-.172l13.88,8a1.172,1.172,0,0,1-1,2.11l-92.688,53.575a1.17,1.17,0,0,1-1.172,0l-5.808-3.351v11.079c.038.939.179,1.2.6,1.488a1.165,1.165,0,0,1,.321,1.588A1.148,1.148,0,0,1,1217.242,1588.2Z" transform="translate(0 22.319)" fill="#2d2a2a" fill-rule="evenodd"/><path d="M1208.943,1580.063a2.313,2.313,0,0,1-3.79-2.191V1466.365a2.851,2.851,0,0,1,1.267-2.217c1.683-.962,3.351-1.931,5.019-2.9.714-.4,1.282-.072,1.282.748v107.126l92.78-53.563c.706-.409,1.278-.069,1.278.741v5.793a2.849,2.849,0,0,1-1.278,2.218Z" transform="translate(10.978 29.019)" fill="#e2e7e7" fill-rule="evenodd"/><path d="M1212.422,1463.424l-4.538,2.61a1.682,1.682,0,0,0-.679,1.2V1578.74a1.184,1.184,0,0,0,2.019,1.172h0l96.57-55.758a1.689,1.689,0,0,0,.69-1.2v-5.232l-92.3,53.284a1.177,1.177,0,0,1-1.763-1.023V1463.424Zm-4.309,119.2a3.055,3.055,0,0,1-1.568-.413,3.816,3.816,0,0,1-1.7-3.469V1467.233a4.017,4.017,0,0,1,1.874-3.236l5.011-2.9a1.942,1.942,0,0,1,3.045,1.763v105.1l91.021-52.556a1.941,1.941,0,0,1,3.037,1.76v5.793a4.015,4.015,0,0,1-1.87,3.237l-96.566,55.746A4.527,4.527,0,0,1,1208.113,1582.622Z" transform="translate(10.105 28.151)" fill="#2d2a2a" fill-rule="evenodd"/><path d="M1282.915,1536.027l-75.779,43.755v-81.257l75.779-43.747Z" transform="translate(16.563 11.28)" fill="#fff" fill-rule="evenodd"/><path d="M1283.779,1536.9h0Zm-74.6-36.825v78.542l73.432-42.4V1457.68l-73.432,42.392ZM1208,1581.834a1.231,1.231,0,0,1-.58-.16,1.167,1.167,0,0,1-.592-1.019V1499.4a1.181,1.181,0,0,1,.592-1.022l75.782-43.747a1.176,1.176,0,0,1,1.76,1.022V1536.9a1.164,1.164,0,0,1-.592,1.022l-75.778,43.755A1.238,1.238,0,0,1,1208,1581.834Z" transform="translate(15.698 10.41)" fill="#2d2a2a" fill-rule="evenodd"/><path d="M1255.847,1496.029a2.294,2.294,0,0,1-.61-.649l-1.45-2.584a4.9,4.9,0,0,1,.122-3.866c.817-1.962,1.87-2.912,3.267-4.519q3.12-3.554,6.221-7.1,6.641-7.62,13.308-15.216,3.549-4.07,7.1-8.117l-5.011-2.9q-4.889,5.582-9.755,11.163-5.776,6.584-11.541,13.186c-2.068,2.374-4.141,4.732-6.209,7.1a10.3,10.3,0,0,0-2.542,3.939,4.523,4.523,0,0,0,.042,3.438l1.438,2.572a2.351,2.351,0,0,0,.611.66l5.011,2.889Zm19.887,2.348-5.011-2.89a2.4,2.4,0,0,1-1.119-2.179l-.221-6.95,5.011,2.9.222,6.927a2.436,2.436,0,0,0,1.118,2.191Zm-61.52,73.4-5.011-2.893c-1.752-1.111-1.042-3.687-.359-5.217l18.834-39.034a10.941,10.941,0,0,1,4.11-4.694l19.967-11.6,8.858-23.215,5.011,2.889-8.858,23.219-19.971,11.61a10.844,10.844,0,0,0-4.107,4.679l-18.837,39.027c-.691,1.538-1.4,4.106.363,5.228Z" transform="translate(19.297 0.865)" fill="#c3c8c8" fill-rule="evenodd"/><path d="M1271.487,1489.3l.149,4.82c.122.882.122.9.641,1.271l2.012,1.16-.191-5.74-2.61-1.511Zm5.11,11.106a1.231,1.231,0,0,1-.588-.146l-5.011-2.9a3.605,3.605,0,0,1-1.7-3.042l-.229-7.056a1.2,1.2,0,0,1,.584-1.053,1.177,1.177,0,0,1,1.175,0l5.011,2.893a1.164,1.164,0,0,1,.6.98l.21,6.938c.119.848.119.89.63,1.26a1.169,1.169,0,0,1,.3,1.592,1.151,1.151,0,0,1-.977.534Zm3.308-46.961,2.931,1.7L1263.37,1477.4l-6.889,7.869a13.463,13.463,0,0,0-2.82,4.126,6.383,6.383,0,0,0-.271,4.244l-.969-.561a.961.961,0,0,1-.3-.309l-1.408-2.492a3.452,3.452,0,0,1,0-2.55,9.213,9.213,0,0,1,2.32-3.549l26.875-30.726Zm-17.818,34.256-8.365,21.93a1.2,1.2,0,0,1-.512.595l-19.971,11.6a9.73,9.73,0,0,0-3.644,4.2l-18.83,39.015c-.21.462-1.248,2.973-.069,3.713l2.111,1.214a9.331,9.331,0,0,1,.828-3.026l18.857-39.064a12.065,12.065,0,0,1,4.572-5.191l19.616-11.384,8.358-21.9-2.95-1.7Zm-47.01,86.114a1.29,1.29,0,0,1-.592-.153l-5.011-2.9c-1.889-1.19-2.191-3.687-.851-6.709l18.861-39.065a12,12,0,0,1,4.568-5.19l19.62-11.392,4.083-10.7-4.648-2.679a3.918,3.918,0,0,1-1-1.019l-1.492-2.652a5.741,5.741,0,0,1-.137-4.335,11.107,11.107,0,0,1,2.656-4.255l27.638-31.593a1.171,1.171,0,0,1,1.469-.24l5.011,2.9a1.172,1.172,0,0,1,.569.824,1.1,1.1,0,0,1-.278.954l-27.318,31.222a11.243,11.243,0,0,0-2.37,3.42,3.723,3.723,0,0,0-.141,2.92l1.061,1.866,3.61-9.457a1.164,1.164,0,0,1,1.679-.6l5.007,2.889a1.18,1.18,0,0,1,.515,1.439l-8.865,23.219a1.111,1.111,0,0,1-.5.6l-19.971,11.6a9.815,9.815,0,0,0-3.648,4.2l-18.826,39.018c-.3.66-1.221,2.977-.073,3.718a1.172,1.172,0,0,1,.382,1.6A1.189,1.189,0,0,1,1215.078,1573.819Z" transform="translate(18.434 0)" fill="#2d2a2a" fill-rule="evenodd"/><path d="M1210.151,1564.415l18.837-39.027a12.808,12.808,0,0,1,1.821-2.771,8.892,8.892,0,0,1,2.286-1.908l19.971-11.61,8.858-23.219-5.679,6.5c-1.74,1.988-3.851,2.37-4.709.862l-1.45-2.584c-.84-1.507-.118-4.366,1.622-6.358q14.2-16.229,28.394-32.462.572,17.918,1.122,35.832a7.8,7.8,0,0,1-3.389,6.171l-3.282,2.027c-1.939,1.2-3.58.381-3.637-1.809l-.222-6.938-10.369,27.008a12.878,12.878,0,0,1-1.771,2.947,9.449,9.449,0,0,1-2.538,2.229l-20.406,11.85-17.288,35.836c-1.183,2.451-3.4,4.061-4.942,3.584l-2.6-.824C1209.25,1569.273,1208.971,1566.872,1210.151,1564.415Z" transform="translate(22.998 3.003)" fill="#e2e7e7" fill-rule="evenodd"/><path d="M1212.079,1565.8a4.255,4.255,0,0,0-.461,3.286c.137.332.32.393.382.413l2.61.82c.779.24,2.477-.82,3.519-2.969l17.288-35.829a1.162,1.162,0,0,1,.47-.507l20.406-11.861a8.07,8.07,0,0,0,2.221-1.958,11.4,11.4,0,0,0,1.6-2.672l10.35-26.955a1.179,1.179,0,0,1,2.278.381l.21,6.938a1.4,1.4,0,0,0,.45,1.161,1.578,1.578,0,0,0,1.4-.313l3.282-2.027a6.7,6.7,0,0,0,2.84-5.129l-1.031-32.856-26.436,30.214c-1.489,1.709-2.008,4.06-1.473,5.019l1.454,2.568a.551.551,0,0,0,.458.321,3.31,3.31,0,0,0,2.34-1.382l5.679-6.487a1.175,1.175,0,0,1,1.985,1.19l-8.866,23.219a1.111,1.111,0,0,1-.5.6l-19.971,11.6a8.156,8.156,0,0,0-1.988,1.668,11.964,11.964,0,0,0-1.66,2.515l-18.826,39.034Zm2.76,6.9a2.873,2.873,0,0,1-.939-.141l-2.6-.816a2.991,2.991,0,0,1-1.84-1.71,6.589,6.589,0,0,1,.5-5.251h0l18.838-39.034a13.54,13.54,0,0,1,2-3.03,10.367,10.367,0,0,1,2.592-2.168l19.6-11.376,6.377-16.7-1.359,1.553a5.367,5.367,0,0,1-4.347,2.169,2.9,2.9,0,0,1-2.271-1.508l-1.439-2.573c-1.114-1.946-.34-5.335,1.748-7.716l28.4-32.466a1.155,1.155,0,0,1,1.267-.328,1.188,1.188,0,0,1,.79,1.069l1.122,35.844a8.947,8.947,0,0,1-3.95,7.2l-3.282,2.035a3.762,3.762,0,0,1-3.748.377,3.542,3.542,0,0,1-1.691-3.149l-.031-1.121-8.277,21.57a13.73,13.73,0,0,1-1.962,3.255,10.623,10.623,0,0,1-2.858,2.519l-20.1,11.67-17.128,35.5C1218.975,1571,1216.785,1572.7,1214.838,1572.7Z" transform="translate(22.13 2.133)" fill="#2d2a2a" fill-rule="evenodd"/></g></svg>