<svg xmlns="http://www.w3.org/2000/svg" width="148.408" height="160.292" viewBox="0 0 148.408 160.292"><g transform="translate(-109.905 -1070.708)"><path d="M114.636,1187.229l-3.422-2.325a5.172,5.172,0,0,1-.691-2.771l.02-55.187a12.728,12.728,0,0,1,5.776-9.991l77.747-44.847a4.107,4.107,0,0,1,4.075-.4l3.413,2.325a4.126,4.126,0,0,0-4.075.4l-77.749,44.847a12.78,12.78,0,0,0-5.774,9.991l-.02,55.188A5.1,5.1,0,0,0,114.636,1187.229Z" transform="translate(0.497 0.494)" fill="#c3c8c8" fill-rule="evenodd"/><path d="M112.562,1184.631l.765.52a1.088,1.088,0,0,0-.009-.171l.027-55.215a13.973,13.973,0,0,1,6.306-10.945l77.767-44.858a8.315,8.315,0,0,1,1.077-.51l-.482-.319c-.727-.379-1.607-.276-2.911.444l-77.738,44.838a11.577,11.577,0,0,0-5.209,9.053l-.027,55.16a4.138,4.138,0,0,0,.435,2Zm2.57,4.2a1.1,1.1,0,0,1-.633-.2l-3.4-2.323a1.008,1.008,0,0,1-.339-.352,6.29,6.29,0,0,1-.851-3.306l.02-55.216a13.789,13.789,0,0,1,6.3-10.934l77.776-44.867a5.266,5.266,0,0,1,5.152-.417l3.516,2.39a1.111,1.111,0,0,1-1.144,1.9c-.832-.435-1.73-.33-3.025.388l-77.72,44.838a11.545,11.545,0,0,0-5.216,9.055l-.029,55.159a4.1,4.1,0,0,0,.548,2.2,1.124,1.124,0,0,1-.954,1.681Z" transform="translate(0)" fill="#2d2a2a" fill-rule="evenodd"/><path d="M118.209,1118.242l77.749-44.847c3.175-1.833,5.765-.332,5.765,3.328l-.018,55.195a12.809,12.809,0,0,1-5.774,9.991l-77.751,44.849c-3.175,1.833-5.772.332-5.765-3.337l.02-55.188A12.8,12.8,0,0,1,118.209,1118.242Z" transform="translate(2.017 1.531)" fill="#e2e7e7" fill-rule="evenodd"/><path d="M118.705,1118.739h0Zm80.31-44.515a4.118,4.118,0,0,0-2,.631L119.263,1119.7h0a11.68,11.68,0,0,0-5.216,9.026l-.029,55.188a2.454,2.454,0,0,0,4.1,2.381l77.749-44.858a11.707,11.707,0,0,0,5.218-9.026l.018-55.195a3.069,3.069,0,0,0-1.135-2.761,1.858,1.858,0,0,0-.954-.234Zm-82.9,114.93a4.1,4.1,0,0,1-2.069-.539c-1.447-.843-2.249-2.513-2.249-4.7l.027-55.188a13.993,13.993,0,0,1,6.324-10.954l77.749-44.849c1.9-1.086,3.732-1.228,5.189-.4a5.123,5.123,0,0,1,2.249,4.69l-.02,55.195a13.836,13.836,0,0,1-6.333,10.956l-77.749,44.847A6.276,6.276,0,0,1,116.115,1189.154Z" transform="translate(1.521 1.035)" fill="#2d2a2a" fill-rule="evenodd"/><path d="M117,1120.173l20.482-11.814,56.577-32.635c1.456-.842,2.639-.161,2.639,1.53l-.02,53.734a5.845,5.845,0,0,1-2.639,4.574l-63.844,36.824-13.214,7.626c-1.454.833-2.637.162-2.637-1.53l.02-53.734A5.847,5.847,0,0,1,117,1120.173Z" transform="translate(3.567 3.74)" fill="#fff" fill-rule="evenodd"/><path d="M117.5,1120.664h0Zm78.231-43.694a1.34,1.34,0,0,0-.615.209l-77.058,44.45h0a4.77,4.77,0,0,0-2.089,3.609l-.018,53.734c0,.435.112.689.215.745a.925.925,0,0,0,.758-.179l77.069-44.45a4.782,4.782,0,0,0,2.069-3.611l.029-53.734c0-.422-.114-.689-.218-.747a.271.271,0,0,0-.141-.027Zm-79.432,105a2.474,2.474,0,0,1-1.248-.319,2.954,2.954,0,0,1-1.32-2.675l.018-53.734a6.976,6.976,0,0,1,3.2-5.537l77.058-44.45a2.7,2.7,0,0,1,4.3,2.493l-.022,53.734a6.976,6.976,0,0,1-3.2,5.538l-77.06,44.452A3.513,3.513,0,0,1,116.295,1181.967Z" transform="translate(3.071 3.249)" fill="#2d2a2a" fill-rule="evenodd"/><path d="M122.36,1117.813l53.448-30.86V1123.8l-53.448,30.859Z" transform="translate(10.011 13.057)" fill="#fff" fill-rule="evenodd"/><path d="M254.872,1129.391v4.217a4.555,4.555,0,0,1-2.305,2.664l-78.061,45.085a11.668,11.668,0,0,1-5.4,1.36,11.949,11.949,0,0,1-6.181-1.369L115,1153.626a4.61,4.61,0,0,1-2.307-2.675v-4.216A4.579,4.579,0,0,0,115,1149.4l47.928,27.722a11.976,11.976,0,0,0,6.181,1.382,11.677,11.677,0,0,0,5.4-1.373l78.061-45.072A4.582,4.582,0,0,0,254.872,1129.391Z" transform="translate(2.241 47.166)" fill="#e2e7e7" fill-rule="evenodd"/><path d="M114.3,1151.285a3.477,3.477,0,0,0,1.766,1.883l47.91,27.711a10.936,10.936,0,0,0,5.615,1.23,10.474,10.474,0,0,0,4.867-1.239l78.052-45.056a3.576,3.576,0,0,0,1.748-1.881v-.832c-.207.143-.417.276-.624.4l-78.079,45.094a12.938,12.938,0,0,1-5.907,1.523,12.809,12.809,0,0,1-6.768-1.523l-47.946-27.731c-.209-.132-.427-.263-.633-.415v.839Zm55.072,33.045a12.918,12.918,0,0,1-6.493-1.521l-47.946-27.733a5.7,5.7,0,0,1-2.819-3.317,1.23,1.23,0,0,1-.036-.312v-4.216a1.111,1.111,0,0,1,.954-1.105,1.136,1.136,0,0,1,1.219.793,3.463,3.463,0,0,0,1.815,2.033l47.91,27.7a10.5,10.5,0,0,0,5.615,1.23,10.335,10.335,0,0,0,4.867-1.23l78.052-45.065a3.412,3.412,0,0,0,1.786-2.013,1.143,1.143,0,0,1,1.228-.793,1.117,1.117,0,0,1,.954,1.1v4.217a1.114,1.114,0,0,1-.047.312,5.676,5.676,0,0,1-2.8,3.306l-78.079,45.087a12.712,12.712,0,0,1-5.907,1.521Z" transform="translate(1.748 46.671)" fill="#2d2a2a" fill-rule="evenodd"/><path d="M115.037,1157.467,193.1,1112.4a12.823,12.823,0,0,1,11.578,0l47.929,27.724c3.184,1.852,3.184,4.856,0,6.7L174.542,1191.9a12.839,12.839,0,0,1-11.578-.009l-47.928-27.722C111.851,1162.325,111.851,1159.309,115.037,1157.467Z" transform="translate(2.204 32.4)" fill="#c3c8c8" fill-rule="evenodd"/><path d="M115.53,1157.958h0Zm.557.963a3.1,3.1,0,0,0-1.834,2.392,3.054,3.054,0,0,0,1.834,2.381l47.928,27.722a11.775,11.775,0,0,0,10.473.011l78.061-45.076a2.468,2.468,0,0,0-.011-4.773l-47.928-27.722a11.706,11.706,0,0,0-10.462,0l-78.061,45.065Zm53.164,35.943a12.957,12.957,0,0,1-6.351-1.522l-47.928-27.72c-1.9-1.106-2.94-2.628-2.94-4.309s1.048-3.214,2.94-4.311l78.059-45.074a14.028,14.028,0,0,1,12.693,0l47.928,27.731c1.9,1.1,2.949,2.628,2.949,4.309s-1.048,3.205-2.949,4.3l-78.059,45.083A13.045,13.045,0,0,1,169.252,1194.864Z" transform="translate(1.71 31.91)" fill="#2d2a2a" fill-rule="evenodd"/><path d="M167.783,1155.217l21.351-12.335-16.352-9.449-21.35,12.333Z" transform="translate(33.378 50.415)" fill="#e2e7e7" fill-rule="evenodd"/><path d="M154.149,1146.262l14.131,8.176,19.129-11.061-14.129-8.165-19.131,11.05Zm14.131,10.566a1.06,1.06,0,0,1-.557-.15l-16.353-9.455a1.1,1.1,0,0,1,0-1.916l21.353-12.345a1.118,1.118,0,0,1,1.115,0l16.351,9.453a1.113,1.113,0,0,1,.548.961,1.128,1.128,0,0,1-.548.965l-21.349,12.336A1.094,1.094,0,0,1,168.28,1156.829Z" transform="translate(32.881 49.918)" fill="#2d2a2a" fill-rule="evenodd"/><path d="M119.956,1156.231q35.5-20.487,70.963-40.992a6.876,6.876,0,0,1,6.181.009l24.187,13.988c1.69.983,1.69,2.59-.009,3.573q-35.471,20.487-70.954,40.992a6.82,6.82,0,0,1-6.18-.011L119.956,1159.8C118.255,1158.819,118.264,1157.214,119.956,1156.231Z" transform="translate(7.056 35.205)" fill="#e2e7e7" fill-rule="evenodd"/><path d="M120.45,1156.726l.559.963c-.444.254-.72.577-.72.823s.276.566.72.832l24.185,13.988a5.806,5.806,0,0,0,5.067,0l70.963-40.99c.444-.258.718-.575.718-.824s-.274-.564-.718-.822l-24.187-14a5.807,5.807,0,0,0-5.067,0l-70.961,40.992-.559-.963Zm27.276,19.412a7.357,7.357,0,0,1-3.647-.889l-24.185-13.986a2.976,2.976,0,0,1,.009-5.493l70.952-40.992a7.943,7.943,0,0,1,7.287,0l24.2,13.99a2.981,2.981,0,0,1-.009,5.5l-70.963,40.982A7.286,7.286,0,0,1,147.726,1176.138Z" transform="translate(6.562 34.71)" fill="#2d2a2a" fill-rule="evenodd"/><path d="M136.893,1136.5l3.488-2.013a2.814,2.814,0,0,1,2.551,0l3.488,2.013a.78.78,0,0,1,0,1.474l-3.5,2.013a2.793,2.793,0,0,1-2.542,0l-3.488-2.013A.78.78,0,0,1,136.893,1136.5Z" transform="translate(21.271 51.015)" fill="#fff" fill-rule="evenodd"/><path d="M138.336,1137.732l3.1,1.787a1.751,1.751,0,0,0,1.438,0l3.09-1.787-3.09-1.787a1.737,1.737,0,0,0-1.438,0l-3.1,1.787Zm3.817,4.168a3.69,3.69,0,0,1-1.834-.455l-3.487-2.024a1.873,1.873,0,0,1,0-3.393h0l3.5-2.013a3.918,3.918,0,0,1,3.658,0l3.488,2.013a1.883,1.883,0,0,1,0,3.4l-3.5,2.013A3.68,3.68,0,0,1,142.153,1141.9Z" transform="translate(20.775 50.519)" fill="#2d2a2a" fill-rule="evenodd"/><path d="M130.845,1139.986,127.37,1142a.782.782,0,0,0-.011,1.474l3.487,2.013a2.821,2.821,0,0,0,2.554,0l3.485-2.013A.778.778,0,0,0,136.9,1142l-3.487-2.015A2.851,2.851,0,0,0,130.845,1139.986Z" transform="translate(13.614 55.437)" fill="#fff" fill-rule="evenodd"/><path d="M128.811,1143.234l3.092,1.786a1.733,1.733,0,0,0,1.436,0l3.1-1.786-3.1-1.787a1.733,1.733,0,0,0-1.436,0l-3.092,1.787Zm3.81,4.167a3.679,3.679,0,0,1-1.825-.453l-3.5-2.013a2,2,0,0,1-1.077-1.7,1.973,1.973,0,0,1,1.086-1.7l3.487-2.013h0a3.938,3.938,0,0,1,3.669,0l3.487,2.013a1.994,1.994,0,0,1,1.077,1.7,1.972,1.972,0,0,1-1.086,1.7l-3.488,2.013A3.672,3.672,0,0,1,132.621,1147.4Z" transform="translate(13.116 54.942)" fill="#2d2a2a" fill-rule="evenodd"/><path d="M135.614,1142.736l-3.488,2.015a.78.78,0,0,0,0,1.474l3.488,2.015a2.805,2.805,0,0,0,2.542,0l3.488-2.006a.778.778,0,0,0,.009-1.474l-3.487-2.024A2.84,2.84,0,0,0,135.614,1142.736Z" transform="translate(17.438 57.649)" fill="#fff" fill-rule="evenodd"/><path d="M133.574,1145.98l3.09,1.8a1.723,1.723,0,0,0,1.438,0l3.092-1.786L138.1,1144.2a1.725,1.725,0,0,0-1.438,0l-3.09,1.784Zm3.8,4.168a3.776,3.776,0,0,1-1.824-.444l-3.488-2.024a1.873,1.873,0,0,1,0-3.391l3.488-2.024h0a3.989,3.989,0,0,1,3.667,0l3.487,2.024a1.872,1.872,0,0,1,0,3.391l-3.5,2.024A3.8,3.8,0,0,1,137.375,1150.148Z" transform="translate(16.944 57.156)" fill="#2d2a2a" fill-rule="evenodd"/><path d="M133.407,1139.988l3.487-2.022a.771.771,0,0,0,0-1.465l-3.487-2.013a2.77,2.77,0,0,0-2.543-.009l-3.487,2.013a.776.776,0,0,0,0,1.474l3.476,2.022A2.82,2.82,0,0,0,133.407,1139.988Z" transform="translate(13.616 51.012)" fill="#fff" fill-rule="evenodd"/><path d="M128.818,1137.722l3.088,1.8a1.751,1.751,0,0,0,1.438,0l3.09-1.787-3.09-1.795a1.8,1.8,0,0,0-1.438,0l-3.088,1.784Zm5.085,2.76h0Zm-1.277,1.409a3.661,3.661,0,0,1-1.824-.444l-3.5-2.024a1.875,1.875,0,0,1,0-3.393l3.5-2.022a3.944,3.944,0,0,1,3.658.009l3.487,2.013a1.867,1.867,0,0,1,0,3.393l-3.487,2.024h0A3.679,3.679,0,0,1,132.626,1141.89Z" transform="translate(13.12 50.519)" fill="#2d2a2a" fill-rule="evenodd"/><path d="M138.171,1137.238l3.487-2.015a.778.778,0,0,0,.011-1.474l-3.49-2.024a2.86,2.86,0,0,0-2.549,0l-3.49,2.024c-.709.4-.709,1.059,0,1.465l3.49,2.024A2.8,2.8,0,0,0,138.171,1137.238Z" transform="translate(17.443 48.802)" fill="#fff" fill-rule="evenodd"/><path d="M133.582,1134.972l3.09,1.793a1.721,1.721,0,0,0,1.436,0l3.1-1.786-3.09-1.795a1.787,1.787,0,0,0-1.447,0l-3.09,1.788Zm5.085,2.76h0Zm-1.277,1.416a3.69,3.69,0,0,1-1.824-.453l-3.488-2.024a1.867,1.867,0,0,1,0-3.393l3.488-2.013a3.936,3.936,0,0,1,3.667,0l3.487,2.013a2,2,0,0,1,1.08,1.7,1.972,1.972,0,0,1-1.089,1.692l-3.487,2.024h0A3.731,3.731,0,0,1,137.39,1139.147Z" transform="translate(16.947 48.308)" fill="#2d2a2a" fill-rule="evenodd"/><path d="M132.132,1140.727l-3.488,2.013a2.826,2.826,0,0,1-2.552,0l-3.487-2.022a.773.773,0,0,1,0-1.465l3.5-2.024a2.805,2.805,0,0,1,2.541,0l3.488,2.024A.776.776,0,0,1,132.132,1140.727Z" transform="translate(9.786 53.222)" fill="#fff" fill-rule="evenodd"/><path d="M124.053,1140.472l3.093,1.8a1.731,1.731,0,0,0,1.434,0l3.092-1.786-3.092-1.8a1.7,1.7,0,0,0-1.427,0l-3.1,1.786Zm3.81,4.178a3.851,3.851,0,0,1-1.833-.453l-3.488-2.024a1.989,1.989,0,0,1-1.077-1.7,1.967,1.967,0,0,1,1.086-1.69l3.487-2.013a3.9,3.9,0,0,1,3.658,0l3.49,2.013a1.875,1.875,0,0,1,0,3.391l-3.49,2.024A3.846,3.846,0,0,1,127.863,1144.65Z" transform="translate(9.291 52.73)" fill="#2d2a2a" fill-rule="evenodd"/><path d="M132.131,1139.249l3.488-2.015a2.828,2.828,0,0,1,2.552,0l3.487,2.015a.78.78,0,0,1,0,1.474l-3.5,2.013a2.808,2.808,0,0,1-2.543,0l-3.488-2.013A.78.78,0,0,1,132.131,1139.249Z" transform="translate(17.442 53.226)" fill="#fff" fill-rule="evenodd"/><path d="M133.571,1140.481l3.09,1.786a1.739,1.739,0,0,0,1.438,0l3.1-1.786-3.1-1.786a1.7,1.7,0,0,0-1.427,0l-3.1,1.786Zm3.819,4.167a3.707,3.707,0,0,1-1.834-.453l-3.487-2.024a1.872,1.872,0,0,1,0-3.391h0l3.5-2.013a3.91,3.91,0,0,1,3.649,0l3.5,2.022a1.967,1.967,0,0,1,1.079,1.692,1.991,1.991,0,0,1-1.079,1.7l-3.5,2.015A3.7,3.7,0,0,1,137.39,1144.648Z" transform="translate(16.947 52.732)" fill="#2d2a2a" fill-rule="evenodd"/><path d="M146.42,1131l3.488-2.013a2.816,2.816,0,0,1,2.552,0l3.488,2.022a.774.774,0,0,1,0,1.465l-3.488,2.015a2.828,2.828,0,0,1-2.552,0l-3.488-2.015A.78.78,0,0,1,146.42,1131Z" transform="translate(28.927 46.593)" fill="#fff" fill-rule="evenodd"/><path d="M146.913,1131.491h0Zm.954.738,3.092,1.786a1.734,1.734,0,0,0,1.436,0l3.092-1.786-3.092-1.786a1.722,1.722,0,0,0-1.436,0l-3.092,1.786Zm3.811,4.169a3.68,3.68,0,0,1-1.834-.454l-3.488-2.022a1.878,1.878,0,0,1,0-3.395l3.5-2.013a3.946,3.946,0,0,1,3.667,0l3.478,2.022a1.872,1.872,0,0,1-.007,3.395l-3.488,2.013A3.683,3.683,0,0,1,151.679,1136.4Z" transform="translate(28.434 46.098)" fill="#2d2a2a" fill-rule="evenodd"/><path d="M151.188,1133.756l3.487-2.022a2.827,2.827,0,0,1,2.552,0l3.479,2.022a.777.777,0,0,1,0,1.474l-3.488,2.015a2.812,2.812,0,0,1-2.551,0l-3.488-2.024A.771.771,0,0,1,151.188,1133.756Z" transform="translate(32.752 48.805)" fill="#fff" fill-rule="evenodd"/><path d="M151.679,1134.249h0Zm.945.727,3.09,1.8a1.725,1.725,0,0,0,1.438,0l3.1-1.786-3.092-1.8a1.8,1.8,0,0,0-1.447,0l-3.09,1.786Zm3.819,4.168a3.68,3.68,0,0,1-1.845-.453l-3.476-2.015a1.872,1.872,0,0,1,0-3.391l3.487-2.024a3.989,3.989,0,0,1,3.667,0l3.478,2.024a1.865,1.865,0,0,1,0,3.391l-3.487,2.015A3.627,3.627,0,0,1,156.443,1139.144Z" transform="translate(32.261 48.311)" fill="#2d2a2a" fill-rule="evenodd"/><path d="M142.932,1134.485l3.5-2.024a.773.773,0,0,0,0-1.465l-3.487-2.013a2.82,2.82,0,0,0-2.554,0l-3.5,2a.782.782,0,0,0,0,1.475l3.5,2.024A2.809,2.809,0,0,0,142.932,1134.485Z" transform="translate(21.271 46.593)" fill="#fff" fill-rule="evenodd"/><path d="M138.345,1132.219l3.1,1.8a1.714,1.714,0,0,0,1.427,0h.009l3.09-1.786-3.09-1.8a1.806,1.806,0,0,0-1.436,0l-3.1,1.786Zm3.808,4.179a3.678,3.678,0,0,1-1.824-.454l-3.487-2.022a1.988,1.988,0,0,1-1.089-1.7,1.962,1.962,0,0,1,1.089-1.692l3.487-2.022a3.972,3.972,0,0,1,3.667.009l3.488,2.013a1.994,1.994,0,0,1,1.075,1.7,1.972,1.972,0,0,1-1.084,1.692l-3.488,2.022A3.69,3.69,0,0,1,142.153,1136.4Z" transform="translate(20.775 46.097)" fill="#2d2a2a" fill-rule="evenodd"/><path d="M147.7,1131.731l3.488-2.013a.78.78,0,0,0,0-1.474l-3.488-2.015a2.839,2.839,0,0,0-2.552,0l-3.487,2.015a.773.773,0,0,0,0,1.465l3.487,2.022A2.826,2.826,0,0,0,147.7,1131.731Z" transform="translate(25.104 44.382)" fill="#fff" fill-rule="evenodd"/><path d="M143.116,1129.468l3.092,1.8a1.729,1.729,0,0,0,1.434,0l3.093-1.786-3.093-1.8a1.716,1.716,0,0,0-1.434,0l-3.092,1.786Zm5.085,2.76h0Zm-1.275,1.418a3.7,3.7,0,0,1-1.834-.453l-3.488-2.022a1.868,1.868,0,0,1,0-3.393l3.488-2.013a3.924,3.924,0,0,1,3.667,0l3.488,2.013a1.875,1.875,0,0,1,0,3.393l-3.5,2.022h0A3.69,3.69,0,0,1,146.926,1133.645Z" transform="translate(24.604 43.886)" fill="#2d2a2a" fill-rule="evenodd"/><path d="M141.658,1133.747l3.487-2.013a2.827,2.827,0,0,1,2.552,0l3.487,2.013a.78.78,0,0,1,0,1.474l-3.487,2.015a2.826,2.826,0,0,1-2.552,0l-3.487-2.015A.779.779,0,0,1,141.658,1133.747Z" transform="translate(25.099 48.805)" fill="#fff" fill-rule="evenodd"/><path d="M142.153,1134.243h0Zm.943.736,3.1,1.8a1.766,1.766,0,0,0,1.438-.011l3.1-1.786-3.1-1.786a1.738,1.738,0,0,0-1.438,0l-3.1,1.786Zm3.819,4.168a3.7,3.7,0,0,1-1.833-.453l-3.488-2.024a1.875,1.875,0,0,1,0-3.393l3.488-2.013a3.936,3.936,0,0,1,3.667,0l3.487,2.024a1.964,1.964,0,0,1,1.079,1.69,1.992,1.992,0,0,1-1.086,1.7l-3.488,2.015A3.692,3.692,0,0,1,146.915,1139.147Z" transform="translate(24.604 48.308)" fill="#2d2a2a" fill-rule="evenodd"/><path d="M136.889,1146.432l20.671-11.947a2.817,2.817,0,0,1,2.552,0l3.487,2.022a.78.78,0,0,1,0,1.474l-20.671,11.937a2.871,2.871,0,0,1-2.551,0l-3.488-2.022A.773.773,0,0,1,136.889,1146.432Z" transform="translate(21.267 51.015)" fill="#fff" fill-rule="evenodd"/><path d="M138.34,1147.654l3.09,1.795a1.738,1.738,0,0,0,1.438,0l20.271-11.71-3.09-1.8a1.712,1.712,0,0,0-1.427,0l-20.281,11.712Zm3.8,4.167a3.769,3.769,0,0,1-1.825-.444l-3.487-2.022a1.875,1.875,0,0,1,0-3.395h.009l20.671-11.946a3.913,3.913,0,0,1,3.658.011l3.488,2.011a1.991,1.991,0,0,1,1.086,1.694,1.967,1.967,0,0,1-1.086,1.7l-20.682,11.946A3.767,3.767,0,0,1,142.139,1151.821Z" transform="translate(20.771 50.521)" fill="#2d2a2a" fill-rule="evenodd"/><path d="M162.256,1121.839l3.487-2.013a2.885,2.885,0,0,1,2.552,0l3.487,2.022a.778.778,0,0,1-.009,1.474l-3.478,2.013a2.8,2.8,0,0,1-2.552,0l-3.487-2.013A.786.786,0,0,1,162.256,1121.839Z" transform="translate(41.655 39.239)" fill="#fff" fill-rule="evenodd"/><path d="M162.751,1122.335h0Zm.945.747,3.1,1.786a1.738,1.738,0,0,0,1.438,0l3.09-1.786-3.09-1.8a1.81,1.81,0,0,0-1.438,0l-3.1,1.8Zm3.808,4.167a3.586,3.586,0,0,1-1.824-.463l-3.488-2.013a1.957,1.957,0,0,1-1.077-1.69,2,2,0,0,1,1.077-1.7l3.5-2.011a3.882,3.882,0,0,1,3.658,0l3.487,2.011a1.879,1.879,0,0,1-.007,3.4l-3.479,2A3.66,3.66,0,0,1,167.5,1127.249Z" transform="translate(41.16 38.742)" fill="#2d2a2a" fill-rule="evenodd"/><path d="M167.022,1124.6l3.487-2.011a2.809,2.809,0,0,1,2.543,0l3.487,2.022a.772.772,0,0,1,0,1.467l-3.5,2.022a2.848,2.848,0,0,1-2.543-.009l-3.487-2.013A.781.781,0,0,1,167.022,1124.6Z" transform="translate(45.48 41.451)" fill="#fff" fill-rule="evenodd"/><path d="M167.518,1125.09h0Zm.945.738,3.088,1.8a1.771,1.771,0,0,0,1.439,0l3.088-1.788-3.088-1.8a1.8,1.8,0,0,0-1.439,0l-3.088,1.793Zm3.81,4.17a3.7,3.7,0,0,1-1.834-.455l-3.488-2.013a1.878,1.878,0,0,1,.009-3.4l3.479-2.015a3.937,3.937,0,0,1,3.667.009l3.487,2.013a1.875,1.875,0,0,1,0,3.395l-3.5,2.013A3.675,3.675,0,0,1,172.273,1130Z" transform="translate(44.984 40.957)" fill="#2d2a2a" fill-rule="evenodd"/><path d="M163.53,1122.588l3.5-2.024a.78.78,0,0,0,0-1.474l-3.5-2.013a2.8,2.8,0,0,0-2.54,0l-3.488,2.013a.778.778,0,0,0-.011,1.474l3.488,2.024A2.893,2.893,0,0,0,163.53,1122.588Z" transform="translate(37.827 37.025)" fill="#fff" fill-rule="evenodd"/><path d="M158.942,1120.324l3.092,1.795a1.762,1.762,0,0,0,1.436,0h0l3.09-1.786-3.09-1.795a1.7,1.7,0,0,0-1.427,0l-3.1,1.786Zm3.81,4.168a3.693,3.693,0,0,1-1.825-.455l-3.5-2.013a1.882,1.882,0,0,1,0-3.4l3.5-2.015a3.892,3.892,0,0,1,3.658.009l3.5,2.013a1.876,1.876,0,0,1,0,3.395l-3.5,2.013A3.731,3.731,0,0,1,162.752,1124.493Z" transform="translate(37.332 36.529)" fill="#2d2a2a" fill-rule="evenodd"/><path d="M157.491,1124.6l3.488-2.011a2.824,2.824,0,0,1,2.551,0l3.488,2.011a.782.782,0,0,1,0,1.478l-3.488,2.013a2.835,2.835,0,0,1-2.551,0l-3.488-2.013A.783.783,0,0,1,157.491,1124.6Z" transform="translate(37.827 41.451)" fill="#fff" fill-rule="evenodd"/><path d="M157.986,1125.091h0Zm.956.738,3.092,1.787a1.694,1.694,0,0,0,1.436,0l3.09-1.787-3.09-1.793a1.792,1.792,0,0,0-1.436,0l-3.092,1.793Zm3.81,4.17a3.731,3.731,0,0,1-1.834-.455l-3.488-2.013a2.009,2.009,0,0,1-1.077-1.7,1.979,1.979,0,0,1,1.077-1.7l3.5-2.015a3.944,3.944,0,0,1,3.658,0l3.488,2.022a1.946,1.946,0,0,1,1.077,1.692,1.973,1.973,0,0,1-1.088,1.7l-3.478,2.013A3.71,3.71,0,0,1,162.752,1130Z" transform="translate(37.332 40.956)" fill="#2d2a2a" fill-rule="evenodd"/><path d="M162.258,1127.349l3.487-2.013a2.827,2.827,0,0,1,2.552,0l3.478,2.024a.77.77,0,0,1,0,1.465l-3.487,2.02a2.817,2.817,0,0,1-2.552,0l-3.487-2.02A.781.781,0,0,1,162.258,1127.349Z" transform="translate(41.653 43.662)" fill="#fff" fill-rule="evenodd"/><path d="M162.751,1127.843h0Zm.945.738,3.09,1.795a1.8,1.8,0,0,0,1.447,0l3.09-1.786-3.09-1.8a1.739,1.739,0,0,0-1.438,0l-3.1,1.787Zm3.808,4.167a3.782,3.782,0,0,1-1.824-.442l-3.488-2.026a1.958,1.958,0,0,1-1.077-1.7,1.978,1.978,0,0,1,1.077-1.7l3.488-2.011a3.95,3.95,0,0,1,3.667,0l3.479,2.022a1.875,1.875,0,0,1,0,3.391l-3.49,2.015A3.677,3.677,0,0,1,167.5,1132.748Z" transform="translate(41.16 43.168)" fill="#2d2a2a" fill-rule="evenodd"/><path d="M154,1128.091l3.5-2.013a.782.782,0,0,0,0-1.478l-3.5-2.02a2.8,2.8,0,0,0-2.543,0l-3.487,2.011a.779.779,0,0,0,0,1.476l3.487,2.024A2.82,2.82,0,0,0,154,1128.091Z" transform="translate(30.173 41.447)" fill="#fff" fill-rule="evenodd"/><path d="M149.416,1125.825l3.1,1.795a1.739,1.739,0,0,0,1.438,0l3.09-1.787-3.09-1.793a1.726,1.726,0,0,0-1.438,0l-3.1,1.786Zm5.085,2.76h0Zm-1.277,1.409a3.687,3.687,0,0,1-1.824-.455l-3.5-2.015a1.98,1.98,0,0,1-1.077-1.692,2,2,0,0,1,1.086-1.71l3.488-2.013a3.917,3.917,0,0,1,3.658.009l3.5,2.015a1.873,1.873,0,0,1,0,3.391l-3.5,2.015h0A3.729,3.729,0,0,1,153.224,1129.993Z" transform="translate(29.675 40.953)" fill="#2d2a2a" fill-rule="evenodd"/><path d="M158.764,1125.336l3.5-2.013a.787.787,0,0,0,0-1.483l-3.488-2.013a2.851,2.851,0,0,0-2.552,0l-3.487,2.013a.779.779,0,0,0,0,1.474l3.487,2.022A2.848,2.848,0,0,0,158.764,1125.336Z" transform="translate(34.002 39.237)" fill="#fff" fill-rule="evenodd"/><path d="M154.186,1123.07l3.092,1.8a1.717,1.717,0,0,0,1.429,0h.007l3.092-1.786-3.092-1.8a1.735,1.735,0,0,0-1.436,0l-3.092,1.786Zm3.81,4.177a3.6,3.6,0,0,1-1.833-.463l-3.488-2.013a1.868,1.868,0,0,1,0-3.393l3.488-2.011a3.908,3.908,0,0,1,3.658,0l3.5,2.011a1.994,1.994,0,0,1,1.079,1.7,1.974,1.974,0,0,1-1.079,1.69l-3.5,2.013A3.588,3.588,0,0,1,158,1127.247Z" transform="translate(33.504 38.744)" fill="#2d2a2a" fill-rule="evenodd"/><path d="M152.739,1127.349l3.487-2.013a2.8,2.8,0,0,1,2.542,0l3.5,2.013a.78.78,0,0,1-.011,1.475l-3.488,2.011a2.813,2.813,0,0,1-2.551,0l-3.488-2.011A.78.78,0,0,1,152.739,1127.349Z" transform="translate(33.999 43.662)" fill="#fff" fill-rule="evenodd"/><path d="M154.177,1128.583l3.092,1.795a1.739,1.739,0,0,0,1.438,0l3.09-1.795-3.09-1.787a1.753,1.753,0,0,0-1.429-.009l-3.1,1.8Zm3.81,4.167a3.677,3.677,0,0,1-1.833-.453l-3.487-2.015a1.88,1.88,0,0,1,0-3.4h.007l3.488-2.011a3.906,3.906,0,0,1,3.658,0l3.5,2.022a1.951,1.951,0,0,1,1.07,1.692,1.979,1.979,0,0,1-1.077,1.7l-3.488,2.015A3.708,3.708,0,0,1,157.987,1132.749Z" transform="translate(33.504 43.166)" fill="#2d2a2a" fill-rule="evenodd"/><path d="M157.491,1130.1l3.488-2.013a2.811,2.811,0,0,1,2.551,0l3.488,2.022a.772.772,0,0,1-.009,1.465l-3.479,2.022a2.832,2.832,0,0,1-2.56,0l-3.479-2.022A.78.78,0,0,1,157.491,1130.1Z" transform="translate(37.827 45.873)" fill="#fff" fill-rule="evenodd"/><path d="M158.933,1131.328l3.1,1.8a1.733,1.733,0,0,0,1.436,0l3.09-1.788-3.09-1.8a1.735,1.735,0,0,0-1.436,0l-3.1,1.786Zm3.808,4.177a3.589,3.589,0,0,1-1.824-.462l-3.488-2.013a1.875,1.875,0,0,1,0-3.393h0l3.5-2.015a3.917,3.917,0,0,1,3.658,0l3.488,2.015a1.992,1.992,0,0,1,1.077,1.7,1.959,1.959,0,0,1-1.088,1.692l-3.478,2.013A3.658,3.658,0,0,1,162.741,1135.505Z" transform="translate(37.332 45.381)" fill="#2d2a2a" fill-rule="evenodd"/><path d="M169.176,1174.988v-4.214h-.067a12,12,0,0,1-6.181-1.382L115,1141.671a4.573,4.573,0,0,1-2.307-2.664v4.216A4.6,4.6,0,0,0,115,1145.9l47.928,27.722a11.969,11.969,0,0,0,6.181,1.369Z" transform="translate(2.241 54.895)" fill="#c3c8c8" fill-rule="evenodd"/><path d="M114.3,1143.545a3.514,3.514,0,0,0,1.766,1.892l47.91,27.711a10.181,10.181,0,0,0,4.574,1.21v-2a12.519,12.519,0,0,1-5.671-1.494l-47.946-27.731c-.209-.132-.427-.263-.633-.415v.83Zm55.366,31.937h0Zm-.294,1.116a12.844,12.844,0,0,1-6.493-1.521l-47.946-27.733a5.71,5.71,0,0,1-2.808-3.317.893.893,0,0,1-.047-.312V1139.5a1.109,1.109,0,0,1,2.174-.312,3.426,3.426,0,0,0,1.815,2.024l47.91,27.711a10.625,10.625,0,0,0,5.615,1.23,1.37,1.37,0,0,1,.823.319,1.121,1.121,0,0,1,.359.8v4.214a1.111,1.111,0,0,1-1.05,1.116h-.35Z" transform="translate(1.748 54.401)" fill="#2d2a2a" fill-rule="evenodd"/><g transform="translate(-2244 -842)"><path d="M2403.909,1994.753a1.482,1.482,0,0,0,.773-.193.545.545,0,0,0,.333-.453.574.574,0,0,0-.333-.45,1.569,1.569,0,0,0-.773-.183,1.613,1.613,0,0,0-.781.183.575.575,0,0,0-.329.45.546.546,0,0,0,.329.453A1.522,1.522,0,0,0,2403.909,1994.753Z" fill="#fff" fill-rule="evenodd"/><path d="M2403.909,1993.778a1.3,1.3,0,0,0-.634.147c-.121.071-.165.148-.165.182s.044.113.165.192a1.506,1.506,0,0,0,1.26,0c.113-.068.165-.147.165-.192s-.052-.111-.165-.182a1.283,1.283,0,0,0-.626-.147Zm0,1.278a1.909,1.909,0,0,1-.938-.225.78.78,0,0,1,0-1.436,2.1,2.1,0,0,1,1.868,0,.777.777,0,0,1,0,1.436A1.87,1.87,0,0,1,2403.909,1995.056Z" fill="#1a87c7" fill-rule="evenodd"/><path d="M2404.682,1994.55a.581.581,0,0,0,.333-.435V1988.4c-.029.356-.471.539-.766.589a1.565,1.565,0,0,1-1.278-.269.445.445,0,0,1-.165-.32v5.716c0,.262.278.435.5.525A1.737,1.737,0,0,0,2404.682,1994.55Z" fill="#66ceef" fill-rule="evenodd"/><path d="M2403.11,1989.172v4.943c0,.053.113.169.3.228a1.413,1.413,0,0,0,1.129-.059c.113-.064.165-.14.165-.177v-4.935a1.625,1.625,0,0,1-.4.12,2.084,2.084,0,0,1-1.189-.12Zm1.572,5.378h0Zm-.781.5a2.167,2.167,0,0,1-.712-.123.939.939,0,0,1-.694-.8V1988.4a.3.3,0,0,1,.293-.3.279.279,0,0,1,.322.286c0,.018,0,.06.071.112a1.325,1.325,0,0,0,1.006.2c.243-.052.5-.183.513-.314a.3.3,0,0,1,.323-.286.307.307,0,0,1,.3.3v5.716a.86.86,0,0,1-.48.706h0A1.967,1.967,0,0,1,2403.9,1995.048Z" fill="#1a87c7" fill-rule="evenodd"/><path d="M2403.909,1989.025a1.6,1.6,0,0,0,.773-.183.574.574,0,0,0,.333-.451.544.544,0,0,0-.333-.453,1.491,1.491,0,0,0-.773-.192,1.531,1.531,0,0,0-.781.192.544.544,0,0,0-.329.453.575.575,0,0,0,.329.451A1.647,1.647,0,0,0,2403.909,1989.025Z" fill="#bdedf8" fill-rule="evenodd"/><path d="M2403.909,1988.058a1.413,1.413,0,0,0-.634.139c-.121.078-.165.149-.165.194s.044.11.165.181a1.515,1.515,0,0,0,1.26,0c.113-.071.165-.139.165-.181s-.052-.123-.165-.194a1.392,1.392,0,0,0-.626-.139Zm0,1.271a1.887,1.887,0,0,1-.938-.228.777.777,0,0,1,0-1.433,2.076,2.076,0,0,1,1.868,0,.775.775,0,0,1,0,1.433A1.849,1.849,0,0,1,2403.909,1989.329Z" fill="#1a87c7" fill-rule="evenodd"/><path d="M2403.909,1988.85a1.378,1.378,0,0,0,.687-.166.421.421,0,0,0,0-.8,1.527,1.527,0,0,0-1.381,0,.422.422,0,0,0,0,.8A1.391,1.391,0,0,0,2403.909,1988.85Z" fill="#bdedf8" fill-rule="evenodd"/><path d="M2403.909,1988.025a1.084,1.084,0,0,0-.536.13c-.1.053-.139.113-.139.131s.034.076.127.129a1.258,1.258,0,0,0,1.088,0c.095-.053.131-.1.131-.129s-.036-.078-.131-.131a1.148,1.148,0,0,0-.54-.13Zm0,1.136a1.764,1.764,0,0,1-.852-.207.727.727,0,0,1,0-1.338,1.939,1.939,0,0,1,1.7,0,.727.727,0,0,1,0,1.338A1.733,1.733,0,0,1,2403.909,1989.161Z" fill="#1a87c7" fill-rule="evenodd"/><path d="M2403.8,1956.655a.851.851,0,0,1,.322-.416.225.225,0,0,1,.322.042,57.628,57.628,0,0,1,8.075,12.005,10.144,10.144,0,0,1,.841,4.241c0,8.736-6.736,17.86-13.514,18.5a5.21,5.21,0,0,1-4.546-1.643,8.06,8.06,0,0,1-1.72-5.442,18.449,18.449,0,0,1,.84-5.215c.957-3.189,4.32-10.708,6.937-16.556C2402.345,1959.959,2403.223,1957.986,2403.8,1956.655Z" fill="#bdedf8" fill-rule="evenodd"/><path d="M2404.205,1956.483v0Zm-.408.172h0Zm.443-.12a.512.512,0,0,0-.155.225v.019c-.566,1.3-1.429,3.214-2.382,5.37l-.07.147c-2.668,5.955-5.971,13.351-6.92,16.514a18.144,18.144,0,0,0-.825,5.129,7.767,7.767,0,0,0,1.634,5.233,4.914,4.914,0,0,0,4.287,1.548c6.684-.636,13.237-9.641,13.237-18.193a9.664,9.664,0,0,0-.819-4.111,55.38,55.38,0,0,0-7.987-11.881Zm-5.049,34.828a5.35,5.35,0,0,1-4.13-1.782,8.333,8.333,0,0,1-1.789-5.642,18.7,18.7,0,0,1,.851-5.3c.957-3.207,4.276-10.621,6.943-16.574l.071-.165c.957-2.148,1.816-4.05,2.374-5.355a1.055,1.055,0,0,1,.45-.566.523.523,0,0,1,.739.149,56.5,56.5,0,0,1,8.093,12.029,10.471,10.471,0,0,1,.867,4.372c0,8.832-6.83,18.148-13.791,18.8A5.917,5.917,0,0,1,2399.191,1991.363Z" fill="#1a87c7" fill-rule="evenodd"/><path d="M2404.119,1989.832a.31.31,0,0,1-.3-.312V1956.1a.308.308,0,1,1,.615,0v33.421A.311.311,0,0,1,2404.119,1989.832Z" fill="#1a87c7" fill-rule="evenodd"/><path d="M2404.119,1970.059h-.026l-5.919-.469a.318.318,0,0,1-.288-.33.311.311,0,0,1,.341-.288l5.761.462,5.371-6.5a.31.31,0,0,1,.479.393l-5.476,6.623A.3.3,0,0,1,2404.119,1970.059Z" fill="#1a87c7" fill-rule="evenodd"/><path d="M2404.119,1977.778h-.018l-9.066-.593a.3.3,0,0,1-.285-.33.3.3,0,0,1,.319-.288l8.911.585,7.962-9.763a.3.3,0,0,1,.432-.041.3.3,0,0,1,.045.424l-8.057,9.89A.322.322,0,0,1,2404.119,1977.778Z" fill="#1a87c7" fill-rule="evenodd"/><path d="M2404.119,1985.381h-.018l-10.524-.571a.31.31,0,1,1,.033-.618l10.37.565,9.066-10.813a.308.308,0,0,1,.468.4l-9.159,10.927A.3.3,0,0,1,2404.119,1985.381Z" fill="#1a87c7" fill-rule="evenodd"/></g></g></svg>