<svg xmlns="http://www.w3.org/2000/svg" width="160" height="142.596" viewBox="0 0 160 142.596"><g transform="translate(-819.495 -1079.03)"><path d="M871.542,1099.531c-19.306,11.153-34.957,38.279-34.957,60.542,0,22.314,15.651,31.337,34.957,20.184s34.958-38.238,34.958-60.542S890.848,1088.377,871.542,1099.531Z" transform="translate(16.653 15.319)" fill="#fff" fill-rule="evenodd"/><path d="M872.755,1101.174c-18.942,10.946-34.358,37.649-34.358,59.508,0,10.336,3.426,17.99,9.643,21.592,6.208,3.568,14.547,2.709,23.5-2.442,18.942-10.946,34.354-37.647,34.354-59.508,0-10.324-3.422-17.979-9.641-21.59-6.208-3.56-14.555-2.713-23.5,2.441Zm-16.231,85.7a19.01,19.01,0,0,1-9.7-2.513c-7-4.014-10.851-12.415-10.851-23.683,0-22.648,15.953-50.27,35.568-61.6h0c9.734-5.639,18.952-6.488,25.936-2.442,6.993,4.012,10.853,12.425,10.853,23.681,0,22.656-15.953,50.28-35.571,61.609C867.055,1185.233,861.532,1186.877,856.523,1186.877Z" transform="translate(16.051 14.711)" fill="#1a87c7" fill-rule="evenodd"/><path d="M868.646,1126.16c-12,8.762-21.466,21.426-26.05,33.541a10.778,10.778,0,0,1-2.328-4.666c-3.931-15.86,8.867-40.368,28.378-54.645Z" transform="translate(19.55 20.813)" fill="#fff" fill-rule="evenodd"/><path d="M869.24,1126.75h0Zm-1.22-23.3c-18.1,14.174-29.651,37.037-25.987,51.861a11.691,11.691,0,0,0,.879,2.4,79.463,79.463,0,0,1,25.108-31.574v-22.688Zm-24.83,58.07a1.322,1.322,0,0,1-.92-.4,12.231,12.231,0,0,1-2.587-5.224c-4.024-16.234,8.909-41.322,28.834-55.877a1.225,1.225,0,0,1,1.271-.1,1.2,1.2,0,0,1,.673,1.066v25.77a1.188,1.188,0,0,1-.507.961c-11.371,8.35-20.95,20.672-25.637,33.026a1.207,1.207,0,0,1-.91.752A.5.5,0,0,1,843.19,1161.523Z" transform="translate(18.956 20.222)" fill="#2d2a2a" fill-rule="evenodd"/><path d="M902.662,1081.282l17.061,9.848a27.84,27.84,0,0,0-9.135-1.674c-15.011-.209-30.157,10.263-40.327,20.452-18.364,18.364-33.126,47.6-33.126,73.858,0,10.261,2.389,21.695,10.034,29.071l.734.693-17.049-9.848c-.361-.249-1.791-1.759-2.15-2.132-9.509-10.78-9.726-28.18-7.327-41.527,3.424-19.118,13.657-39.851,27.675-55.565C861.362,1090.623,883.027,1074.35,902.662,1081.282Z" transform="translate(0.586 0.585)" fill="#c3c8c8" fill-rule="evenodd"/><path d="M893.546,1081.463c-15.479,0-31.762,11.773-43.008,24.4-13.738,15.414-23.971,35.971-27.375,54.955-1.459,8.131-3.692,28.378,7.045,40.493.415.476,1.678,1.789,1.955,2l10.77,6.205c-5.2-7.862-6.425-17.669-6.425-25.159,0-24.676,13.449-54.708,33.47-74.717,6.29-6.279,22.761-20.8,40.741-20.8h.464c.632,0,1.244.031,1.832.073l-10.285-5.949a28.255,28.255,0,0,0-9.185-1.5Zm-45.057,133.885a1.421,1.421,0,0,1-.608-.168l-17.051-9.86a25.381,25.381,0,0,1-2.452-2.4c-11.43-12.942-9.124-34.048-7.615-42.52,3.487-19.428,13.937-40.43,27.965-56.187,14.05-15.756,35.847-30.2,54.925-23.505.073.031.134.061.207.093l17.049,9.86a1.194,1.194,0,0,1,.5,1.54,1.221,1.221,0,0,1-1.51.654,25.381,25.381,0,0,0-8.742-1.583h-.434c-17.071,0-32.95,14.008-39.014,20.081-19.6,19.594-32.767,48.945-32.767,73,0,8.616,1.678,20.494,9.655,28.212l.725.663a1.2,1.2,0,0,1,.144,1.6A1.144,1.144,0,0,1,848.489,1215.348Z" transform="translate(0 0)" fill="#2d2a2a" fill-rule="evenodd"/><path d="M875.9,1144.025l-17.05-9.85-.155-.1-.156-.1-.155-.1-.145-.136-.146-.133-.133-.1-.146-.135-.135-.145-.135-.135-.134-.134-.125-.146-.123-.165-.125-.135,17.05,9.848.125.137.123.165.125.145.134.134.135.135.135.145.145.133.135.1.146.134.155.1.145.135.155.1Z" transform="translate(36.58 52.1)" fill="#fff" fill-rule="evenodd"/><path d="M876.437,1145.825a.977.977,0,0,1-.537-.134l-17.051-9.848c-.042-.042-.239-.134-.28-.176a3.608,3.608,0,0,1-.33-.268,2.388,2.388,0,0,1-.342-.28c-.012,0-.31-.269-.31-.269a4.152,4.152,0,0,0-.31-.31c-.022-.031-.292-.31-.3-.342-.01,0-.269-.312-.269-.312a1.219,1.219,0,0,1,1.53-1.85l17.061,9.848a.97.97,0,0,1,.332.312l-.261.371.178.1.288-.239-.186.312.239.132.184-.205-.122.237.215.134.126-.134-.073.134.249.176.073-.1-.041.1.247.146.033-.042-.024.073.271.134h.01a1.343,1.343,0,0,1,.415,1.716A1.21,1.21,0,0,1,876.437,1145.825Z" transform="translate(35.979 51.498)" fill="#1a87c7" fill-rule="evenodd"/><path d="M850.182,1186.452l-17.049-9.848c19.211,10.573,42.891-15.311,51.707-32.713,7.447-14.721,14.37-42.892-2.255-52.959,5.171,3.031,17.586,9.135,21.312,13.388,14.433,16.334.764,49.908-13.067,66.067C881.9,1180.825,864.49,1194.318,850.182,1186.452Z" transform="translate(13.289 11.596)" fill="#c3c8c8" fill-rule="evenodd"/><path d="M851.382,1185.976c12.861,7.076,29.112-4.077,39.116-15.789,14.091-16.47,26.846-48.9,13.086-64.483-2.213-2.513-8.028-5.949-13.118-8.752,8.286,12.8,2.93,34.492-3.941,48.088-7.047,13.894-21.592,30.26-35.776,34.656a24.916,24.916,0,0,1-8.233,1.169l8.865,5.112Zm8.679,4.634a20.435,20.435,0,0,1-9.87-2.5s-.01,0-.02-.039l-17.051-9.809a1.224,1.224,0,0,1,1.2-2.133c4.7,2.577,9.982,2.989,15.716,1.242,13.532-4.187,27.509-19.977,34.315-33.436,7.532-14.887,13.7-41.973-1.8-51.346a1.231,1.231,0,0,1-.415-1.676,1.2,1.2,0,0,1,1.645-.415c1.129.651,2.6,1.439,4.243,2.34,6.052,3.289,14.33,7.789,17.39,11.256,14.65,16.6,1.572,50.548-13.066,67.68C884.115,1181.384,871.783,1190.61,860.061,1190.61Z" transform="translate(12.689 11.007)" fill="#2d2a2a" fill-rule="evenodd"/><path d="M876.139,1101.23l-17.05-9.86-.6-.3-.611-.311-.631-.279,17.05,9.85.633.279.609.311Z" transform="translate(36.784 11.157)" fill="#fff" fill-rule="evenodd"/><path d="M876.742,1103.064a1.267,1.267,0,0,1-.59-.176l-1.749-.849-17.161-9.921a1.179,1.179,0,0,1-.476-1.583,1.253,1.253,0,0,1,1.581-.58l1.925.963,17.071,9.88a1.187,1.187,0,0,1,.454,1.643A1.251,1.251,0,0,1,876.742,1103.064Z" transform="translate(36.181 10.556)" fill="#1a87c7" fill-rule="evenodd"/><path d="M903.928,1106.957c-6.32-3.643-15.065-3.125-24.727,2.462-9.651,5.566-18.4,15.135-24.725,26.091s-10.231,23.3-10.231,34.451,3.9,18.984,10.231,22.656c6.33,3.645,15.074,3.125,24.725-2.472,9.663-5.554,18.407-15.135,24.727-26.082s10.231-23.308,10.231-34.461-3.911-18.984-10.231-22.646ZM879.2,1091.511c13.935-8.071,26.557-8.826,35.693-3.538s14.782,16.573,14.782,32.67a90.15,90.15,0,0,1-5.242,28.938,7.8,7.8,0,0,1,2.894.991l37.13,21.458c6.436,3.7,6.427,15.819,0,26.938h0c-6.413,11.124-16.913,17.2-23.339,13.493L903.98,1191a7.852,7.852,0,0,1-2.306-1.988,90.236,90.236,0,0,1-22.472,19.049c-13.933,8.06-26.556,8.814-35.691,3.538s-14.784-16.585-14.784-32.682,5.649-33.9,14.784-49.733,21.758-29.649,35.691-37.677Z" transform="translate(8.995 5.43)" fill="#e2e7e7" fill-rule="evenodd"/><path d="M895.411,1106.458c-4.571,0-9.682,1.552-15,4.6-9.155,5.285-17.783,14.411-24.279,25.677s-10.079,23.268-10.079,33.831c0,10.336,3.426,18.022,9.633,21.592s14.557,2.709,23.507-2.442c9.165-5.275,17.781-14.411,24.281-25.669s10.073-23.266,10.073-33.839c0-10.324-3.422-18.022-9.629-21.59a16.9,16.9,0,0,0-8.505-2.164Zm-31.233,90.308a19.047,19.047,0,0,1-9.714-2.513c-6.993-4.014-10.841-12.415-10.841-23.683,0-10.978,3.692-23.432,10.4-35.071,6.713-11.6,15.651-21.043,25.171-26.526,9.734-5.639,18.952-6.488,25.936-2.442h0c7,4.012,10.853,12.425,10.853,23.681,0,10.987-3.694,23.444-10.4,35.083-6.715,11.6-15.653,21.031-25.172,26.526-5.71,3.3-11.234,4.946-16.231,4.946Zm38.155-110.348a24.653,24.653,0,0,1,12.549,3.228c9.147,5.244,14.174,16.5,14.174,31.606a87.62,87.62,0,0,1-5.185,28.524,1.255,1.255,0,0,0,.115,1.035,1.32,1.32,0,0,0,.859.578,6.882,6.882,0,0,1,2.474.857l37.138,21.418c2.713,1.583,4.211,5.017,4.211,9.682a32.508,32.508,0,0,1-4.654,15.643c-6,10.367-15.923,16.336-21.695,13.015l-37.142-21.458a7,7,0,0,1-1.955-1.674,1.168,1.168,0,0,0-1.874-.033,87.651,87.651,0,0,1-22.158,18.769c-13.1,7.584-25.327,8.823-34.473,3.54-9.147-5.256-14.176-16.514-14.176-31.618,0-15.333,5.2-32.806,14.62-49.142s21.953-29.559,35.247-37.213c7.761-4.49,15.221-6.756,21.924-6.756ZM857.268,1216.8a27.206,27.206,0,0,1-13.76-3.526c-9.933-5.743-15.4-17.712-15.4-33.748,0-15.746,5.309-33.665,14.94-50.343,9.653-16.719,22.482-30.24,36.139-38.133,13.862-8,26.97-9.27,36.9-3.54s15.406,17.714,15.406,33.738a89.377,89.377,0,0,1-4.883,28.048,9.463,9.463,0,0,1,1.915.818l37.14,21.456c3.5,2.028,5.43,6.208,5.43,11.732a34.753,34.753,0,0,1-4.985,16.9c-6.766,11.73-17.979,17.979-25.005,13.923l-37.14-21.446a8.916,8.916,0,0,1-1.666-1.232,90.128,90.128,0,0,1-21.892,18.29C872.269,1214.435,864.387,1216.8,857.268,1216.8Z" transform="translate(8.396 4.822)" fill="#2d2a2a" fill-rule="evenodd"/></g></svg>