<svg xmlns="http://www.w3.org/2000/svg" width="129.923" height="160" viewBox="0 0 129.923 160"><g transform="translate(-276.314 -489.281)"><path d="M284.334,647.307l-5.911-3.413a3.593,3.593,0,0,1-1.487-3.266V537.966a10.3,10.3,0,0,1,1.487-4.984,10.413,10.413,0,0,1,3.564-3.776l10.838-6.258,6.439-3.716,32.352-18.678,5.625-3.248,11.662-6.728a3.587,3.587,0,0,1,3.564-.346l5.924,3.413a3.611,3.611,0,0,0-3.575.353l-11.653,6.719-5.624,3.257L305.2,522.643l-6.448,3.727-10.839,6.256a10.415,10.415,0,0,0-3.575,3.777,10.529,10.529,0,0,0-1.474,4.984V644.039A3.605,3.605,0,0,0,284.334,647.307Z" transform="translate(0.515 0.508)" fill="#e2e7e7" fill-rule="evenodd"/><path d="M351.62,491.517a4,4,0,0,0-1.7.565l-66.86,38.61a9.225,9.225,0,0,0-3.173,3.382,9.365,9.365,0,0,0-1.32,4.446V641.136c.068,1.322.276,1.831,1,2.337l2.685,1.553c0-.145-.009-.287-.009-.43l-.011-102.7a12.322,12.322,0,0,1,5.578-9.707l66.946-38.658c.146-.077.28-.144.432-.221l-2.769-1.6a1.918,1.918,0,0,0-.806-.19ZM284.846,648.945a1.049,1.049,0,0,1-.554-.154l-5.924-3.42a4.747,4.747,0,0,1-2.05-4.19V538.474a12.327,12.327,0,0,1,5.576-9.709l66.957-38.658a4.8,4.8,0,0,1,4.61-.391l6.006,3.458a1.131,1.131,0,0,1,.433,1.494,1.119,1.119,0,0,1-1.478.5c-.8-.375-1.35-.307-2.577.333l-66.86,38.61a9.155,9.155,0,0,0-3.171,3.383,9.251,9.251,0,0,0-1.324,4.446v102.6c.059,1.332.278,1.849,1.008,2.348a1.123,1.123,0,0,1,.305,1.523A1.149,1.149,0,0,1,284.846,648.945Z" transform="translate(0.003)" fill="#2d2a2a" fill-rule="evenodd"/><path d="M352.132,606.784l-66.908,38.629c-2.78,1.611-5.049.3-5.049-2.923V539.838a11.2,11.2,0,0,1,5.049-8.76l10.839-6.256,6.448-3.727,32.343-18.669,5.624-3.257,11.653-6.719c2.789-1.608,5.06-.3,5.06,2.915V598.026A11.2,11.2,0,0,1,352.132,606.784Z" transform="translate(3.2 2.056)" fill="#e2e7e7" fill-rule="evenodd"/><path d="M352.645,607.3h0ZM354.9,493.4a3.581,3.581,0,0,0-1.684.529L286.3,532.57a10.091,10.091,0,0,0-4.5,7.782V643a2,2,0,0,0,3.365,1.946l66.908-38.629a10.118,10.118,0,0,0,4.5-7.782V495.878a2.539,2.539,0,0,0-.922-2.292,1.5,1.5,0,0,0-.757-.183Zm-71.41,154.335a3.653,3.653,0,0,1-1.878-.49A4.6,4.6,0,0,1,279.556,643V540.352a12.275,12.275,0,0,1,5.616-9.737l66.908-38.629a4.182,4.182,0,0,1,6.747,3.892V598.54a12.254,12.254,0,0,1-5.615,9.737h0L286.3,646.9A5.728,5.728,0,0,1,283.486,647.739Z" transform="translate(2.687 1.543)" fill="#2d2a2a" fill-rule="evenodd"/><path d="M285.231,533.156V630.9l60.889-35.159V498Q315.678,515.578,285.231,533.156Z" transform="translate(7.39 7.224)" fill="#fff" fill-rule="evenodd"/><path d="M286.869,534.314v95.139L345.5,595.6V500.459l-58.629,33.855Zm-1.13,98.217a1.068,1.068,0,0,1-.556-.154,1.122,1.122,0,0,1-.565-.969V533.663a1.128,1.128,0,0,1,.565-.978l60.882-35.148a1.117,1.117,0,0,1,1.121,0,1.1,1.1,0,0,1,.565.968v97.745a1.123,1.123,0,0,1-.565.977L286.3,632.378A1.076,1.076,0,0,1,285.739,632.532Z" transform="translate(6.882 6.717)" fill="#2d2a2a" fill-rule="evenodd"/><path d="M298.379,525.643V515.627q11.165-6.466,22.367-12.917v10.024q-11.2,6.458-22.367,12.91Zm25.671-11.567V497.547l-28.978,16.73v16.531l28.978-16.732Z" transform="translate(15.547 6.851)" fill="#fff" fill-rule="evenodd"/><path d="M300.012,516.792v7.418l20.113-11.624v-7.409l-20.113,11.615Zm-1.121,10.494a1.154,1.154,0,0,1-.567-.154,1.117,1.117,0,0,1-.565-.977V516.139a1.116,1.116,0,0,1,.565-.975l22.367-12.921a1.126,1.126,0,0,1,1.686.978v10.024a1.093,1.093,0,0,1-.565.969l-22.357,12.917a1.2,1.2,0,0,1-.563.154Zm25.671-12.7h0Zm-27.857.852,26.727-15.426v13.921l-26.727,15.439V515.441Zm-1.121,17.01a1.07,1.07,0,0,1-.565-.152,1.122,1.122,0,0,1-.565-.978V514.79a1.12,1.12,0,0,1,.565-.978L324,497.079a1.125,1.125,0,0,1,1.686.98v16.529a1.115,1.115,0,0,1-.563.977L296.138,532.3A1.059,1.059,0,0,1,295.584,532.451Z" transform="translate(15.035 6.338)" fill="#2d2a2a" fill-rule="evenodd"/><path d="M297.947,515.938l28.978-16.732-3.976-2.291-2.376-1.371L291.6,512.277Z" transform="translate(12.672 5.191)" fill="#fff" fill-rule="evenodd"/><path d="M294.368,512.789l4.091,2.356,26.716-15.426-4.089-2.368-26.717,15.439Zm4.091,4.792a1.163,1.163,0,0,1-.565-.154l-6.346-3.661a1.136,1.136,0,0,1-.563-.977,1.124,1.124,0,0,1,.563-.978l28.982-16.732a1.113,1.113,0,0,1,1.119,0L328,498.738a1.131,1.131,0,0,1,0,1.957l-28.981,16.732A1.154,1.154,0,0,1,298.459,517.58Z" transform="translate(12.159 4.68)" fill="#2d2a2a" fill-rule="evenodd"/><path d="M291.372,527.505h0a4.817,4.817,0,0,0-2.174,3.756h0c0,1.388.977,1.946,2.174,1.255h0a4.793,4.793,0,0,0,2.165-3.756h0C293.538,527.381,292.57,526.816,291.372,527.505Z" transform="translate(10.678 31.437)" fill="#e2e7e7" fill-rule="evenodd"/><path d="M292.45,528.994a3.727,3.727,0,0,0-1.609,2.778.77.77,0,0,0,.088.441,1.4,1.4,0,0,0,.391-.163,3.7,3.7,0,0,0,1.611-2.78.852.852,0,0,0-.088-.441,1.145,1.145,0,0,0-.393.165Zm-1.542,5.452a2.18,2.18,0,0,1-1.121-.3,2.6,2.6,0,0,1-1.207-2.376,5.957,5.957,0,0,1,2.74-4.726v-.009a2.437,2.437,0,0,1,3.862,2.233A5.955,5.955,0,0,1,292.45,534,3.1,3.1,0,0,1,290.908,534.445Z" transform="translate(10.166 30.927)" fill="#2d2a2a" fill-rule="evenodd"/><path d="M291.372,534.872h0a4.822,4.822,0,0,0-2.174,3.767h0c0,1.379.977,1.944,2.174,1.245h0a4.776,4.776,0,0,0,2.165-3.747h0C293.538,534.748,292.57,534.183,291.372,534.872Z" transform="translate(10.678 37.544)" fill="#e2e7e7" fill-rule="evenodd"/><path d="M292.45,536.36a3.733,3.733,0,0,0-1.609,2.789.755.755,0,0,0,.088.43,1.527,1.527,0,0,0,.391-.154,3.727,3.727,0,0,0,1.611-2.778.863.863,0,0,0-.088-.45,1.4,1.4,0,0,0-.393.163Zm-1.542,5.461a2.272,2.272,0,0,1-1.121-.3,2.613,2.613,0,0,1-1.207-2.376,5.987,5.987,0,0,1,2.74-4.744h0a2.437,2.437,0,0,1,3.862,2.242,5.946,5.946,0,0,1-2.732,4.724A3.111,3.111,0,0,1,290.908,541.821Z" transform="translate(10.166 37.034)" fill="#2d2a2a" fill-rule="evenodd"/><path d="M291.372,542.708h0a4.788,4.788,0,0,0-2.174,3.756h0c0,1.379.977,1.935,2.174,1.245h0a4.779,4.779,0,0,0,2.165-3.756h0C293.538,542.584,292.57,542.01,291.372,542.708Z" transform="translate(10.678 44.035)" fill="#e2e7e7" fill-rule="evenodd"/><path d="M292.45,544.188a3.748,3.748,0,0,0-1.609,2.789.759.759,0,0,0,.088.432,1.568,1.568,0,0,0,.391-.163,3.667,3.667,0,0,0,1.611-2.78.845.845,0,0,0-.088-.441,1.473,1.473,0,0,0-.393.163Zm-1.542,5.463a2.255,2.255,0,0,1-1.121-.3,2.621,2.621,0,0,1-1.207-2.376,5.957,5.957,0,0,1,2.74-4.735v-.009a2.436,2.436,0,0,1,3.862,2.233,5.877,5.877,0,0,1-2.732,4.733A3.113,3.113,0,0,1,290.908,549.651Z" transform="translate(10.166 43.522)" fill="#2d2a2a" fill-rule="evenodd"/><path d="M284.338,627.792l-5.911-3.422a3.086,3.086,0,0,1-1.046-1.121,9.321,9.321,0,0,1-.441-3.919V521.182a17.565,17.565,0,0,1,.441-5.377,11.114,11.114,0,0,1,1.055-2.366l5.922,3.422a10.407,10.407,0,0,0-1.227,3.029,16.783,16.783,0,0,0-.267,4.033v98.629a16.105,16.105,0,0,0,.143,3.259A3.039,3.039,0,0,0,284.338,627.792Z" transform="translate(0.511 20.023)" fill="#c3c8c8" fill-rule="evenodd"/><path d="M279.4,515.508a9.077,9.077,0,0,0-.422,1.13,13.582,13.582,0,0,0-.4,4.226v99.519a7,7,0,0,0,.324,2.846,1.94,1.94,0,0,0,.68.728l2.685,1.553c-.038-.624-.029-1.255-.029-1.838l.009-.615V523.9a15.492,15.492,0,0,1,.3-3.756,11.666,11.666,0,0,1,.825-2.348l-3.969-2.29Zm5.452,113.922a1.049,1.049,0,0,1-.554-.154l-5.924-3.42a4.248,4.248,0,0,1-1.474-1.58,8.376,8.376,0,0,1-.576-3.921V520.883a15.655,15.655,0,0,1,.5-4.9,11.057,11.057,0,0,1,1.167-2.624,1.128,1.128,0,0,1,1.525-.384l5.922,3.411a1.142,1.142,0,0,1,.527.7,1.129,1.129,0,0,1-.124.861,9.167,9.167,0,0,0-1.1,2.7,13.868,13.868,0,0,0-.241,3.232V623.7a10.494,10.494,0,0,0,.126,2.377,1.916,1.916,0,0,0,.872,1.293,1.128,1.128,0,0,1,.315,1.533A1.149,1.149,0,0,1,284.849,629.43Z" transform="translate(0 19.515)" fill="#2d2a2a" fill-rule="evenodd"/><path d="M291.6,507.942l2.816,1.639v13.272l3.528,2.031v-16.53l-6.344-3.661Z" transform="translate(12.672 12.774)" fill="#e2e7e7" fill-rule="evenodd"/><path d="M296.062,522.711l1.267.739V509.516l-4.093-2.365v.651l2.262,1.311a1.118,1.118,0,0,1,.563.978v12.619Zm2.4,3.815a1.07,1.07,0,0,1-.565-.152l-3.517-2.032a1.113,1.113,0,0,1-.567-.979V510.743l-2.262-1.313a1.11,1.11,0,0,1-.563-.977v-3.248a1.124,1.124,0,0,1,1.684-.978l6.344,3.659a1.118,1.118,0,0,1,.567.978V525.4a1.12,1.12,0,0,1-.567.978A1.059,1.059,0,0,1,298.459,526.526Z" transform="translate(12.159 12.263)" fill="#2d2a2a" fill-rule="evenodd"/><path d="M295.529,537.326a1.124,1.124,0,0,1-.565-2.1l35.285-20.371a1.125,1.125,0,1,1,1.132,1.944l-35.287,20.375A1.1,1.1,0,0,1,295.529,537.326Z" transform="translate(14.993 21.07)" fill="#2d2a2a" fill-rule="evenodd"/><path d="M295.529,545.155a1.126,1.126,0,0,1-.565-2.1l35.285-20.375a1.126,1.126,0,0,1,1.132,1.948L296.094,545A1.124,1.124,0,0,1,295.529,545.155Z" transform="translate(14.993 27.559)" fill="#2d2a2a" fill-rule="evenodd"/><path d="M295.529,549.872a1.125,1.125,0,0,1-.565-2.1l25.156-14.519a1.124,1.124,0,0,1,1.121,1.948l-25.146,14.519A1.124,1.124,0,0,1,295.529,549.872Z" transform="translate(14.993 36.317)" fill="#2d2a2a" fill-rule="evenodd"/><path d="M307.182,502.4v5.606l3.526,2.387V500.37Z" transform="translate(25.584 9.191)" fill="#fff" fill-rule="evenodd"/><path d="M308.821,507.926l1.264.854v-5.944l-1.264.73v4.36Zm2.4,4.1a1.149,1.149,0,0,1-.635-.194l-3.515-2.376a1.126,1.126,0,0,1-.5-.94v-5.605a1.132,1.132,0,0,1,.565-.977l3.517-2.034a1.126,1.126,0,0,1,1.686.978V510.9a1.121,1.121,0,0,1-.594.989A1.048,1.048,0,0,1,311.217,512.028Z" transform="translate(25.075 8.679)" fill="#2d2a2a" fill-rule="evenodd"/><path d="M296.88,515.433l18.841-10.887,3.526,2.387L296.88,519.842Z" transform="translate(17.045 12.652)" fill="#fff" fill-rule="evenodd"/><path d="M298.514,516.593V518.4l19.117-11.039-1.437-.978-17.679,10.207Zm-1.121,4.887a1.154,1.154,0,0,1-.567-.154,1.117,1.117,0,0,1-.565-.977V515.94a1.122,1.122,0,0,1,.565-.978l18.85-10.876a1.121,1.121,0,0,1,1.189.038l3.526,2.378a1.116,1.116,0,0,1,.488.977,1.093,1.093,0,0,1-.565.931l-22.367,12.917A1.139,1.139,0,0,1,297.393,521.48Z" transform="translate(16.532 12.144)" fill="#2d2a2a" fill-rule="evenodd"/><path d="M323.28,595.611l-8.826-5.1c10.351,5.827,23.239-3.928,29.823-11.461,9.2-10.492,17.306-28.415,13.817-42.367-1.024-4.1-3.1-7.732-6.831-9.927l9.276,5.366c9.305,5.914,7.848,20.873,4.954,30.051-4.274,13.608-15.832,30.073-29.889,34.309C331.455,597.74,327.152,597.8,323.28,595.611Z" transform="translate(31.611 31.063)" fill="#c3c8c8" fill-rule="evenodd"/><path d="M324.355,595.157c3.241,1.81,7.083,2.068,11.443.757,13.475-4.064,24.848-19.962,29.131-33.57,3.135-9.956,3.844-23.469-4.484-28.758l-2.588-1.5a20.348,20.348,0,0,1,1.84,4.832c3.652,14.612-4.726,32.725-14.058,43.391-6.019,6.869-14.92,13.414-23.409,13.617l2.125,1.227Zm6.24,3.842a14.788,14.788,0,0,1-7.352-1.887.026.026,0,0,1-.018-.011L314.4,592a1.125,1.125,0,0,1,1.112-1.955c9.841,5.549,22.5-4.457,28.431-11.222,9.239-10.562,16.876-28.157,13.572-41.361-1.066-4.274-3.193-7.377-6.317-9.228a1.127,1.127,0,0,1,1.141-1.944l9.278,5.366c9.437,6,8.844,20.642,5.47,31.365-4.466,14.173-16.416,30.761-30.637,35.044A20.027,20.027,0,0,1,330.595,599Z" transform="translate(31.101 30.551)" fill="#1a87c7" fill-rule="evenodd"/><path d="M339.474,531.461c-14.192,8.2-25.7,28.127-25.7,44.523s11.509,23.029,25.7,14.834,25.7-28.126,25.7-44.512S353.667,523.268,339.474,531.461Z" transform="translate(31.047 32.051)" fill="#fff" fill-rule="evenodd"/><path d="M351.461,529.589a22.187,22.187,0,0,0-10.913,3.365c-13.868,8-25.137,27.531-25.137,43.544,0,7.5,2.473,13.062,6.957,15.658s10.561,1.955,17.057-1.792c13.857-8.012,25.137-27.54,25.137-43.545,0-7.513-2.48-13.071-6.968-15.658a12.027,12.027,0,0,0-6.134-1.573ZM328.5,595.981a14.243,14.243,0,0,1-7.253-1.869c-5.214-3.019-8.089-9.278-8.089-17.614,0-16.732,11.778-37.133,26.266-45.492,7.218-4.175,14.069-4.817,19.291-1.8s8.1,9.267,8.1,17.613c0,16.721-11.787,37.125-26.266,45.49A24.531,24.531,0,0,1,328.5,595.981Z" transform="translate(30.539 31.537)" fill="#2d2a2a" fill-rule="evenodd"/><path d="M338.914,526.087c6.478-3.652,14.91-6.308,21.946-2.531l8.833,5.1c-12.994-6.469-28.4,5.538-36.423,14.91C322.528,556.12,313.3,576.654,316.6,593.309c1.064,5.415,3.451,10.13,8.136,13.235-2.109-1.207-8.252-4.592-9.863-5.807-10.128-7.657-8.471-24.676-5.26-35.3C314.256,550.052,324.94,534.355,338.914,526.087Z" transform="translate(25.551 26.887)" fill="#c3c8c8" fill-rule="evenodd"/><path d="M340.006,527.579c-12.84,7.608-23.87,22.434-28.786,38.694-3.462,11.425-4.256,27.2,4.856,34.078.539.411,1.67,1.1,2.983,1.869a24.764,24.764,0,0,1-3.049-8.186c-3.4-17.248,6.394-38.369,16.933-50.693,7.551-8.824,19.042-17.46,29.947-17.094l-2.061-1.2c-6.909-3.709-15.132-.673-20.823,2.529Zm-14.748,80.611a1.116,1.116,0,0,1-.567-.154l-1.953-1.112c-2.836-1.6-6.717-3.784-8.023-4.779-10.022-7.571-9.5-23.824-5.653-36.524,5.07-16.789,16.492-32.11,29.8-39.989a.032.032,0,0,0,.018-.009c6.181-3.488,15.2-6.747,23.038-2.54l8.864,5.119a1.126,1.126,0,0,1-1.064,1.983c-11.672-5.816-26.18,4.245-35.064,14.623-10.2,11.922-19.693,32.275-16.434,48.8,1.139,5.757,3.641,9.859,7.657,12.515a1.133,1.133,0,0,1-.624,2.068Z" transform="translate(25.024 26.371)" fill="#2d2a2a" fill-rule="evenodd"/><path d="M323.043,566.571l-8.835-5.1,9.275,5.366Z" transform="translate(31.408 59.835)" fill="#66ceef" fill-rule="evenodd"/><path d="M323.992,568.481a1.11,1.11,0,0,1-.565-.154l-9.278-5.366A1.13,1.13,0,0,1,315.281,561l8.826,5.1c.018.007.018.018.018.018l.461.267a1.126,1.126,0,0,1-.594,2.09Z" transform="translate(30.899 59.324)" fill="#1a87c7" fill-rule="evenodd"/><path d="M362.169,533.711a13.887,13.887,0,0,0-8.451-1.648,25.291,25.291,0,0,0-9.958,3.467,45.16,45.16,0,0,0-9.956,8.023,61.981,61.981,0,0,0-8.453,11.412,61.2,61.2,0,0,0-5.644,13.023,44.527,44.527,0,0,0-1.975,12.632,25.062,25.062,0,0,0,1.975,10.36,13.262,13.262,0,0,0,14.1,8.144,25.113,25.113,0,0,0,9.956-3.479,44.6,44.6,0,0,0,9.958-8.021,61.344,61.344,0,0,0,8.451-11.4,60.491,60.491,0,0,0,5.653-13.025,44.838,44.838,0,0,0,1.966-12.628,25.2,25.2,0,0,0-1.966-10.36,13.872,13.872,0,0,0-5.653-6.5Zm-40.9,18.9c5.759-9.965,13.713-18.676,22.491-23.746s16.741-5.549,22.493-2.224,9.314,10.446,9.314,20.594-3.557,21.372-9.314,31.346-13.705,18.667-22.493,23.738-16.732,5.547-22.491,2.231-9.314-10.444-9.314-20.593,3.553-21.381,9.314-31.348Z" transform="translate(29.54 29.208)" fill="#e2e7e7" fill-rule="evenodd"/><path d="M355.907,533.624a14.193,14.193,0,0,0-1.564.077,24.036,24.036,0,0,0-9.506,3.325,43.86,43.86,0,0,0-9.707,7.82,60.187,60.187,0,0,0-8.288,11.2,59.555,59.555,0,0,0-5.549,12.774,43.552,43.552,0,0,0-1.918,12.313,23.914,23.914,0,0,0,1.871,9.9A12.111,12.111,0,0,0,334.2,598.52a24.07,24.07,0,0,0,9.515-3.325,43.655,43.655,0,0,0,9.7-7.829A61.287,61.287,0,0,0,367.253,563.4a43.542,43.542,0,0,0,1.926-12.314,24.081,24.081,0,0,0-1.869-9.9,12.718,12.718,0,0,0-5.2-5.978h0a12.213,12.213,0,0,0-6.207-1.582Zm-23.27,67.224a14.519,14.519,0,0,1-7.339-1.887,14.9,14.9,0,0,1-6.1-7,26.128,26.128,0,0,1-2.079-10.829,45.673,45.673,0,0,1,2.021-12.955,61.528,61.528,0,0,1,5.761-13.264,62.736,62.736,0,0,1,8.606-11.624,45.937,45.937,0,0,1,10.214-8.213,26.249,26.249,0,0,1,10.4-3.621,14.9,14.9,0,0,1,9.124,1.792h0a14.89,14.89,0,0,1,6.123,7.006,26.2,26.2,0,0,1,2.07,10.828,45.479,45.479,0,0,1-2.023,12.956,63.5,63.5,0,0,1-14.364,24.878,45.736,45.736,0,0,1-10.207,8.221,26.339,26.339,0,0,1-10.406,3.623c-.615.058-1.209.086-1.794.086Zm25.838-74.7a15.272,15.272,0,0,1,7.721,1.975c5.646,3.257,8.76,10.225,8.76,19.625,0,9.612-3.257,20.547-9.17,30.779s-13.751,18.524-22.07,23.336c-8.136,4.7-15.724,5.481-21.37,2.222s-8.749-10.223-8.749-19.614c0-9.614,3.248-20.547,9.162-30.79s13.751-18.515,22.078-23.325c4.839-2.789,9.479-4.208,13.638-4.208ZM330.07,608.313a17.4,17.4,0,0,1-8.842-2.271c-6.384-3.68-9.89-11.337-9.89-21.569,0-10.006,3.37-21.343,9.475-31.913s14.241-19.155,22.9-24.159c8.846-5.106,17.239-5.9,23.612-2.222s9.881,11.337,9.881,21.571c0,10-3.365,21.331-9.468,31.911s-14.241,19.146-22.9,24.15C339.645,606.81,334.624,608.313,330.07,608.313Z" transform="translate(29.028 28.691)" fill="#2d2a2a" fill-rule="evenodd"/><path d="M339.24,548.622l-2.3,4.878-16.387-4.676,2.3-4.878Z" transform="translate(36.666 45.308)" fill="#e2e7e7" fill-rule="evenodd"/><path d="M322.656,548.618l14.181,4.044,1.333-2.806L323.978,545.8l-1.322,2.818Zm14.793,6.518a1.215,1.215,0,0,1-.315-.04l-16.377-4.676a1.119,1.119,0,0,1-.71-1.562l2.3-4.879a1.1,1.1,0,0,1,1.331-.6l16.377,4.669a1.106,1.106,0,0,1,.719.622,1.126,1.126,0,0,1-.009.949l-2.3,4.876A1.116,1.116,0,0,1,337.449,555.136Z" transform="translate(36.157 44.795)" fill="#2d2a2a" fill-rule="evenodd"/><path d="M327.95,567.453a1.21,1.21,0,0,1-.567-.144,1.142,1.142,0,0,1-.411-1.544l19-32.917a1.122,1.122,0,1,1,1.944,1.119l-19,32.919A1.109,1.109,0,0,1,327.95,567.453Z" transform="translate(41.863 35.64)" fill="#2d2a2a" fill-rule="evenodd"/></g></svg>