<svg xmlns="http://www.w3.org/2000/svg" width="135.106" height="160" viewBox="0 0 135.106 160"><g transform="translate(-1040.719 -1371.807)"><path d="M1088.186,1437.9c0,22.913-46.389,23.09-46.389.163v-40.1a9.616,9.616,0,0,0,.3,1.288,10.212,10.212,0,0,0,1.756,3.086c2.452,3.083,6.583,5.128,10.311,6.266,8.137,2.463,18.828,2.034,26.463-1.937a17.207,17.207,0,0,0,5.987-4.924,10.014,10.014,0,0,0,1.439-3.129l.132-.65Z" transform="translate(3.091 75.003)" fill="#c3c8c8" fill-rule="evenodd"/><path d="M1043.87,1404.053v34.887c0,10.934,11.367,15.919,21.884,15.919,10.663,0,22.154-5.036,22.154-16.082v-34.724a18.945,18.945,0,0,1-5.848,4.549c-7.457,3.9-18.491,4.711-27.364,2.015-2.723-.831-7.728-2.773-10.826-6.563Zm21.884,53.189a30.517,30.517,0,0,1-16.538-4.467c-5.044-3.338-7.731-8.119-7.731-13.835v-40.1a1.192,1.192,0,0,1,1.079-1.184,1.167,1.167,0,0,1,1.277.94,8.7,8.7,0,0,0,.3,1.145,9.269,9.269,0,0,0,1.512,2.735c2.692,3.338,7.263,5.1,9.747,5.859,8.343,2.53,18.592,1.783,25.557-1.845a15.747,15.747,0,0,0,5.573-4.56,9.5,9.5,0,0,0,1.277-2.735l.139-.587a1.167,1.167,0,0,1,1.277-.944,1.192,1.192,0,0,1,1.075,1.176v39.934C1090.3,1451.468,1077.589,1457.242,1065.754,1457.242Z" transform="translate(2.194 74.121)" fill="#2d2a2a" fill-rule="evenodd"/><path d="M1048.719,1395.957c10.241-5.91,26.861-5.91,37.106,0s10.253,15.514,0,21.431-26.865,5.921-37.106,0C1038.462,1411.47,1038.462,1401.874,1048.719,1395.957Z" transform="translate(0.881 56.54)" fill="#e2e7e7" fill-rule="evenodd"/><path d="M1049.6,1396.823h0Zm18.553-3.253c-6.486,0-13.011,1.427-17.95,4.286h0c-4.579,2.646-7.089,6.08-7.089,9.688s2.51,7.043,7.089,9.677c9.913,5.724,26.014,5.724,35.935,0,4.567-2.634,7.054-6.08,7.054-9.677s-2.514-7.043-7.1-9.688c-4.931-2.858-11.417-4.286-17.942-4.286Zm0,30.288c-6.923,0-13.881-1.52-19.164-4.568-5.342-3.086-8.27-7.259-8.27-11.746,0-4.5,2.959-8.667,8.3-11.754,10.563-6.091,27.735-6.091,38.3,0,5.334,3.087,8.266,7.264,8.266,11.754s-2.932,8.66-8.266,11.746C1082.037,1422.338,1075.083,1423.858,1068.153,1423.858Z" transform="translate(0 55.673)" fill="#2d2a2a" fill-rule="evenodd"/><path d="M1093.305,1395.819v8.644l-.143.716a11.058,11.058,0,0,1-2.147,4.212c-2.785,3.462-7.426,5.759-11.63,7.039-9.143,2.789-21.21,2.3-29.785-2.166a18.918,18.918,0,0,1-6.718-5.558,10.709,10.709,0,0,1-1.651-3.527l-.174-.716v-8.644a10.258,10.258,0,0,0,.375,1.427,12.169,12.169,0,0,0,2.518,4.166c3.059,3.353,7.87,5.531,12.175,6.7,8.938,2.39,20.367,1.8,28.636-2.5a18.353,18.353,0,0,0,7.194-6.23,10.694,10.694,0,0,0,1.207-2.839Z" transform="translate(0.969 68.857)" fill="#c3c8c8" fill-rule="evenodd"/><path d="M1043.147,1402.134l.1,3.7a9.188,9.188,0,0,0,1.478,3.09,17.952,17.952,0,0,0,6.316,5.175c7.875,4.107,19.466,4.939,28.88,2.081,2.827-.851,7.963-2.858,11.023-6.641a9.8,9.8,0,0,0,1.914-3.756l.174-.669-.031-3a20.577,20.577,0,0,1-6.8,5.446c-8.068,4.212-19.659,5.233-29.507,2.6-3.133-.839-8.946-2.877-12.748-7.062a7.368,7.368,0,0,1-.8-.959Zm24.977,18.093a40.138,40.138,0,0,1-18.19-4.019,20.142,20.142,0,0,1-7.163-5.917,12.207,12.207,0,0,1-1.845-3.934l-.174-.762v-8.884a1.178,1.178,0,0,1,1.044-1.195,1.165,1.165,0,0,1,1.307.951c.1.487.174.863.306,1.3a11.132,11.132,0,0,0,2.29,3.729c3.4,3.732,8.737,5.589,11.634,6.354,9.271,2.495,20.162,1.551,27.766-2.4a17.063,17.063,0,0,0,6.719-5.8,8.287,8.287,0,0,0,1.04-2.5l.174-.692a1.162,1.162,0,0,1,1.276-.933,1.193,1.193,0,0,1,1.075,1.188v8.644l-.17.959a13.171,13.171,0,0,1-2.417,4.711c-3.434,4.29-9.108,6.5-12.168,7.43A43.289,43.289,0,0,1,1068.124,1420.227Z" transform="translate(0.098 67.965)" fill="#2d2a2a" fill-rule="evenodd"/><path d="M1094.547,1503.991v-16.236l-.4-.886c1.083.6,8.064,4.432,8.339,4.962l.1,16.789-.843,1.965-15.564,8.98-6.919-3.833v10.044c.058,1.539.293,2.665,1.608,3.578l-8-4.622c-1.338-.843-1.582-2.158-1.644-3.573v-81.067l-3.566-2.069c-4.1-2.375-6.212-6.181-7.225-10.683-3.021-13.517,4.2-29.99,12.911-40.684l7.994,4.629a65.616,65.616,0,0,0-6.354,9.356c-5.674,10.2-11.286,28.563-3.191,38.719,1.582,1.988,4.305,2.715,7.062,4.549.639.437.407,2.27.407,3.423v67.1l13.912-8.044a3,3,0,0,0,1.377-2.4Zm17.246-125.9c-5.206-3-7.294-4.908-13.243-5.968V1396.4c0,2.3-.2,2.858-1.713,4.672l-9.646,11.5c-1.276,1.5-1.752,1.447-3.6,1.366l-9.878-.453c1.141.666,7.793,4.719,8.5,4.742l10.009.271c2.364.062,2.263-.464,3.8-2.251,2.653-3.121,7.832-9.167,9.688-11.642a3.43,3.43,0,0,0,.839-2.753v-25.113a13.559,13.559,0,0,1,5.237,1.35Z" transform="translate(54.518 0.893)" fill="#c3c8c8" fill-rule="evenodd"/><path d="M1079.314,1415.785a39.748,39.748,0,0,0,3.991,2.166l9.862.244c1.3.039,1.335.039,2.147-.975.2-.239.41-.533.708-.858l.4-.476c2.8-3.284,7.5-8.788,9.209-11.1a2.236,2.236,0,0,0,.65-2.038V1377.63a1.2,1.2,0,0,1,.368-.859,22.156,22.156,0,0,0-6.022-2.312v22.831c0,2.6-.306,3.4-1.988,5.43l-9.646,11.5c-1.539,1.864-2.452,1.887-4.5,1.806l-5.175-.244Zm14.117,4.8c-.1,0-.206-.008-.336-.008l-10.021-.275c-.6-.011-1.57-.425-7.894-4.192l-1.172-.711a1.19,1.19,0,0,1,.634-2.216l9.913.46c1.752.085,1.752.073,2.626-.948l9.615-11.5c1.346-1.589,1.446-1.887,1.446-3.9v-24.277a1.22,1.22,0,0,1,1.408-1.187c4.978.905,7.43,2.4,10.853,4.479.843.507,1.752,1.056,2.758,1.651a1.16,1.16,0,0,1,.476,1.583,1.2,1.2,0,0,1-1.547.526,11.152,11.152,0,0,0-3.532-1.1v23.783a4.516,4.516,0,0,1-1.1,3.465c-1.783,2.378-6.5,7.913-9.313,11.228l-.433.476c-.244.3-.476.564-.646.789a3.861,3.861,0,0,1-3.732,1.884Zm-18.886-31.495,5.906,3.427a63.073,63.073,0,0,0-5.6,8.439c-4.614,8.281-11.035,25.971-4.785,37.462l-.9-.534c-3.465-2-5.616-5.237-6.656-9.9-2.858-12.76,3.9-28.547,12.04-38.894Zm20.9,115.794h0Zm-14.013,11.085,5.643,3.121,14.624-8.45.576-1.369-.1-16c-.944-.669-3.74-2.251-5.512-3.256v14.976a4.28,4.28,0,0,1-1.957,3.307l-13.274,7.669Zm-8.111-73.505v79.589c.074,1.416.348,2.1,1.087,2.568l4.571,2.646c0-.178-.039-.364-.039-.534v-10.106a1.143,1.143,0,0,0,0-1.3v-67.1c0-.263.039-.554.039-.859a6.1,6.1,0,0,0-.069-1.756c-.816-.472-1.787-.979-2.727-1.454a25.677,25.677,0,0,1-2.862-1.694Zm8.443,88.98a1.228,1.228,0,0,1-.607-.163l-7.995-4.622a5.14,5.14,0,0,1-2.216-4.548v-80.44l-3-1.721c-4.03-2.348-6.583-6.1-7.789-11.453-3.3-14.813,5.043-31.723,13.169-41.693a1.206,1.206,0,0,1,1.524-.287l7.995,4.63a1.218,1.218,0,0,1,.576.824,1.237,1.237,0,0,1-.244.959,61.263,61.263,0,0,0-6.25,9.182c-4.7,8.451-11.46,27.147-3.3,37.4a11.5,11.5,0,0,0,3.671,2.521,31.892,31.892,0,0,1,3.122,1.776c1.083.715,1.013,2.274.939,3.659a7.333,7.333,0,0,0-.027.754v65.046l12.129-7.012a1.814,1.814,0,0,0,.808-1.427v-15.919l-.3-.662a1.222,1.222,0,0,1,.271-1.377,1.238,1.238,0,0,1,1.412-.151l1.071.6c7.368,4.116,7.5,4.386,7.732,4.9a1.178,1.178,0,0,1,.1.5l.1,16.79a1.043,1.043,0,0,1-.1.476l-.836,1.972a1.167,1.167,0,0,1-.5.561l-15.536,8.977a1.155,1.155,0,0,1-1.176.008l-5.175-2.854v8.025c.058,1.47.3,2.046,1.1,2.6a1.187,1.187,0,0,1-.669,2.17Z" transform="translate(53.618 0)" fill="#2d2a2a" fill-rule="evenodd"/><path d="M1050.182,1436.586l-3.889-2.26v-52.265l3.92,2.26Z" transform="translate(15.982 29.406)" fill="#c3c8c8" fill-rule="evenodd"/><path d="M1048.368,1434.518l1.54.894V1385.89l-1.508-.882-.031,49.51Zm2.715,4.142a.993.993,0,0,1-.565-.159l-3.933-2.262a1.191,1.191,0,0,1-.607-1.033l.042-52.264a1.122,1.122,0,0,1,.6-1.037,1.221,1.221,0,0,1,1.176,0l3.9,2.263a1.21,1.21,0,0,1,.611,1.033v52.264a1.211,1.211,0,0,1-.611,1.036A1.144,1.144,0,0,1,1051.083,1438.66Z" transform="translate(15.081 28.526)" fill="#2d2a2a" fill-rule="evenodd"/><path d="M1049.086,1405.259,1045.2,1403l2.45-28.949,3.9,2.26Z" transform="translate(12.842 6.43)" fill="#c3c8c8" fill-rule="evenodd"/><path d="M1047.337,1403.24l1.651.943,2.216-26.334-1.648-.944-2.22,26.335Zm2.653,4.1a1.1,1.1,0,0,1-.568-.159l-3.93-2.262a1.214,1.214,0,0,1-.607-1.133l2.483-28.961a1.246,1.246,0,0,1,.607-.955,1.268,1.268,0,0,1,1.188.031l3.887,2.263a1.192,1.192,0,0,1,.611,1.122l-2.456,28.961a1.264,1.264,0,0,1-.634.955A1.382,1.382,0,0,1,1049.99,1407.343Z" transform="translate(11.939 5.541)" fill="#2d2a2a" fill-rule="evenodd"/><path d="M1049.734,1381.225l-3.9-2.26,11.463-6.629,3.931,2.261Z" transform="translate(14.658 1.515)" fill="#c3c8c8" fill-rule="evenodd"/><path d="M1049.114,1379.847l1.52.878,9.1-5.248-1.54-.878-9.077,5.249Zm1.52,3.442a1.269,1.269,0,0,1-.607-.158l-3.9-2.263a1.175,1.175,0,0,1,0-2.058l11.491-6.617a1.141,1.141,0,0,1,1.184,0l3.9,2.25a1.192,1.192,0,0,1,0,2.069l-11.471,6.625A1.33,1.33,0,0,1,1050.634,1383.289Z" transform="translate(13.759 0.633)" fill="#2d2a2a" fill-rule="evenodd"/><path d="M1050.439,1462.8l.031-52.265-4.268-2.038,2.465-28.95,11.491-6.628,2.42,26.134-4.234,6.95L1058.3,1426v32.274Z" transform="translate(15.725 3.191)" fill="#fff" fill-rule="evenodd"/><path d="M1048.353,1408.662l3.5,1.683a1.22,1.22,0,0,1,.681,1.075v50.21l5.469-3.168v-51.575a1.362,1.362,0,0,1,.174-.627l4.065-6.606-2.212-23.883-9.352,5.38-2.321,27.511Zm2.959,56.217a.993.993,0,0,1-.565-.159,1.187,1.187,0,0,1-.611-1.036V1412.17l-3.566-1.713a1.224,1.224,0,0,1-.669-1.175l2.452-28.95a1.155,1.155,0,0,1,.612-.932l11.46-6.629a1.174,1.174,0,0,1,1.141-.02,1.127,1.127,0,0,1,.642.944l2.421,26.142a1.188,1.188,0,0,1-.163.73l-4.073,6.657v51.931a1.171,1.171,0,0,1-.611,1.021l-7.863,4.544A1.144,1.144,0,0,1,1051.312,1464.879Z" transform="translate(14.853 2.308)" fill="#2d2a2a" fill-rule="evenodd"/><path d="M1095.226,1507.6l-14.492,8.362c-.77.441-1.381.082-1.381-.8v-16.241a3.035,3.035,0,0,1,1.381-2.39l14.492-8.351c.739-.448,1.377-.092,1.377.789V1505.2a3.138,3.138,0,0,1-1.377,2.4Zm6.989-82.8a2.9,2.9,0,0,1,.581-1.652c.367-.576.7-.7,1.408-1.759a63.784,63.784,0,0,0,7.062-14.017,45.606,45.606,0,0,0,2.858-15.413c.031-6.045-1.52-10.8-4.173-13.994a12.852,12.852,0,0,0-9.375-4.653v25.171a5.211,5.211,0,0,1-.074,1.256,2.846,2.846,0,0,1-.677,1.346l-10.683,12.779c-.6.712-1.114,1.381-1.821,1.35l-11.085-.414c-.507.05-.882-.329-.882-.994v-25.944a64.917,64.917,0,0,0-9.344,15.467c-5.074,11.979-5.573,23.833-1.338,30.945a12.933,12.933,0,0,0,7.964,6.119.742.742,0,0,1,.5.367,2.758,2.758,0,0,1,.144,1.234v80.358h0c0,1.764.607,3,1.608,3.578s2.391.5,3.934-.375l18.29-10.563a9.471,9.471,0,0,0,2.116-1.7,11.94,11.94,0,0,0,1.814-2.459,12.952,12.952,0,0,0,1.214-2.785,9.578,9.578,0,0,0,.4-2.7q-.2-38.2-.4-76.4c0-1.389,0-2.766-.039-4.154Z" transform="translate(60.498 4.317)" fill="#fff" fill-rule="evenodd"/><path d="M1096.271,1490.319l-14.055,8.114a1.9,1.9,0,0,0-.808,1.361v15.78l14.086-8.123h0a1.918,1.918,0,0,0,.777-1.377v-15.756Zm-15.3,27.9a1.962,1.962,0,0,1-.944-.255,2.132,2.132,0,0,1-1-1.934v-16.232a4.307,4.307,0,0,1,1.988-3.427l14.481-8.35a2.127,2.127,0,0,1,2.189-.1,2.1,2.1,0,0,1,.971,1.922v16.232a4.219,4.219,0,0,1-1.988,3.435l-14.45,8.362a2.529,2.529,0,0,1-1.246.344Zm-3.933-103.724h0Zm-3.829,27.94a.41.41,0,0,0,.1.016.492.492,0,0,0-.1-.016Zm1.841-50.214v22.467a2.235,2.235,0,0,0,.681,1.69,1.782,1.782,0,0,0,1.308.487l11.127.426c1.219.07,2.015-.882,2.758-1.775l10.721-12.786a4.34,4.34,0,0,0,.913-1.845,7.516,7.516,0,0,0,.1-1.52v-23.841a11.442,11.442,0,0,1,7.225,4.081c2.6,3.09,3.933,7.666,3.933,13.235a46.276,46.276,0,0,1-2.785,15.018,63.23,63.23,0,0,1-6.919,13.75,9.588,9.588,0,0,1-.816,1.013,5.693,5.693,0,0,0-.638.727,4.04,4.04,0,0,0-.738,2.364l.41,80.528a8.408,8.408,0,0,1-.336,2.352,10.975,10.975,0,0,1-1.118,2.534,12.375,12.375,0,0,1-1.609,2.239,8.678,8.678,0,0,1-1.883,1.477l-18.291,10.563a2.841,2.841,0,0,1-2.715.383,2.8,2.8,0,0,1-1.044-2.553v-80.56a3.05,3.05,0,0,0-.306-1.64,1.82,1.82,0,0,0-1.207-.913,11.76,11.76,0,0,1-7.233-5.577c-4.065-6.807-3.527-18.255,1.419-29.871a62.965,62.965,0,0,1,7.047-12.454Zm2.162,136.15a4.176,4.176,0,0,1-2.058-.526,5.059,5.059,0,0,1-2.216-4.61v-80.881a14.14,14.14,0,0,1-8.4-6.586c-4.44-7.453-3.968-19.721,1.245-32.024a66.353,66.353,0,0,1,9.546-15.757,1.2,1.2,0,0,1,1.307-.367,1.177,1.177,0,0,1,.808,1.125v25.771l10.791.394a4.008,4.008,0,0,0,.743-.766l10.822-12.934a2.191,2.191,0,0,0,.433-.851,4.275,4.275,0,0,0,.042-.77v-25.4a1.175,1.175,0,0,1,.368-.859,1.159,1.159,0,0,1,.866-.325,13.951,13.951,0,0,1,10.226,5.075c2.916,3.52,4.467,8.629,4.467,14.755a47.267,47.267,0,0,1-2.928,15.818,64.226,64.226,0,0,1-7.194,14.276,8.8,8.8,0,0,1-1.076,1.331,3.06,3.06,0,0,0-.363.433,1.833,1.833,0,0,0-.337.943v.039l.4,80.54a10.585,10.585,0,0,1-.429,3.04,15.865,15.865,0,0,1-1.311,3.052,15.35,15.35,0,0,1-1.984,2.684,10.477,10.477,0,0,1-2.395,1.914l-18.31,10.555A6.183,6.183,0,0,1,1077.211,1528.368Z" transform="translate(59.624 3.439)" fill="#2d2a2a" fill-rule="evenodd"/><path d="M1053.373,1436.05a1.175,1.175,0,0,1-1.172-1.2v-33.475a1.17,1.17,0,0,1,1.172-1.187,1.19,1.19,0,0,1,1.176,1.188v33.475A1.2,1.2,0,0,1,1053.373,1436.05Z" transform="translate(32.927 81.389)" fill="#2d2a2a" fill-rule="evenodd"/><path d="M1049.829,1442.36a1.2,1.2,0,0,1-1.219-1.187v-38.692a1.2,1.2,0,0,1,2.39,0v38.692A1.192,1.192,0,0,1,1049.829,1442.36Z" transform="translate(22.632 84.566)" fill="#2d2a2a" fill-rule="evenodd"/><path d="M1051.753,1439.841a1.2,1.2,0,0,1-1.2-1.2v-36.518a1.189,1.189,0,1,1,2.379,0v36.518A1.193,1.193,0,0,1,1051.753,1439.841Z" transform="translate(28.192 83.508)" fill="#2d2a2a" fill-rule="evenodd"/><path d="M1043.951,1436.05a1.194,1.194,0,0,1-1.172-1.2v-33.475a1.189,1.189,0,0,1,1.172-1.187,1.2,1.2,0,0,1,1.222,1.188v33.475A1.207,1.207,0,0,1,1043.951,1436.05Z" transform="translate(5.908 81.389)" fill="#2d2a2a" fill-rule="evenodd"/><path d="M1047.533,1442.36a1.184,1.184,0,0,1-1.172-1.187v-38.692a1.189,1.189,0,0,1,1.172-1.184,1.2,1.2,0,0,1,1.219,1.184v38.692A1.2,1.2,0,0,1,1047.533,1442.36Z" transform="translate(16.179 84.566)" fill="#2d2a2a" fill-rule="evenodd"/><path d="M1045.6,1439.841a1.2,1.2,0,0,1-1.179-1.2v-36.518a1.2,1.2,0,0,1,2.394,0v36.518A1.206,1.206,0,0,1,1045.6,1439.841Z" transform="translate(10.616 83.508)" fill="#2d2a2a" fill-rule="evenodd"/><path d="M1076.948,1412.967a1.029,1.029,0,0,1-.565-.163l-7.4-4.254a1.192,1.192,0,0,1-.437-1.632,1.225,1.225,0,0,1,1.651-.437l7.356,4.267a1.182,1.182,0,0,1,.441,1.62A1.234,1.234,0,0,1,1076.948,1412.967Z" transform="translate(79.342 98.98)" fill="#2d2a2a" fill-rule="evenodd"/><path d="M1078.689,1385.891a1.244,1.244,0,0,1-.611-.163l-8.133-4.691a1.194,1.194,0,0,1-.441-1.632,1.172,1.172,0,0,1,1.613-.437l8.138,4.7a1.192,1.192,0,0,1,.437,1.628A1.123,1.123,0,0,1,1078.689,1385.891Z" transform="translate(82.083 20.074)" fill="#2d2a2a" fill-rule="evenodd"/><path d="M1075.211,1389.491a1.056,1.056,0,0,1-.576-.163l-7.793-4.51a1.174,1.174,0,0,1-.434-1.632,1.16,1.16,0,0,1,1.609-.425l7.805,4.5a1.193,1.193,0,0,1,.433,1.628A1.147,1.147,0,0,1,1075.211,1389.491Z" transform="translate(73.184 30.943)" fill="#2d2a2a" fill-rule="evenodd"/><path d="M1078.394,1378.669a1.167,1.167,0,0,1-.58-.158l-7.658-4.429a1.184,1.184,0,1,1,1.171-2.058l7.666,4.417a1.187,1.187,0,0,1,.434,1.632A1.215,1.215,0,0,1,1078.394,1378.669Z" transform="translate(82.679 0.156)" fill="#2d2a2a" fill-rule="evenodd"/></g></svg>