<svg xmlns="http://www.w3.org/2000/svg" width="121.015" height="160" viewBox="0 0 121.015 160"><path d="M278.631,2338.463a65.632,65.632,0,0,0,2.184,17.005,40.309,40.309,0,0,0,7.651,14.631,29.572,29.572,0,0,0,7.153,5.8l6.258,3.625a30.379,30.379,0,0,1-10.032-9.655,42.487,42.487,0,0,1-4.77-10.778,65.483,65.483,0,0,1-2.186-17.008c0-11.73-1.39-25.369,1.689-37.1a59.282,59.282,0,0,1,5.363-13.41,65.979,65.979,0,0,1,9.439-13.321c4.868-4.979,10.032-9.06,16.688-11.267a19.236,19.236,0,0,1,8.245-.865,9.406,9.406,0,0,1,3.776,1.422l4.667,2.732a8.735,8.735,0,0,0,5.86,1.023,14.757,14.757,0,0,0,4.074-1.183,26.546,26.546,0,0,0,3.278-1.748c7.846-4.521,15.594-9.029,23.443-13.548l-6.258-3.617c-7.846,4.51-15.6,9.031-23.443,13.539-.895.558-1.689.984-2.682,1.48-4.173,1.918-6.356,2.275-10.133.169l-4.173-2.305a14.735,14.735,0,0,0-8.741-1.617c-7.151.9-13.111,4.976-18.277,9.686a62.26,62.26,0,0,0-10.231,12.595,67.926,67.926,0,0,0-7.253,16.607C277.241,2313.124,278.631,2326.769,278.631,2338.463Z" transform="translate(-277.11 -2224.604)" fill="#c3c8c8" fill-rule="evenodd"/><path d="M335.322,2269.448l.6.356a7.384,7.384,0,0,0,5.166.895,13.064,13.064,0,0,0,3.676-1.122,27.475,27.475,0,0,0,3.179-1.678c7.251-4.154,14.4-8.305,21.555-12.419l.1-.107-3.875-2.275-3.278,1.888c-6.457,3.755-13.014,7.538-19.568,11.333a30.621,30.621,0,0,1-2.783,1.511,19.346,19.346,0,0,1-4.768,1.619Zm-54.933,69.565Zm0,0a62.59,62.59,0,0,0,2.085,16.708,37.016,37.016,0,0,0,7.45,14.174,27.726,27.726,0,0,0,2.284,2.205,6.205,6.205,0,0,1-.694-1.022,39.812,39.812,0,0,1-4.967-11.107,67.04,67.04,0,0,1-2.284-17.335c0-2.76-.1-5.6-.2-8.531-.2-9.7-.5-19.739,1.888-28.868a67.355,67.355,0,0,1,5.462-13.678,74.4,74.4,0,0,1,9.735-13.539c5.86-6.038,11.126-9.6,17.086-11.571a21.26,21.26,0,0,1,5.96-1.054,13.6,13.6,0,0,0-7.551-1.223c-5.759.727-11.225,3.627-17.581,9.4a65.572,65.572,0,0,0-10.032,12.356,64.678,64.678,0,0,0-7.054,16.273c-2.284,8.83-2.087,18.694-1.786,28.25.1,2.931.2,5.792.2,8.564Zm22.053,42.216a1.285,1.285,0,0,1-.6-.13l-6.258-3.625a32.991,32.991,0,0,1-7.35-6.03,39.913,39.913,0,0,1-7.949-15.1A67.127,67.127,0,0,1,278,2339.013h0c0-2.733-.1-5.6-.2-8.5-.2-9.715-.5-19.738,1.886-28.9a65.794,65.794,0,0,1,7.35-16.906,69.949,69.949,0,0,1,10.332-12.855c4.273-3.825,10.828-9,19.073-9.982a15.321,15.321,0,0,1,9.338,1.717l4.171,2.333c3.477,1.879,5.166,1.619,9.139-.2a20.247,20.247,0,0,0,2.582-1.45q9.836-5.634,19.668-11.333l3.774-2.178a.962.962,0,0,1,1.094,0l6.358,3.6a1.254,1.254,0,0,1,.495,1.012,1.267,1.267,0,0,1-.495,1.023l-1.888,1.092c-7.153,4.153-14.4,8.263-21.555,12.457a32.493,32.493,0,0,1-3.378,1.778,15.6,15.6,0,0,1-4.372,1.281,9.739,9.739,0,0,1-6.557-1.153l-5.164-2.961a7.2,7.2,0,0,0-2.982-1.062,18.62,18.62,0,0,0-7.746.825c-5.564,1.847-10.529,5.244-16.093,10.976a64.965,64.965,0,0,0-9.338,13.052,58,58,0,0,0-5.263,13.153c-2.284,8.83-2.087,18.684-1.79,28.241.1,2.931.2,5.8.2,8.561a62.366,62.366,0,0,0,2.085,16.679,41.1,41.1,0,0,0,4.669,10.479,28.987,28.987,0,0,0,9.636,9.29,1.153,1.153,0,0,1-.6,2.146Z" transform="translate(-277.676 -2225.154)" fill="#2d2a2a" fill-rule="evenodd"/><path d="M281.779,2340.377c0,18.417,6.457,31.373,16.988,37.441s24.933,5.206,40.925-3.994l28.609-16.508v-104.2c-7.151,4.121-14.2,8.214-21.355,12.326a45.721,45.721,0,0,1-5.365,2.971c-3.676,1.611-6.954,1.71-9.636.3-3.974-2.146-5.564-4.58-11.424-4.421a25.623,25.623,0,0,0-11.623,3.685c-7.547,4.351-14.3,11.771-19.172,20.273-4.967,8.5-7.947,18.091-7.947,26.722Z" transform="translate(-274 -2222.895)" fill="#fff" fill-rule="evenodd"/><path d="M321.68,2265.988a2.884,2.884,0,0,0-.6.042,23.715,23.715,0,0,0-11.027,3.526c-7.052,4.082-13.706,11.136-18.774,19.828s-7.748,17.968-7.748,26.134v25.409c0,17.375,5.763,30.316,16.391,36.417,10.629,6.129,24.734,4.709,39.733-3.983l28.013-16.18v-101.5c-6.455,3.784-13.012,7.54-19.568,11.335l-1.094.664a34.036,34.036,0,0,1-4.37,2.335c-3.973,1.778-7.748,1.846-10.629.3a26.642,26.642,0,0,1-2.781-1.719c-2.186-1.448-3.973-2.6-7.549-2.6Zm-7.253,117.456a31.1,31.1,0,0,1-15.695-4.055c-11.323-6.565-17.581-20.2-17.581-38.463v-25.409c0-8.562,2.88-18.257,8.146-27.317,5.164-9.029,12.118-16.381,19.568-20.662a26.242,26.242,0,0,1,12.218-3.854c4.868-.129,6.954,1.35,9.437,2.929a28.683,28.683,0,0,0,2.584,1.621c2.284,1.211,5.263,1.123,8.542-.326a46.543,46.543,0,0,0,4.171-2.246l1.094-.656c7.151-4.123,14.2-8.245,21.357-12.356a1.072,1.072,0,0,1,1.092,0,1.115,1.115,0,0,1,.6,1.012v104.2a1.171,1.171,0,0,1-.6,1.024l-28.508,16.478C331.614,2380.741,322.573,2383.444,314.427,2383.444Z" transform="translate(-274.563 -2223.444)" fill="#2d2a2a" fill-rule="evenodd"/><path d="M298.053,2295.377a26.094,26.094,0,0,0-6.952,10.32c-3.179,8.265-1.293,15.32,4.271,15.786s12.715-5.871,15.894-14.136c1.391-3.824,1.886-7.748,1.092-10.817-.893-3.088-2.88-4.737-5.464-4.967C304.313,2291.364,301.134,2292.605,298.053,2295.377Z" transform="translate(-267.031 -2188.472)" fill="#c3c8c8" fill-rule="evenodd"/><path d="M299.418,2296.792a25.8,25.8,0,0,0-6.754,9.885c-1.788,4.737-1.888,9.355-.2,11.989a4.487,4.487,0,0,0,3.575,2.216c4.967.426,11.721-5.742,14.7-13.38,1.391-3.795,1.79-7.391,1.094-10.123-.7-2.5-2.286-3.922-4.472-4.082-2.383-.2-5.263,1.083-7.945,3.5Zm-2.881,26.423a6.229,6.229,0,0,1-.694-.03,6.782,6.782,0,0,1-5.365-3.257c-2.087-3.308-2.087-8.575.1-14.076a27.521,27.521,0,0,1,7.352-10.808h0c3.179-2.872,6.555-4.322,9.636-4.093,3.177.268,5.462,2.374,6.457,5.8.895,3.228.495,7.352-1.192,11.573C309.65,2316.856,302.5,2323.215,296.537,2323.215Z" transform="translate(-267.6 -2189.023)" fill="#2d2a2a" fill-rule="evenodd"/><path d="M308.911,2305.223c-4.47,4.023-7.153,10.907-5.862,15.386a4.431,4.431,0,0,0,3.875,3.626c4.072.329,9.238-4.28,11.623-10.311,2.284-6,.893-11.136-3.181-11.464C313.48,2302.293,311.2,2303.216,308.911,2305.223Z" transform="translate(-255.239 -2178.71)" fill="#c3c8c8" fill-rule="evenodd"/><path d="M310.286,2306.641c-4.074,3.693-6.658,10.22-5.564,14.242a3.27,3.27,0,0,0,2.98,2.732c3.376.269,8.146-4.082,10.33-9.526,1.291-3.4,1.291-6.626.2-8.463a3,3,0,0,0-2.383-1.45c-1.689-.14-3.678.754-5.562,2.465ZM307.9,2325.99a1.785,1.785,0,0,1-.4-.03,5.6,5.6,0,0,1-5.067-4.452c-1.39-4.946,1.391-12.228,6.26-16.608h0c2.483-2.144,5.065-3.238,7.352-3.069a5.347,5.347,0,0,1,4.171,2.544c1.49,2.493,1.49,6.417,0,10.539C317.735,2321.242,312.47,2325.99,307.9,2325.99Z" transform="translate(-255.818 -2179.272)" fill="#2d2a2a" fill-rule="evenodd"/><path d="M300.4,2271.053a37.453,37.453,0,0,0-9.735,14.4c-4.47,11.463-1.788,21.315,5.96,21.943,7.748.666,17.682-8.167,22.053-19.668,2.085-5.344,2.681-10.779,1.589-15.069-1.19-4.28-3.973-6.616-7.549-6.914C309.039,2265.481,304.667,2267.228,300.4,2271.053Z" transform="translate(-267.982 -2211.601)" fill="#c3c8c8" fill-rule="evenodd"/><path d="M300.958,2271.6Zm11.524-4.154c-3.28,0-7.153,1.811-10.728,5.039h0a35.141,35.141,0,0,0-9.439,13.905c-2.681,6.754-2.779,13.352-.4,17.147a6.836,6.836,0,0,0,5.365,3.257,6.936,6.936,0,0,0,.794.03c7.151,0,15.992-8.305,20.066-18.984,2.085-5.293,2.582-10.412,1.589-14.324-1.094-3.626-3.378-5.771-6.557-6.04a6.112,6.112,0,0,0-.694-.03Zm-14.5,41.722c-.3,0-.6-.029-.895-.029a9.267,9.267,0,0,1-7.151-4.352c-2.781-4.489-2.781-11.67.2-19.211a38.587,38.587,0,0,1,10.032-14.831h0c4.372-3.953,9.039-5.968,13.213-5.6s7.251,3.158,8.54,7.776c1.192,4.383.6,9.983-1.589,15.786C315.86,2300.213,306.025,2309.173,297.978,2309.173Z" transform="translate(-268.544 -2212.153)" fill="#2d2a2a" fill-rule="evenodd"/><path d="M326.156,2345.961c6.26-8.959,1.689-16.478-2.88-23.989-9.435-15.427-10.33-22.41.8-36.645l29.8.129,3.475,3.229a19.147,19.147,0,0,1,5.663,9.725c2.881,13.64-18.774,41.154-28.609,49.6C328.641,2352.847,321.289,2352.875,326.156,2345.961Z" transform="translate(-243.38 -2194.039)" fill="#c3c8c8" fill-rule="evenodd"/><path d="M326.69,2346.506Zm-1.49-59.452c-10.529,13.551-9.435,20.005-.4,34.838,4.77,7.708,9.537,15.686,2.781,25.3h0c-1.39,2.017-1.49,3.139-1.192,3.367.7.666,4.273.07,7.75-2.9,9.934-8.506,30.992-35.625,28.211-48.478a18.055,18.055,0,0,0-5.266-9.1l-3.177-2.931-28.709-.1Zm2.186,66.08a3.706,3.706,0,0,1-2.582-.825c-.993-.925-1.687-2.8.895-6.457,5.86-8.375,1.589-15.369-2.881-22.749-9.437-15.545-10.726-23.225.895-37.926a1.013,1.013,0,0,1,.895-.457h0l29.8.089a1.147,1.147,0,0,1,.792.339l3.477,3.257a19.986,19.986,0,0,1,5.962,10.311c3.079,14.273-19.172,42.387-29.009,50.72C332.849,2351.782,329.771,2353.134,327.386,2353.134Z" transform="translate(-243.914 -2194.583)" fill="#2d2a2a" fill-rule="evenodd"/><path d="M322.366,2348.2a1.267,1.267,0,0,1-.694-.258,1.192,1.192,0,0,1-.2-1.65c3.577-4.489,7.352-10.847,5.465-20.364a76.67,76.67,0,0,0-3.975-12.893c-2.88-7.509-5.363-14-1.289-23.693a1.274,1.274,0,0,1,1.589-.625,1.142,1.142,0,0,1,.6,1.549c-3.774,8.832-1.589,14.6,1.291,21.915a79.428,79.428,0,0,1,4.074,13.281c2.087,10.449-2.085,17.4-5.86,22.28A1.371,1.371,0,0,1,322.366,2348.2Z" transform="translate(-240.185 -2191.074)" fill="#2d2a2a" fill-rule="evenodd"/><path d="M322.049,2344.914a1.028,1.028,0,0,1-.794-.37,1.088,1.088,0,0,1,0-1.64c15.693-15.325,16.489-42.315,14.106-51.017a1.132,1.132,0,0,1,.794-1.41,1.2,1.2,0,0,1,1.49.815c2.383,9.058,1.687,37.269-14.7,53.293A1.648,1.648,0,0,1,322.049,2344.914Z" transform="translate(-238.974 -2189.463)" fill="#2d2a2a" fill-rule="evenodd"/><path d="M322.436,2349.227a1.149,1.149,0,0,1-1.092-.726,1.086,1.086,0,0,1,.6-1.507,2.133,2.133,0,0,0,.4-.168,1.288,1.288,0,0,1,.4-1c13.509-12.485,31.587-38.055,22.846-53.541a1.069,1.069,0,0,1,.4-1.591,1.191,1.191,0,0,1,1.591.429c8.84,15.526-5.96,37.609-17.086,50.064,9.437-8.673,19.172-24.059,21.754-36.117,1-4.618,1.49-10.977-2.284-14.9a1.224,1.224,0,0,1,.1-1.68,1.106,1.106,0,0,1,1.589.07c3.477,3.686,4.571,9.557,2.882,17-3.575,16.678-19.57,38.662-31.687,43.569A.834.834,0,0,1,322.436,2349.227Z" transform="translate(-238.665 -2191.474)" fill="#2d2a2a" fill-rule="evenodd"/><path d="M356.813,2301.1v-32.99c-.2,3.468-2.684,5.841-5.562,7.519-6.955,3.955-16.988,4.182-24.339,1.253-3.774-1.521-7.947-4.353-8.243-8.771v32.732l.1.258C320.159,2315.04,355.422,2315.111,356.813,2301.1Z" transform="translate(-240.957 -2209.457)" fill="#fff" fill-rule="evenodd"/><path d="M357.33,2301.672h0Zm-36.954-27.517v27.259c.7,6.624,9.735,9.554,17.883,9.585h0c8.146,0,17.281-2.961,17.879-9.427l.1-.228v-27.188a17.351,17.351,0,0,1-3.873,3.071c-7.052,3.982-17.285,4.508-25.331,1.31a17.228,17.228,0,0,1-6.656-4.381Zm17.883,39.189h0c-9.537-.04-19.373-3.6-20.167-11.534v-33.128a1.185,1.185,0,0,1,1.094-1.183h0a1.132,1.132,0,0,1,1.191,1.123c.3,4.184,4.768,6.656,7.452,7.738,7.35,2.9,16.984,2.444,23.342-1.181,3.278-1.878,4.868-4.053,5.065-6.6a1.036,1.036,0,0,1,1.192-1.083,1.185,1.185,0,0,1,1.094,1.183v33.128C357.726,2309.776,347.794,2313.345,338.259,2313.345Z" transform="translate(-241.474 -2210.025)" fill="#2d2a2a" fill-rule="evenodd"/><path d="M351.251,2301.467c2.781-1.617,5.462-4.151,5.562-7.549v-50.153c-.4,6.129-8.046,9.257-13.211,10.212-6.954,1.279-16.69.3-22.053-4.681a8.483,8.483,0,0,1-2.88-5.532v50.153c.2,4.45,4.868,7.509,8.643,8.931C334.561,2305.649,344.4,2305.312,351.251,2301.467Z" transform="translate(-240.957 -2231.269)" fill="#c3c8c8" fill-rule="evenodd"/><path d="M351.768,2302.033h0Zm-31.391-52.239v44.69c.1,3.627,4.172,6.429,7.848,7.837,7.251,2.771,16.688,2.216,22.946-1.31,1.886-1.094,4.967-3.367,5.065-6.567v-44.65c-2.779,3.17-7.647,5.105-11.82,5.9-7.153,1.323-17.384.328-23.145-4.946-.3-.328-.6-.616-.895-.954Zm17.883,56.65a30.075,30.075,0,0,1-10.83-1.947c-2.184-.785-9.236-3.924-9.336-9.983v-50.184a1.173,1.173,0,0,1,1.094-1.192,1.123,1.123,0,0,1,1.191,1.083,6.829,6.829,0,0,0,2.483,4.789c5.166,4.739,14.6,5.6,21.058,4.379,5.465-1.022,12.021-4.023,12.318-9.167a1.187,1.187,0,0,1,1.192-1.083,1.173,1.173,0,0,1,1.094,1.192v50.153c-.1,4.124-3.376,6.914-6.159,8.535h0A28.913,28.913,0,0,1,338.259,2306.445Z" transform="translate(-241.474 -2231.835)" fill="#2d2a2a" fill-rule="evenodd"/><path d="M337.742,2259.844a27.72,27.72,0,0,0,13.509-3.228c3.773-2.146,5.562-4.977,5.562-7.809,0-2.8-1.79-5.641-5.562-7.776a27.618,27.618,0,0,0-13.509-3.228,27.234,27.234,0,0,0-13.412,3.228c-3.774,2.135-5.661,4.975-5.661,7.776,0,2.833,1.886,5.663,5.661,7.809A27.335,27.335,0,0,0,337.742,2259.844Z" transform="translate(-240.957 -2236.61)" fill="#e2e7e7" fill-rule="evenodd"/><path d="M338.259,2239.528a26.644,26.644,0,0,0-12.916,3.06c-3.177,1.846-4.967,4.262-4.967,6.764,0,2.535,1.79,4.938,4.967,6.787a26.542,26.542,0,0,0,12.916,3.069,25.985,25.985,0,0,0,12.912-3.069c3.278-1.849,5.065-4.252,5.065-6.787,0-2.5-1.788-4.917-5.065-6.764a26.084,26.084,0,0,0-12.912-3.06Zm0,22.013a28.493,28.493,0,0,1-14.01-3.357c-3.972-2.3-6.157-5.444-6.157-8.833,0-3.366,2.186-6.5,6.157-8.8a31.105,31.105,0,0,1,28.114,0c3.973,2.3,6.159,5.433,6.159,8.8,0,3.388-2.186,6.529-6.159,8.833A28.6,28.6,0,0,1,338.259,2261.541Z" transform="translate(-241.474 -2237.155)" fill="#2d2a2a" fill-rule="evenodd"/><path d="M351.207,2246.468c0-11.562-30.495-11.562-30.495,0C320.712,2258.07,351.207,2258.07,351.207,2246.468Z" transform="translate(-239.127 -2236.614)" fill="#e2e7e7" fill-rule="evenodd"/><path d="M336.475,2239.516h0c-6.956,0-14.01,2.6-14.01,7.511,0,4.946,7.054,7.52,14.01,7.52h0c7.052,0,14.1-2.574,14.1-7.52,0-4.908-7.052-7.511-14.1-7.511Zm0,17.365h0c-7.85,0-16.392-3.06-16.392-9.854,0-6.754,8.542-9.854,16.392-9.854h0c7.945,0,16.487,3.1,16.487,9.854h0C352.963,2253.822,344.42,2256.881,336.475,2256.881Z" transform="translate(-239.69 -2237.173)" fill="#2d2a2a" fill-rule="evenodd"/><path d="M321.608,2331.17c3.28-4.381,1.591-9.566-.1-14.5-1.788-5.4,8.245,2.137,15.4-.625,8.743-3.4,6.954-13.183,14.5-14.6,2.682-.5,5.067-.754,3.973,1.75-5.761,13.539-17.384,25.607-24.436,31.668C325.185,2339.7,316.741,2338.052,321.608,2331.17Z" transform="translate(-239.626 -2179.901)" fill="#e2e7e7" fill-rule="evenodd"/><path d="M323.067,2332.4c-.6.855-1.888,2.971-.794,3.955,1.291,1.162,5.166.963,8.444-1.839,8.245-7.024,18.973-18.954,24.138-31.24a1.52,1.52,0,0,0,.2-.567c0,.1-.6,0-2.88.429-3.181.6-4.47,2.938-5.96,5.939-1.691,3.158-3.579,6.754-8.345,8.591-3.873,1.521-8.345.3-11.623-.625a27.29,27.29,0,0,0-3.179-.7,4.86,4.86,0,0,1,.1.5c1.691,5.075,3.577,10.716-.1,15.554Zm1.49,6.954a5.668,5.668,0,0,1-3.875-1.251c-.792-.754-2.383-2.97.5-7.082v-.04c2.98-3.845,1.392-8.435-.2-13.312-.2-.555-.7-2.036.3-3,.993-1.081,2.781-.624,5.564.14,2.98.824,7.052,1.907,10.229.686,3.877-1.541,5.465-4.58,7.052-7.509,1.592-3.128,3.28-6.328,7.649-7.153,2.188-.4,4.172-.658,5.168.567a2.542,2.542,0,0,1,.1,2.8c-5.365,12.685-16.292,24.874-24.834,32.1A12.218,12.218,0,0,1,324.557,2339.354Z" transform="translate(-240.19 -2180.447)" fill="#2d2a2a" fill-rule="evenodd"/></svg>