<svg xmlns="http://www.w3.org/2000/svg" width="107.922" height="160" viewBox="0 0 107.922 160"><g transform="translate(0 0)"><path d="M1163.189,1192.382l-11.024-6.356c-1.925-1.579-2.026-2.559-2.261-4.962l.031-64.826,11.022,6.367-.029,64.827C1161.161,1189.838,1161.262,1190.813,1163.189,1192.382Z" transform="translate(-1148.722 -1034.105)" fill="#fff" fill-rule="evenodd"/><path d="M1151.691,1118.9v62.748c.2,2.149.243,2.761,1.793,4.035l7,4.023c-.072-.476-.1-1-.161-1.589l.031-64.234-8.66-4.983Zm12.072,75.258a1.35,1.35,0,0,1-.613-.152l-11.022-6.368c-2.394-1.936-2.6-3.27-2.833-5.878l.031-64.939a1.175,1.175,0,0,1,.581-1.04,1.284,1.284,0,0,1,1.211,0l11.015,6.369a1.2,1.2,0,0,1,.61,1.038l-.031,64.827c.2,2.139.235,2.749,1.792,4.023a1.2,1.2,0,0,1,.235,1.61A1.192,1.192,0,0,1,1163.764,1194.153Z" transform="translate(-1149.296 -1034.684)" fill="#2d2a2a" fill-rule="evenodd"/><path d="M1160.942,1161.917l-11.022-6.367v-21.006a16.961,16.961,0,0,1,7.68-13.276l79.152-45.652c2.2-1.009,3.107-1.4,5.409-.521l11.014,6.358c-2.292-.867-3.21-.479-5.411.531l-79.15,45.65a16.946,16.946,0,0,0-7.672,13.276Z" transform="translate(-1148.707 -1073.417)" fill="#c3c8c8" fill-rule="evenodd"/><path d="M1151.676,1155.436l8.66,4.981v-18.929a17.945,17.945,0,0,1,8.21-14.283l79.191-45.683c.57-.264,1.079-.5,1.548-.682l-7.161-4.126c-1.692-.62-2.232-.377-4.291.57l-79.057,45.6a15.555,15.555,0,0,0-7.062,12.3l-.039,20.254Zm9.84,8.263a1.264,1.264,0,0,1-.61-.175l-11.013-6.356a1.173,1.173,0,0,1-.581-1.04v-21.006a17.974,17.974,0,0,1,8.211-14.285l79.191-45.683c2.475-1.139,3.76-1.619,6.459-.6l11.187,6.439a1.183,1.183,0,0,1,.467,1.548,1.163,1.163,0,0,1-1.485.611c-1.855-.7-2.425-.447-4.493.49l-79.049,45.611a15.551,15.551,0,0,0-7.069,12.288V1162.5a1.2,1.2,0,0,1-.61,1.039A1.3,1.3,0,0,1,1161.516,1163.7Z" transform="translate(-1149.281 -1073.995)" fill="#2d2a2a" fill-rule="evenodd"/><path d="M1163.261,1124.557l79.15-45.65c4.227-2.436,7.672-.449,7.672,4.433l-.031,20.985-94.464,54.516v-21.008A16.979,16.979,0,0,1,1163.261,1124.557Z" transform="translate(-1143.354 -1070.34)" fill="#c3c8c8" fill-rule="evenodd"/><path d="M1164.445,1126.184c-3.82,2.21-7.069,7.814-7.069,12.235v18.929l92.068-53.13v-20.293c0-1.917-.57-3.313-1.66-3.926-1.04-.61-2.526-.426-4.188.533l-79.15,45.65Zm-8.283,34.447a1.264,1.264,0,0,1-.61-.175,1.153,1.153,0,0,1-.57-1.029v-21.008c0-5.257,3.717-11.685,8.282-14.312h0l79.119-45.654c2.434-1.406,4.8-1.591,6.622-.529s2.843,3.2,2.843,6v20.985a1.194,1.194,0,0,1-.612,1.031l-94.471,54.524A1.3,1.3,0,0,1,1156.162,1160.631Z" transform="translate(-1143.927 -1070.927)" fill="#2d2a2a" fill-rule="evenodd"/><path d="M1250.067,1091.474v64.836a16.958,16.958,0,0,1-7.672,13.276c-29.024,16.748-50.124,28.9-79.15,45.652-4.227,2.434-7.67.447-7.67-4.421l.029-64.827Z" transform="translate(-1143.368 -1057.49)" fill="#fff" fill-rule="evenodd"/><path d="M1157.391,1147.267l-.031,64.133c0,1.905.571,3.3,1.66,3.912,1.04.62,2.527.428,4.188-.519l79.15-45.662c3.821-2.2,7.072-7.816,7.072-12.237l.029-62.768-92.068,53.142Zm3.016,70.805a5.182,5.182,0,0,1-2.609-.682c-1.822-1.062-2.831-3.189-2.831-5.99l.031-64.827a1.181,1.181,0,0,1,.57-1.038l94.5-54.518a1.178,1.178,0,0,1,1.182,0,1.225,1.225,0,0,1,.612,1.04l-.043,64.836c0,5.267-3.708,11.685-8.24,14.314l-79.162,45.654A8.123,8.123,0,0,1,1160.406,1218.072Z" transform="translate(-1143.942 -1058.072)" fill="#2d2a2a" fill-rule="evenodd"/><path d="M1187.225,1092.73c2.071-1.18,3.719-.222,3.719,2.141a8.143,8.143,0,0,1-3.719,6.408c-2.026,1.172-3.687.226-3.687-2.139A8.2,8.2,0,0,1,1187.225,1092.73Z" transform="translate(-1116.961 -1056.78)" fill="#fff" fill-rule="evenodd"/><path d="M1187.814,1093.312h0Zm1.664.694a2.2,2.2,0,0,0-1.05.346h0a6.943,6.943,0,0,0-3.119,5.37,1.548,1.548,0,0,0,.51,1.353,1.576,1.576,0,0,0,1.425-.253,7.017,7.017,0,0,0,3.068-5.37c0-.683-.163-1.192-.469-1.365a.855.855,0,0,0-.365-.082Zm-3.323,9.556a3.186,3.186,0,0,1-1.55-.408,3.834,3.834,0,0,1-1.69-3.432,9.342,9.342,0,0,1,4.328-7.448h0a3.8,3.8,0,0,1,3.823-.265,3.842,3.842,0,0,1,1.649,3.444,9.282,9.282,0,0,1-4.287,7.439A4.549,4.549,0,0,1,1186.155,1103.563Z" transform="translate(-1117.549 -1057.362)" fill="#2d2a2a" fill-rule="evenodd"/><path d="M1193.813,1088.941c2.026-1.172,3.688-.216,3.688,2.139a8.192,8.192,0,0,1-3.688,6.407c-2.059,1.184-3.718.225-3.718-2.139A8.164,8.164,0,0,1,1193.813,1088.941Z" transform="translate(-1110.77 -1060.354)" fill="#fff" fill-rule="evenodd"/><path d="M1194.388,1089.521Zm1.62.692a2.411,2.411,0,0,0-1.05.344h0a7.064,7.064,0,0,0-3.107,5.37,1.577,1.577,0,0,0,.509,1.365c.305.175.815.072,1.417-.264a6.953,6.953,0,0,0,3.107-5.368,1.577,1.577,0,0,0-.5-1.355.672.672,0,0,0-.377-.091Zm-3.311,9.554a3.068,3.068,0,0,1-1.548-.406,3.8,3.8,0,0,1-1.662-3.434,9.381,9.381,0,0,1,4.291-7.437h0a3.8,3.8,0,0,1,3.819-.266,3.842,3.842,0,0,1,1.691,3.436,9.341,9.341,0,0,1-4.33,7.447A4.479,4.479,0,0,1,1192.7,1099.768Z" transform="translate(-1111.345 -1060.934)" fill="#2d2a2a" fill-rule="evenodd"/><path d="M1200.367,1085.16c2.028-1.182,3.679-.224,3.679,2.141a8.194,8.194,0,0,1-3.679,6.407c-2.057,1.182-3.717.225-3.717-2.139A8.16,8.16,0,0,1,1200.367,1085.16Z" transform="translate(-1104.58 -1063.93)" fill="#fff" fill-rule="evenodd"/><path d="M1202.563,1086.432a2.249,2.249,0,0,0-1.05.346,7.016,7.016,0,0,0-3.078,5.37c0,.673.173,1.192.48,1.365a1.6,1.6,0,0,0,1.413-.266,6.944,6.944,0,0,0,3.109-5.366,1.616,1.616,0,0,0-.5-1.367.8.8,0,0,0-.375-.082Zm-3.282,9.556a3.01,3.01,0,0,1-1.55-.408,3.729,3.729,0,0,1-1.69-3.432,9.42,9.42,0,0,1,4.287-7.448,3.443,3.443,0,0,1,5.514,3.181,9.363,9.363,0,0,1-4.33,7.447A4.466,4.466,0,0,1,1199.281,1095.989Z" transform="translate(-1105.154 -1064.51)" fill="#2d2a2a" fill-rule="evenodd"/><path d="M1170.816,1134.053v-3.426l15.751-9.107v3.422Z" transform="translate(-1128.974 -1029.118)" fill="#c3c8c8" fill-rule="evenodd"/><path d="M1172.593,1131.9v.651l13.386-7.723v-.653l-13.386,7.725Zm-1.184,3.922a1.276,1.276,0,0,1-.611-.154,1.222,1.222,0,0,1-.611-1.038v-3.426a1.217,1.217,0,0,1,.611-1.038l15.782-9.1a1.135,1.135,0,0,1,1.192,0,1.192,1.192,0,0,1,.6,1.029v3.422a1.208,1.208,0,0,1-.6,1.04l-15.79,9.1A1.019,1.019,0,0,1,1171.409,1135.826Z" transform="translate(-1129.568 -1029.699)" fill="#2d2a2a" fill-rule="evenodd"/><path d="M1161.757,1141.965v-5.307l11.39-11.777-11.39,1.437v-5.256l16.332-1.265v4.5Z" transform="translate(-1137.529 -1030.745)" fill="#c3c8c8" fill-rule="evenodd"/><path d="M1163.536,1137.728v1.763l13.96-15.078v-2.741l-13.96,1.071v2.8l10.068-1.264a1.191,1.191,0,0,1,1.223.651,1.225,1.225,0,0,1-.233,1.367l-11.057,11.429Zm-1.19,6.012a1.242,1.242,0,0,1-.437-.082,1.187,1.187,0,0,1-.776-1.11v-5.308a1.347,1.347,0,0,1,.336-.836l9.027-9.321-8.009,1.007a1.2,1.2,0,0,1-.947-.284,1.311,1.311,0,0,1-.408-.906v-5.257a1.223,1.223,0,0,1,1.12-1.2l16.354-1.254a1.075,1.075,0,0,1,.877.317,1.1,1.1,0,0,1,.406.875v4.5a1.2,1.2,0,0,1-.336.815l-16.321,17.656A1.226,1.226,0,0,1,1162.346,1143.74Z" transform="translate(-1138.118 -1031.328)" fill="#2d2a2a" fill-rule="evenodd"/></g></svg>